AnekMalayalam-CondensedExtraBold.ufo
<glyph name="zero" format="2">
  <advance width="905"/>
  <unicode hex="0030"/>
  <outline>
    <contour>
      <point x="452" y="-22" type="curve" smooth="yes"/>
      <point x="717" y="-22"/>
      <point x="850" y="124"/>
      <point x="850" y="415" type="curve"/>
      <point x="850" y="863" type="line"/>
      <point x="850" y="1152"/>
      <point x="717" y="1300"/>
      <point x="452" y="1300" type="curve" smooth="yes"/>
      <point x="187" y="1300"/>
      <point x="55" y="1152"/>
      <point x="55" y="863" type="curve"/>
      <point x="55" y="415" type="line"/>
      <point x="55" y="124"/>
      <point x="187" y="-22"/>
    </contour>
    <contour>
      <point x="452" y="245" type="curve" smooth="yes"/>
      <point x="395" y="245"/>
      <point x="377" y="287"/>
      <point x="377" y="388" type="curve" smooth="yes"/>
      <point x="377" y="890" type="line" smooth="yes"/>
      <point x="377" y="991"/>
      <point x="395" y="1033"/>
      <point x="452" y="1033" type="curve" smooth="yes"/>
      <point x="509" y="1033"/>
      <point x="528" y="991"/>
      <point x="528" y="890" type="curve" smooth="yes"/>
      <point x="528" y="388" type="line" smooth="yes"/>
      <point x="528" y="287"/>
      <point x="509" y="245"/>
    </contour>
  </outline>
</glyph>
<glyph name="I" format="2">
  <advance width="468"/>
  <unicode hex="0049"/>
  <anchor x="234" y="0" name="bottom"/>
  <anchor x="409" y="0" name="ogonek"/>
  <anchor x="234" y="1278" name="top"/>
  <anchor x="20" y="1278" name="topleft"/>
  <outline>
    <contour>
      <point x="394" y="1278" type="line"/>
      <point x="74" y="1278" type="line"/>
      <point x="74" y="0" type="line"/>
      <point x="394" y="0" type="line"/>
    </contour>
  </outline>
</glyph>
<glyph name="U" format="2">
  <advance width="925"/>
  <unicode hex="0055"/>
  <anchor x="463" y="0" name="bottom"/>
  <anchor x="675" y="0" name="ogonek"/>
  <anchor x="463" y="1278" name="top"/>
  <anchor x="933" y="1278" name="topright"/>
  <outline>
    <contour>
      <point x="463" y="-22" type="curve" smooth="yes"/>
      <point x="730" y="-22"/>
      <point x="857" y="127"/>
      <point x="857" y="414" type="curve" smooth="yes"/>
      <point x="857" y="1278" type="line"/>
      <point x="537" y="1278" type="line"/>
      <point x="537" y="385" type="line" smooth="yes"/>
      <point x="537" y="289"/>
      <point x="521" y="248"/>
      <point x="463" y="248" type="curve" smooth="yes"/>
      <point x="404" y="248"/>
      <point x="388" y="289"/>
      <point x="388" y="385" type="curve" smooth="yes"/>
      <point x="388" y="1278" type="line"/>
      <point x="68" y="1278" type="line"/>
      <point x="68" y="414" type="line" smooth="yes"/>
      <point x="68" y="127"/>
      <point x="195" y="-22"/>
    </contour>
  </outline>
</glyph>
<glyph name="bracketright" format="2">
  <advance width="528"/>
  <unicode hex="005D"/>
  <outline>
    <contour>
      <point x="32" y="-239" type="line"/>
      <point x="32" y="0" type="line"/>
      <point x="155" y="0" type="line"/>
      <point x="155" y="1113" type="line"/>
      <point x="32" y="1113" type="line"/>
      <point x="32" y="1352" type="line"/>
      <point x="450" y="1352" type="line"/>
      <point x="450" y="-239" type="line"/>
    </contour>
  </outline>
</glyph>
<glyph name="underscore" format="2">
  <advance width="615"/>
  <unicode hex="005F"/>
  <outline>
    <contour>
      <point x="599" y="-259" type="line"/>
      <point x="599" y="-15" type="line"/>
      <point x="16" y="-15" type="line"/>
      <point x="16" y="-259" type="line"/>
    </contour>
  </outline>
</glyph>
<glyph name="j" format="2">
  <advance width="447"/>
  <unicode hex="006A"/>
  <outline>
    <component base="jbottom"/>
    <contour>
      <point x="381" y="172" type="line"/>
      <point x="381" y="1006" type="line"/>
      <point x="70" y="1006" type="line"/>
      <point x="70" y="172" type="line"/>
    </contour>
    <contour>
      <point x="226" y="1063" type="curve" smooth="yes"/>
      <point x="335" y="1063"/>
      <point x="386" y="1122"/>
      <point x="386" y="1213" type="curve" smooth="yes"/>
      <point x="386" y="1224" type="line" smooth="yes"/>
      <point x="386" y="1315"/>
      <point x="335" y="1374"/>
      <point x="226" y="1374" type="curve" smooth="yes"/>
      <point x="117" y="1374"/>
      <point x="66" y="1315"/>
      <point x="66" y="1224" type="curve" smooth="yes"/>
      <point x="66" y="1213" type="line" smooth="yes"/>
      <point x="66" y="1122"/>
      <point x="117" y="1063"/>
    </contour>
  </outline>
</glyph>
<glyph name="braceleft" format="2">
  <advance width="575"/>
  <unicode hex="007B"/>
  <outline>
    <contour>
      <point x="543" y="1340" type="line"/>
      <point x="492" y="1352"/>
      <point x="448" y="1360"/>
      <point x="409" y="1360" type="curve" smooth="yes"/>
      <point x="212" y="1360"/>
      <point x="113" y="1268"/>
      <point x="113" y="1038" type="curve" smooth="yes"/>
      <point x="113" y="984"/>
      <point x="128" y="837"/>
      <point x="128" y="797" type="curve" smooth="yes"/>
      <point x="128" y="729"/>
      <point x="98" y="699"/>
      <point x="32" y="692" type="curve"/>
      <point x="32" y="423" type="line"/>
      <point x="98" y="416"/>
      <point x="128" y="386"/>
      <point x="128" y="318" type="curve" smooth="yes"/>
      <point x="128" y="278"/>
      <point x="113" y="131"/>
      <point x="113" y="75" type="curve" smooth="yes"/>
      <point x="113" y="-155"/>
      <point x="212" y="-247"/>
      <point x="409" y="-247" type="curve" smooth="yes"/>
      <point x="448" y="-247"/>
      <point x="490" y="-239"/>
      <point x="543" y="-226" type="curve"/>
      <point x="543" y="2" type="line"/>
      <point x="531" y="-2"/>
      <point x="516" y="-4"/>
      <point x="501" y="-4" type="curve" smooth="yes"/>
      <point x="437" y="-4"/>
      <point x="415" y="29"/>
      <point x="415" y="101" type="curve" smooth="yes"/>
      <point x="415" y="132"/>
      <point x="429" y="276"/>
      <point x="429" y="313" type="curve" smooth="yes"/>
      <point x="429" y="450"/>
      <point x="394" y="538"/>
      <point x="224" y="558" type="curve"/>
      <point x="260" y="540" type="line"/>
      <point x="260" y="563" type="line"/>
      <point x="389" y="587"/>
      <point x="429" y="664"/>
      <point x="429" y="800" type="curve" smooth="yes"/>
      <point x="429" y="837"/>
      <point x="415" y="981"/>
      <point x="415" y="1012" type="curve" smooth="yes"/>
      <point x="415" y="1084"/>
      <point x="437" y="1117"/>
      <point x="501" y="1117" type="curve" smooth="yes"/>
      <point x="516" y="1117"/>
      <point x="531" y="1115"/>
      <point x="543" y="1111" type="curve"/>
    </contour>
  </outline>
</glyph>
<glyph name="registered" format="2">
  <advance width="712"/>
  <unicode hex="00AE"/>
  <outline>
    <contour>
      <point x="356" y="510" type="curve" smooth="yes"/>
      <point x="560" y="510"/>
      <point x="670" y="632"/>
      <point x="670" y="838" type="curve" smooth="yes"/>
      <point x="670" y="971" type="line" smooth="yes"/>
      <point x="670" y="1176"/>
      <point x="560" y="1297"/>
      <point x="356" y="1297" type="curve" smooth="yes"/>
      <point x="151" y="1297"/>
      <point x="41" y="1176"/>
      <point x="41" y="971" type="curve" smooth="yes"/>
      <point x="41" y="838" type="line" smooth="yes"/>
      <point x="41" y="632"/>
      <point x="151" y="510"/>
    </contour>
    <contour>
      <point x="356" y="616" type="curve" smooth="yes"/>
      <point x="225" y="616"/>
      <point x="163" y="684"/>
      <point x="163" y="827" type="curve" smooth="yes"/>
      <point x="163" y="984" type="line" smooth="yes"/>
      <point x="163" y="1124"/>
      <point x="225" y="1191"/>
      <point x="356" y="1191" type="curve" smooth="yes"/>
      <point x="486" y="1191"/>
      <point x="548" y="1124"/>
      <point x="548" y="984" type="curve" smooth="yes"/>
      <point x="548" y="827" type="line" smooth="yes"/>
      <point x="548" y="684"/>
      <point x="486" y="616"/>
    </contour>
    <contour>
      <point x="498" y="711" type="line"/>
      <point x="489" y="808" type="line" smooth="yes"/>
      <point x="483" y="874"/>
      <point x="462" y="901"/>
      <point x="389" y="906" type="curve"/>
      <point x="411" y="892" type="line"/>
      <point x="411" y="907" type="line"/>
      <point x="469" y="911"/>
      <point x="494" y="942"/>
      <point x="494" y="995" type="curve" smooth="yes"/>
      <point x="494" y="1003" type="line" smooth="yes"/>
      <point x="494" y="1070"/>
      <point x="453" y="1113"/>
      <point x="362" y="1113" type="curve" smooth="yes"/>
      <point x="317" y="1113" type="line"/>
      <point x="317" y="1021" type="line"/>
      <point x="357" y="1021" type="line" smooth="yes"/>
      <point x="377" y="1021"/>
      <point x="387" y="1007"/>
      <point x="387" y="978" type="curve" smooth="yes"/>
      <point x="387" y="966" type="line" smooth="yes"/>
      <point x="387" y="938"/>
      <point x="377" y="925"/>
      <point x="357" y="925" type="curve" smooth="yes"/>
      <point x="317" y="925" type="line"/>
      <point x="317" y="836" type="line"/>
      <point x="350" y="836" type="line" smooth="yes"/>
      <point x="375" y="836"/>
      <point x="381" y="826"/>
      <point x="384" y="789" type="curve" smooth="yes"/>
      <point x="390" y="711" type="line"/>
    </contour>
    <contour>
      <point x="339" y="711" type="line"/>
      <point x="339" y="869" type="line"/>
      <point x="338" y="906" type="line"/>
      <point x="338" y="1113" type="line"/>
      <point x="232" y="1113" type="line"/>
      <point x="232" y="711" type="line"/>
    </contour>
  </outline>
</glyph>
<glyph name="threesuperior" format="2">
  <advance width="429"/>
  <unicode hex="00B3"/>
  <outline>
    <contour>
      <point x="176" y="688" type="curve" smooth="yes"/>
      <point x="337" y="688"/>
      <point x="409" y="761"/>
      <point x="409" y="882" type="curve" smooth="yes"/>
      <point x="409" y="895" type="line" smooth="yes"/>
      <point x="409" y="995"/>
      <point x="370" y="1040"/>
      <point x="270" y="1053" type="curve"/>
      <point x="283" y="1027" type="line"/>
      <point x="283" y="1057" type="line"/>
      <point x="370" y="1075"/>
      <point x="406" y="1127"/>
      <point x="406" y="1210" type="curve" smooth="yes"/>
      <point x="406" y="1221" type="line" smooth="yes"/>
      <point x="406" y="1334"/>
      <point x="340" y="1397"/>
      <point x="202" y="1397" type="curve" smooth="yes"/>
      <point x="136" y="1397"/>
      <point x="79" y="1383"/>
      <point x="39" y="1365" type="curve"/>
      <point x="24" y="1197" type="line"/>
      <point x="53" y="1208"/>
      <point x="92" y="1221"/>
      <point x="137" y="1221" type="curve" smooth="yes"/>
      <point x="180" y="1221"/>
      <point x="198" y="1205"/>
      <point x="198" y="1176" type="curve" smooth="yes"/>
      <point x="198" y="1173" type="line" smooth="yes"/>
      <point x="198" y="1140"/>
      <point x="168" y="1130"/>
      <point x="124" y="1127" type="curve" smooth="yes"/>
      <point x="79" y="1124" type="line"/>
      <point x="79" y="968" type="line"/>
      <point x="129" y="965" type="line" smooth="yes"/>
      <point x="180" y="962"/>
      <point x="197" y="945"/>
      <point x="197" y="917" type="curve" smooth="yes"/>
      <point x="197" y="914" type="line" smooth="yes"/>
      <point x="197" y="884"/>
      <point x="179" y="865"/>
      <point x="131" y="865" type="curve" smooth="yes"/>
      <point x="87" y="865"/>
      <point x="55" y="875"/>
      <point x="19" y="888" type="curve"/>
      <point x="34" y="715" type="line"/>
      <point x="65" y="699"/>
      <point x="125" y="688"/>
    </contour>
  </outline>
</glyph>
<glyph name="ordmasculine" format="2">
  <advance width="543"/>
  <unicode hex="00BA"/>
  <outline>
    <contour>
      <point x="271" y="622" type="curve" smooth="yes"/>
      <point x="432" y="622"/>
      <point x="515" y="714"/>
      <point x="515" y="889" type="curve"/>
      <point x="515" y="1027" type="line"/>
      <point x="515" y="1201"/>
      <point x="433" y="1294"/>
      <point x="271" y="1294" type="curve" smooth="yes"/>
      <point x="110" y="1294"/>
      <point x="28" y="1202"/>
      <point x="28" y="1027" type="curve"/>
      <point x="28" y="889" type="line"/>
      <point x="28" y="714"/>
      <point x="111" y="622"/>
    </contour>
    <contour>
      <point x="272" y="797" type="curve" smooth="yes"/>
      <point x="246" y="797"/>
      <point x="240" y="817"/>
      <point x="240" y="854" type="curve" smooth="yes"/>
      <point x="240" y="1064" type="line" smooth="yes"/>
      <point x="240" y="1100"/>
      <point x="246" y="1119"/>
      <point x="272" y="1119" type="curve" smooth="yes"/>
      <point x="297" y="1119"/>
      <point x="303" y="1100"/>
      <point x="303" y="1064" type="curve" smooth="yes"/>
      <point x="303" y="854" type="line" smooth="yes"/>
      <point x="303" y="817"/>
      <point x="297" y="797"/>
    </contour>
  </outline>
</glyph>
<glyph name="Eth" format="2">
  <advance width="904"/>
  <unicode hex="00D0"/>
  <outline>
    <component base="D"/>
    <contour>
      <point x="468" y="554" type="line"/>
      <point x="468" y="746" type="line"/>
      <point x="2" y="746" type="line"/>
      <point x="2" y="554" type="line"/>
    </contour>
  </outline>
</glyph>
<glyph name="dotaccentcomb" format="2">
  <advance width="496"/>
  <unicode hex="0307"/>
  <anchor x="248" y="1006" name="_top"/>
  <anchor x="248" y="1366" name="top"/>
  <outline>
    <contour>
      <point x="247" y="1063" type="curve" smooth="yes"/>
      <point x="345" y="1063"/>
      <point x="396" y="1120"/>
      <point x="396" y="1215" type="curve" smooth="yes"/>
      <point x="396" y="1222" type="line" smooth="yes"/>
      <point x="396" y="1317"/>
      <point x="345" y="1374"/>
      <point x="247" y="1374" type="curve" smooth="yes"/>
      <point x="150" y="1374"/>
      <point x="100" y="1317"/>
      <point x="100" y="1222" type="curve" smooth="yes"/>
      <point x="100" y="1215" type="line" smooth="yes"/>
      <point x="100" y="1120"/>
      <point x="150" y="1063"/>
    </contour>
  </outline>
</glyph>
<glyph name="cedillacomb" format="2">
  <advance width="544"/>
  <unicode hex="0327"/>
  <anchor x="272" y="0" name="_bottom"/>
  <anchor x="306" y="-351" name="bottom"/>
  <outline>
    <contour>
      <point x="190" y="37" type="line"/>
      <point x="180" y="-134" type="line"/>
      <point x="180" y="-134"/>
      <point x="182" y="-134"/>
      <point x="182" y="-134" type="curve"/>
      <point x="265" y="-140"/>
      <point x="287" y="-149"/>
      <point x="287" y="-171" type="curve" smooth="yes"/>
      <point x="287" y="-175" type="line" smooth="yes"/>
      <point x="287" y="-195"/>
      <point x="267" y="-202"/>
      <point x="221" y="-202" type="curve" smooth="yes"/>
      <point x="193" y="-202"/>
      <point x="160" y="-199"/>
      <point x="134" y="-193" type="curve"/>
      <point x="153" y="-337" type="line"/>
      <point x="188" y="-346"/>
      <point x="226" y="-351"/>
      <point x="278" y="-351" type="curve" smooth="yes"/>
      <point x="403" y="-351"/>
      <point x="478" y="-302"/>
      <point x="478" y="-197" type="curve" smooth="yes"/>
      <point x="478" y="-190" type="line" smooth="yes"/>
      <point x="478" y="-96"/>
      <point x="412" y="-53"/>
      <point x="304" y="-53" type="curve" smooth="yes"/>
      <point x="278" y="-53"/>
      <point x="254" y="-55"/>
      <point x="226" y="-59" type="curve"/>
      <point x="348" y="-120" type="line"/>
      <point x="361" y="37" type="line"/>
    </contour>
  </outline>
</glyph>
<glyph name="combininganusvaraabovesign.mlm" format="2">
  <unicode hex="0D00"/>
  <outline>
    <contour>
      <point x="-718" y="1474" type="line" smooth="yes"/>
      <point x="-718" y="1325"/>
      <point x="-629" y="1245"/>
      <point x="-460" y="1245" type="curve" smooth="yes"/>
      <point x="-291" y="1245"/>
      <point x="-200" y="1325"/>
      <point x="-200" y="1474" type="curve" smooth="yes"/>
      <point x="-200" y="1479" type="line" smooth="yes"/>
      <point x="-200" y="1628"/>
      <point x="-291" y="1708"/>
      <point x="-460" y="1708" type="curve" smooth="yes"/>
      <point x="-629" y="1708"/>
      <point x="-718" y="1628"/>
      <point x="-718" y="1479" type="curve" smooth="yes"/>
    </contour>
    <contour>
      <point x="-410" y="1474" type="line" smooth="yes"/>
      <point x="-410" y="1436"/>
      <point x="-427" y="1415"/>
      <point x="-460" y="1415" type="curve" smooth="yes"/>
      <point x="-493" y="1415"/>
      <point x="-508" y="1436"/>
      <point x="-508" y="1474" type="curve" smooth="yes"/>
      <point x="-508" y="1479" type="line" smooth="yes"/>
      <point x="-508" y="1517"/>
      <point x="-493" y="1538"/>
      <point x="-460" y="1538" type="curve" smooth="yes"/>
      <point x="-427" y="1538"/>
      <point x="-410" y="1517"/>
      <point x="-410" y="1479" type="curve" smooth="yes"/>
    </contour>
  </outline>
</glyph>
<glyph name="Chandrabindu.mlm" format="2">
  <unicode hex="0D01"/>
  <outline>
    <contour>
      <point x="-423" y="1478" type="curve" smooth="yes"/>
      <point x="-577.725" y="1478"/>
      <point x="-612" y="1571.65"/>
      <point x="-612" y="1653" type="curve" smooth="yes"/>
      <point x="-612" y="1693" type="line"/>
      <point x="-817" y="1693" type="line"/>
      <point x="-817" y="1653" type="line" smooth="yes"/>
      <point x="-817" y="1456.44"/>
      <point x="-725.929" y="1292"/>
      <point x="-425" y="1292" type="curve" smooth="yes"/>
      <point x="-122.288" y="1292"/>
      <point x="-28" y="1454.5"/>
      <point x="-28" y="1653" type="curve" smooth="yes"/>
      <point x="-28" y="1693" type="line"/>
      <point x="-233" y="1693" type="line"/>
      <point x="-233" y="1653" type="line" smooth="yes"/>
      <point x="-233" y="1572.59"/>
      <point x="-267.456" y="1478"/>
    </contour>
    <contour>
      <point x="-541" y="1684" type="line" smooth="yes"/>
      <point x="-541" y="1599"/>
      <point x="-500" y="1553"/>
      <point x="-423" y="1553" type="curve" smooth="yes"/>
      <point x="-346" y="1553"/>
      <point x="-304" y="1599"/>
      <point x="-304" y="1684" type="curve" smooth="yes"/>
      <point x="-304" y="1696" type="line" smooth="yes"/>
      <point x="-304" y="1781"/>
      <point x="-346" y="1829"/>
      <point x="-423" y="1829" type="curve" smooth="yes"/>
      <point x="-500" y="1829"/>
      <point x="-541" y="1781"/>
      <point x="-541" y="1696" type="curve" smooth="yes"/>
    </contour>
  </outline>
</glyph>
<glyph name="Anuswara.mlm" format="2">
  <advance width="784"/>
  <unicode hex="0D02"/>
  <outline>
    <contour>
      <point x="449" y="473" type="curve" smooth="yes"/>
      <point x="449" y="328" type="line" smooth="yes"/>
      <point x="449" y="262"/>
      <point x="432" y="230"/>
      <point x="392" y="230" type="curve" smooth="yes"/>
      <point x="352" y="230"/>
      <point x="335" y="262"/>
      <point x="335" y="328" type="curve" smooth="yes"/>
      <point x="335" y="473" type="line" smooth="yes"/>
      <point x="335" y="539"/>
      <point x="352" y="570"/>
      <point x="392" y="570" type="curve" smooth="yes"/>
      <point x="432" y="570"/>
      <point x="449" y="539"/>
    </contour>
    <contour>
      <point x="52" y="467" type="curve" smooth="yes"/>
      <point x="52" y="333" type="line" smooth="yes"/>
      <point x="52" y="97"/>
      <point x="166" y="-26"/>
      <point x="392" y="-26" type="curve" smooth="yes"/>
      <point x="618" y="-26"/>
      <point x="732" y="97"/>
      <point x="732" y="333" type="curve" smooth="yes"/>
      <point x="732" y="467" type="line" smooth="yes"/>
      <point x="732" y="703"/>
      <point x="618" y="826"/>
      <point x="392" y="826" type="curve" smooth="yes"/>
      <point x="166" y="826"/>
      <point x="52" y="703"/>
    </contour>
  </outline>
</glyph>
<glyph name="Visarga.mlm" format="2">
  <advance width="655"/>
  <unicode hex="0D03"/>
  <outline>
    <contour>
      <point x="374" y="291" type="curve" smooth="yes"/>
      <point x="374" y="267" type="line" smooth="yes"/>
      <point x="374" y="214"/>
      <point x="360" y="191"/>
      <point x="327" y="191" type="curve" smooth="yes"/>
      <point x="296" y="191"/>
      <point x="281" y="214"/>
      <point x="281" y="267" type="curve" smooth="yes"/>
      <point x="281" y="291" type="line" smooth="yes"/>
      <point x="281" y="344"/>
      <point x="296" y="368"/>
      <point x="327" y="368" type="curve" smooth="yes"/>
      <point x="360" y="368"/>
      <point x="374" y="344"/>
    </contour>
    <contour>
      <point x="33" y="296" type="curve" smooth="yes"/>
      <point x="33" y="261" type="line" smooth="yes"/>
      <point x="33" y="73"/>
      <point x="133" y="-26"/>
      <point x="328" y="-26" type="curve" smooth="yes"/>
      <point x="523" y="-26"/>
      <point x="622" y="73"/>
      <point x="622" y="261" type="curve" smooth="yes"/>
      <point x="622" y="296" type="line" smooth="yes"/>
      <point x="622" y="482"/>
      <point x="523" y="583"/>
      <point x="328" y="583" type="curve" smooth="yes"/>
      <point x="133" y="583"/>
      <point x="33" y="482"/>
    </contour>
    <contour>
      <point x="374" y="931" type="curve" smooth="yes"/>
      <point x="374" y="913" type="line" smooth="yes"/>
      <point x="374" y="860"/>
      <point x="360" y="837"/>
      <point x="327" y="837" type="curve" smooth="yes"/>
      <point x="296" y="837"/>
      <point x="281" y="860"/>
      <point x="281" y="913" type="curve" smooth="yes"/>
      <point x="281" y="931" type="line" smooth="yes"/>
      <point x="281" y="984"/>
      <point x="296" y="1008"/>
      <point x="327" y="1008" type="curve" smooth="yes"/>
      <point x="360" y="1008"/>
      <point x="374" y="984"/>
    </contour>
    <contour>
      <point x="33" y="937" type="curve" smooth="yes"/>
      <point x="33" y="907" type="line" smooth="yes"/>
      <point x="33" y="719"/>
      <point x="133" y="620"/>
      <point x="328" y="620" type="curve" smooth="yes"/>
      <point x="523" y="620"/>
      <point x="622" y="719"/>
      <point x="622" y="907" type="curve" smooth="yes"/>
      <point x="622" y="937" type="line" smooth="yes"/>
      <point x="622" y="1123"/>
      <point x="523" y="1224"/>
      <point x="328" y="1224" type="curve" smooth="yes"/>
      <point x="133" y="1224"/>
      <point x="33" y="1123"/>
    </contour>
  </outline>
</glyph>
<glyph name="uni0D04" format="2">
  <advance width="1001"/>
  <unicode hex="0D04"/>
  <outline>
    <contour>
      <point x="500" y="1016" type="curve" smooth="yes"/>
      <point x="415" y="1016"/>
      <point x="379" y="958"/>
      <point x="379" y="857" type="curve" smooth="yes"/>
      <point x="379" y="677" type="line" smooth="yes"/>
      <point x="379" y="578"/>
      <point x="415" y="519"/>
      <point x="500" y="519" type="curve" smooth="yes"/>
      <point x="585" y="519"/>
      <point x="622" y="578"/>
      <point x="622" y="677" type="curve" smooth="yes"/>
      <point x="622" y="857" type="line" smooth="yes"/>
      <point x="622" y="958"/>
      <point x="585" y="1016"/>
    </contour>
    <contour>
      <point x="500" y="151" type="curve" smooth="yes"/>
      <point x="802" y="151"/>
      <point x="955" y="312"/>
      <point x="955" y="651" type="curve" smooth="yes"/>
      <point x="955" y="841" type="line"/>
      <point x="714" y="841" type="line"/>
      <point x="714" y="683" type="line" smooth="yes"/>
      <point x="714" y="486"/>
      <point x="649" y="396"/>
      <point x="500" y="396" type="curve" smooth="yes"/>
      <point x="351" y="396"/>
      <point x="287" y="486"/>
      <point x="287" y="683" type="curve" smooth="yes"/>
      <point x="287" y="841" type="line"/>
      <point x="46" y="841" type="line"/>
      <point x="46" y="651" type="line" smooth="yes"/>
      <point x="46" y="312"/>
      <point x="198" y="151"/>
    </contour>
  </outline>
</glyph>
<glyph name="vowelA.mlm" format="2">
  <advance width="2428"/>
  <unicode hex="0D05"/>
  <outline>
    <contour>
      <point x="1296" y="4" type="line"/>
      <point x="1597" y="4" type="line"/>
      <point x="1597" y="778" type="line"/>
      <point x="1296" y="661" type="line"/>
    </contour>
    <contour>
      <point x="1443" y="951" type="line"/>
      <point x="1404" y="1129"/>
      <point x="1291" y="1220"/>
      <point x="1070" y="1220" type="curve" smooth="yes"/>
      <point x="930" y="1220"/>
      <point x="807" y="1161"/>
      <point x="744" y="1075" type="curve"/>
      <point x="936" y="959" type="line"/>
      <point x="973" y="977"/>
      <point x="1021" y="983"/>
      <point x="1061" y="983" type="curve" smooth="yes"/>
      <point x="1228" y="983"/>
      <point x="1296" y="890"/>
      <point x="1296" y="675" type="curve" smooth="yes"/>
      <point x="1296" y="594" type="line"/>
      <point x="1437" y="594" type="line"/>
    </contour>
    <contour>
      <point x="362" y="661" type="line" smooth="yes"/>
      <point x="362" y="876.372"/>
      <point x="438.744" y="983"/>
      <point x="593" y="983" type="curve" smooth="yes"/>
      <point x="643" y="983"/>
      <point x="675" y="971"/>
      <point x="717" y="951" type="curve"/>
      <point x="734" y="947"/>
      <point x="794" y="931"/>
      <point x="807" y="927" type="curve"/>
      <point x="879" y="896"/>
      <point x="903" y="846"/>
      <point x="903" y="771" type="curve" smooth="yes"/>
      <point x="903" y="758" type="line" smooth="yes"/>
      <point x="903" y="712"/>
      <point x="886" y="691"/>
      <point x="846" y="684" type="curve"/>
      <point x="825" y="681" type="line"/>
      <point x="825" y="442" type="line"/>
      <point x="853" y="438" type="line" smooth="yes"/>
      <point x="893" y="433"/>
      <point x="910" y="406"/>
      <point x="910" y="353" type="curve" smooth="yes"/>
      <point x="910" y="339" type="line" smooth="yes"/>
      <point x="910" y="265"/>
      <point x="889" y="230"/>
      <point x="836" y="230" type="curve" smooth="yes"/>
      <point x="781" y="230"/>
      <point x="761" y="265"/>
      <point x="761" y="339" type="curve" smooth="yes"/>
      <point x="761" y="631" type="line" smooth="yes"/>
      <point x="761" y="769"/>
      <point x="776" y="867"/>
      <point x="853" y="922" type="curve"/>
      <point x="644" y="1010" type="line"/>
      <point x="513" y="938"/>
      <point x="475" y="810"/>
      <point x="475" y="626" type="curve" smooth="yes"/>
      <point x="475" y="340" type="line" smooth="yes"/>
      <point x="475" y="101"/>
      <point x="597" y="-26"/>
      <point x="836" y="-26" type="curve" smooth="yes"/>
      <point x="1072" y="-26"/>
      <point x="1199" y="77"/>
      <point x="1199" y="320" type="curve" smooth="yes"/>
      <point x="1199" y="329" type="line" smooth="yes"/>
      <point x="1199" y="469"/>
      <point x="1149" y="544"/>
      <point x="1035" y="561" type="curve"/>
      <point x="1035" y="568" type="line"/>
      <point x="1144" y="588"/>
      <point x="1188" y="651"/>
      <point x="1188" y="756" type="curve" smooth="yes"/>
      <point x="1188" y="773" type="line" smooth="yes"/>
      <point x="1188" y="878"/>
      <point x="1138" y="963"/>
      <point x="978" y="1018" type="curve"/>
      <point x="906" y="1093" type="line"/>
      <point x="861.296" y="1152"/>
      <point x="741.761" y="1222"/>
      <point x="561" y="1222" type="curve" smooth="yes"/>
      <point x="228.444" y="1222"/>
      <point x="62" y="1034.54"/>
      <point x="62" y="660" type="curve" smooth="yes"/>
      <point x="62" y="427" type="line" smooth="yes"/>
      <point x="62" y="258"/>
      <point x="80" y="98"/>
      <point x="126" y="0" type="curve"/>
      <point x="427" y="0" type="line"/>
      <point x="388" y="99"/>
      <point x="362" y="250"/>
      <point x="362" y="421" type="curve" smooth="yes"/>
    </contour>
    <contour>
      <point x="1862" y="1224" type="curve" smooth="yes"/>
      <point x="1621" y="1224"/>
      <point x="1485" y="1131"/>
      <point x="1450" y="951" type="curve"/>
      <point x="1390" y="951" type="line"/>
      <point x="1401" y="594" type="line"/>
      <point x="1597" y="594" type="line"/>
      <point x="1597" y="694" type="line" smooth="yes"/>
      <point x="1597" y="876"/>
      <point x="1675" y="959"/>
      <point x="1842" y="959" type="curve" smooth="yes"/>
      <point x="2019" y="959"/>
      <point x="2092" y="865"/>
      <point x="2092" y="650" type="curve" smooth="yes"/>
      <point x="2092" y="638" type="line"/>
      <point x="2074" y="638" type="line"/>
      <point x="2087" y="569" type="line"/>
      <point x="2087" y="318" type="line" smooth="yes"/>
      <point x="2087" y="255"/>
      <point x="2073" y="230"/>
      <point x="2034" y="230" type="curve" smooth="yes"/>
      <point x="1997" y="230"/>
      <point x="1982" y="255"/>
      <point x="1982" y="318" type="curve" smooth="yes"/>
      <point x="1982" y="495" type="line" smooth="yes"/>
      <point x="1982" y="548"/>
      <point x="1999" y="570"/>
      <point x="2039" y="570" type="curve" smooth="yes"/>
      <point x="2067" y="570"/>
      <point x="2082" y="561"/>
      <point x="2091" y="552" type="curve"/>
      <point x="2085" y="631" type="line"/>
      <point x="2070" y="765"/>
      <point x="2012" y="834"/>
      <point x="1896" y="834" type="curve" smooth="yes"/>
      <point x="1760" y="834"/>
      <point x="1697" y="734"/>
      <point x="1697" y="521" type="curve" smooth="yes"/>
      <point x="1697" y="329" type="line" smooth="yes"/>
      <point x="1697" y="95"/>
      <point x="1807" y="-26"/>
      <point x="2030" y="-26" type="curve" smooth="yes"/>
      <point x="2256" y="-26"/>
      <point x="2370" y="95"/>
      <point x="2370" y="329" type="curve" smooth="yes"/>
      <point x="2370" y="642" type="line" smooth="yes"/>
      <point x="2370" y="1027"/>
      <point x="2212" y="1224"/>
    </contour>
  </outline>
</glyph>
<glyph name="vowelAa.mlm" format="2">
  <advance width="2812"/>
  <unicode hex="0D06"/>
  <outline>
    <contour>
      <point x="2278" y="675" type="line"/>
      <point x="2414" y="664"/>
      <point x="2473" y="584"/>
      <point x="2473" y="372" type="curve" smooth="yes"/>
      <point x="2473" y="311" type="line" smooth="yes"/>
      <point x="2473" y="42"/>
      <point x="2385" y="-86"/>
      <point x="2085" y="-86" type="curve" smooth="yes"/>
      <point x="1975" y="-86"/>
      <point x="1877" y="-72"/>
      <point x="1787" y="-46" type="curve"/>
      <point x="1844" y="-285" type="line"/>
      <point x="1932" y="-309"/>
      <point x="2028" y="-322"/>
      <point x="2124" y="-322" type="curve" smooth="yes"/>
      <point x="2575" y="-322"/>
      <point x="2762" y="-123"/>
      <point x="2762" y="304" type="curve" smooth="yes"/>
      <point x="2762" y="372" type="line" smooth="yes"/>
      <point x="2762" y="692"/>
      <point x="2613" y="878"/>
      <point x="2302" y="898" type="curve"/>
    </contour>
    <contour>
      <point x="1840" y="959" type="curve" smooth="yes"/>
      <point x="1952" y="959"/>
      <point x="2028" y="922"/>
      <point x="2065" y="839" type="curve"/>
      <point x="2085" y="754" type="line"/>
      <point x="2085" y="723"/>
      <point x="2085" y="706"/>
      <point x="2085" y="675" type="curve" smooth="yes"/>
      <point x="2085" y="374" type="line" smooth="yes"/>
      <point x="2085" y="311"/>
      <point x="2071" y="285"/>
      <point x="2032" y="285" type="curve" smooth="yes"/>
      <point x="1995" y="285"/>
      <point x="1980" y="311"/>
      <point x="1980" y="374" type="curve" smooth="yes"/>
      <point x="1980" y="456" type="line" smooth="yes"/>
      <point x="1980" y="579"/>
      <point x="2024" y="653"/>
      <point x="2129" y="653" type="curve" smooth="yes"/>
      <point x="2151" y="653"/>
      <point x="2177" y="653"/>
      <point x="2199" y="653" type="curve"/>
      <point x="2195" y="891" type="line"/>
      <point x="2167" y="891"/>
      <point x="2138" y="891"/>
      <point x="2109" y="891" type="curve" smooth="yes"/>
      <point x="1846" y="891"/>
      <point x="1695" y="729"/>
      <point x="1695" y="451" type="curve" smooth="yes"/>
      <point x="1695" y="385" type="line" smooth="yes"/>
      <point x="1695" y="151"/>
      <point x="1805" y="29"/>
      <point x="2028" y="29" type="curve" smooth="yes"/>
      <point x="2254" y="29"/>
      <point x="2368" y="151"/>
      <point x="2368" y="385" type="curve" smooth="yes"/>
      <point x="2368" y="661" type="line" smooth="yes"/>
      <point x="2368" y="690"/>
      <point x="2368" y="719"/>
      <point x="2368" y="745" type="curve"/>
      <point x="2352" y="845" type="line"/>
      <point x="2302" y="1095"/>
      <point x="2140" y="1224"/>
      <point x="1860" y="1224" type="curve" smooth="yes"/>
      <point x="1621" y="1224"/>
      <point x="1485" y="1131"/>
      <point x="1450" y="951" type="curve"/>
      <point x="1389" y="951" type="line"/>
      <point x="1400" y="594" type="line"/>
      <point x="1597" y="594" type="line"/>
      <point x="1597" y="694" type="line" smooth="yes"/>
      <point x="1597" y="876"/>
      <point x="1674" y="959"/>
    </contour>
    <contour>
      <point x="1296" y="4" type="line"/>
      <point x="1597" y="4" type="line"/>
      <point x="1597" y="778" type="line"/>
      <point x="1296" y="661" type="line"/>
    </contour>
    <contour>
      <point x="1443" y="951" type="line"/>
      <point x="1404" y="1129"/>
      <point x="1291" y="1220"/>
      <point x="1070" y="1220" type="curve" smooth="yes"/>
      <point x="930" y="1220"/>
      <point x="807" y="1161"/>
      <point x="744" y="1075" type="curve"/>
      <point x="936" y="959" type="line"/>
      <point x="973" y="977"/>
      <point x="1021" y="983"/>
      <point x="1061" y="983" type="curve" smooth="yes"/>
      <point x="1228" y="983"/>
      <point x="1296" y="890"/>
      <point x="1296" y="675" type="curve" smooth="yes"/>
      <point x="1296" y="594" type="line"/>
      <point x="1437" y="594" type="line"/>
    </contour>
    <contour>
      <point x="362" y="661" type="line" smooth="yes"/>
      <point x="362" y="876.372"/>
      <point x="438.744" y="983"/>
      <point x="593" y="983" type="curve" smooth="yes"/>
      <point x="643" y="983"/>
      <point x="675" y="971"/>
      <point x="717" y="951" type="curve"/>
      <point x="734" y="947"/>
      <point x="794" y="931"/>
      <point x="807" y="927" type="curve"/>
      <point x="879" y="896"/>
      <point x="903" y="846"/>
      <point x="903" y="771" type="curve" smooth="yes"/>
      <point x="903" y="758" type="line" smooth="yes"/>
      <point x="903" y="712"/>
      <point x="886" y="691"/>
      <point x="846" y="684" type="curve"/>
      <point x="825" y="681" type="line"/>
      <point x="825" y="442" type="line"/>
      <point x="853" y="438" type="line" smooth="yes"/>
      <point x="893" y="433"/>
      <point x="910" y="406"/>
      <point x="910" y="353" type="curve" smooth="yes"/>
      <point x="910" y="339" type="line" smooth="yes"/>
      <point x="910" y="265"/>
      <point x="889" y="230"/>
      <point x="836" y="230" type="curve" smooth="yes"/>
      <point x="781" y="230"/>
      <point x="761" y="265"/>
      <point x="761" y="339" type="curve" smooth="yes"/>
      <point x="761" y="631" type="line" smooth="yes"/>
      <point x="761" y="769"/>
      <point x="776" y="867"/>
      <point x="853" y="922" type="curve"/>
      <point x="644" y="1010" type="line"/>
      <point x="513" y="938"/>
      <point x="475" y="810"/>
      <point x="475" y="626" type="curve" smooth="yes"/>
      <point x="475" y="340" type="line" smooth="yes"/>
      <point x="475" y="101"/>
      <point x="597" y="-26"/>
      <point x="836" y="-26" type="curve" smooth="yes"/>
      <point x="1072" y="-26"/>
      <point x="1199" y="77"/>
      <point x="1199" y="320" type="curve" smooth="yes"/>
      <point x="1199" y="329" type="line" smooth="yes"/>
      <point x="1199" y="469"/>
      <point x="1149" y="544"/>
      <point x="1035" y="561" type="curve"/>
      <point x="1035" y="568" type="line"/>
      <point x="1144" y="588"/>
      <point x="1188" y="651"/>
      <point x="1188" y="756" type="curve" smooth="yes"/>
      <point x="1188" y="773" type="line" smooth="yes"/>
      <point x="1188" y="878"/>
      <point x="1138" y="963"/>
      <point x="978" y="1018" type="curve"/>
      <point x="906" y="1093" type="line"/>
      <point x="861.296" y="1152"/>
      <point x="741.761" y="1222"/>
      <point x="561" y="1222" type="curve" smooth="yes"/>
      <point x="228.444" y="1222"/>
      <point x="62" y="1034.54"/>
      <point x="62" y="660" type="curve" smooth="yes"/>
      <point x="62" y="427" type="line" smooth="yes"/>
      <point x="62" y="258"/>
      <point x="80" y="98"/>
      <point x="126" y="0" type="curve"/>
      <point x="427" y="0" type="line"/>
      <point x="388" y="99"/>
      <point x="362" y="250"/>
      <point x="362" y="421" type="curve" smooth="yes"/>
    </contour>
  </outline>
</glyph>
<glyph name="vowelI.mlm" format="2">
  <advance width="1579"/>
  <unicode hex="0D07"/>
  <outline>
    <contour>
      <point x="532" y="1224" type="curve" smooth="yes"/>
      <point x="214" y="1224"/>
      <point x="58" y="1050"/>
      <point x="58" y="708" type="curve" smooth="yes"/>
      <point x="58" y="511" type="line" smooth="yes"/>
      <point x="58" y="303"/>
      <point x="166" y="195"/>
      <point x="379" y="195" type="curve" smooth="yes"/>
      <point x="592" y="195"/>
      <point x="696" y="303"/>
      <point x="696" y="511" type="curve" smooth="yes"/>
      <point x="696" y="613" type="line" smooth="yes"/>
      <point x="696" y="801"/>
      <point x="635" y="880"/>
      <point x="514" y="880" type="curve" smooth="yes"/>
      <point x="398" y="880"/>
      <point x="345" y="823"/>
      <point x="327" y="690" type="curve"/>
      <point x="323" y="594" type="line"/>
      <point x="332" y="625"/>
      <point x="352" y="642"/>
      <point x="380" y="642" type="curve" smooth="yes"/>
      <point x="413" y="642"/>
      <point x="428" y="622"/>
      <point x="428" y="574" type="curve" smooth="yes"/>
      <point x="428" y="488" type="line" smooth="yes"/>
      <point x="428" y="435"/>
      <point x="413" y="414"/>
      <point x="377" y="414" type="curve" smooth="yes"/>
      <point x="342" y="414"/>
      <point x="327" y="435"/>
      <point x="327" y="488" type="curve" smooth="yes"/>
      <point x="327" y="644" type="line"/>
      <point x="333" y="710" type="line"/>
      <point x="321" y="710" type="line"/>
      <point x="321" y="712" type="line"/>
      <point x="321" y="887"/>
      <point x="391" y="964"/>
      <point x="553" y="964" type="curve" smooth="yes"/>
      <point x="700" y="964"/>
      <point x="771" y="896"/>
      <point x="773" y="754" type="curve" smooth="yes"/>
      <point x="779" y="337" type="line"/>
      <point x="1058" y="337" type="line"/>
      <point x="1067" y="837" type="line" smooth="yes"/>
      <point x="1068" y="916"/>
      <point x="1090" y="951"/>
      <point x="1142" y="951" type="curve" smooth="yes"/>
      <point x="1194" y="951"/>
      <point x="1215" y="916"/>
      <point x="1215" y="835" type="curve" smooth="yes"/>
      <point x="1215" y="456" type="line" smooth="yes"/>
      <point x="1215" y="292"/>
      <point x="1160" y="224"/>
      <point x="1044" y="224" type="curve" smooth="yes"/>
      <point x="365" y="224" type="line" smooth="yes"/>
      <point x="157" y="224"/>
      <point x="52" y="136"/>
      <point x="52" y="-44" type="curve" smooth="yes"/>
      <point x="52" y="-228"/>
      <point x="157" y="-320"/>
      <point x="365" y="-320" type="curve" smooth="yes"/>
      <point x="1473" y="-320" type="line"/>
      <point x="1504" y="-88" type="line"/>
      <point x="406" y="-88" type="line" smooth="yes"/>
      <point x="369" y="-88"/>
      <point x="350" y="-75"/>
      <point x="350" y="-44" type="curve" smooth="yes"/>
      <point x="350" y="-13"/>
      <point x="369" y="0"/>
      <point x="406" y="0" type="curve" smooth="yes"/>
      <point x="1129" y="0" type="line" smooth="yes"/>
      <point x="1392" y="0"/>
      <point x="1513" y="149"/>
      <point x="1513" y="460" type="curve" smooth="yes"/>
      <point x="1513" y="834" type="line" smooth="yes"/>
      <point x="1513" y="1095"/>
      <point x="1407" y="1224"/>
      <point x="1195" y="1224" type="curve" smooth="yes"/>
      <point x="1020" y="1224"/>
      <point x="933" y="1139"/>
      <point x="913" y="973" type="curve"/>
      <point x="906" y="973" type="line"/>
      <point x="872" y="1131"/>
      <point x="741" y="1224"/>
    </contour>
  </outline>
</glyph>
<glyph name="vowelshortE.mlm" format="2">
  <advance width="2129"/>
  <unicode hex="0D0E"/>
  <outline>
    <contour>
      <point x="414" y="826" type="curve" smooth="yes"/>
      <point x="169" y="826"/>
      <point x="52" y="694"/>
      <point x="52" y="442" type="curve" smooth="yes"/>
      <point x="52" y="307" type="line" smooth="yes"/>
      <point x="52" y="186"/>
      <point x="63" y="79"/>
      <point x="85" y="0" type="curve"/>
      <point x="366" y="0" type="line"/>
      <point x="351" y="74"/>
      <point x="339" y="179"/>
      <point x="339" y="302" type="curve" smooth="yes"/>
      <point x="339" y="445" type="line" smooth="yes"/>
      <point x="339" y="528"/>
      <point x="360" y="567"/>
      <point x="412" y="567" type="curve" smooth="yes"/>
      <point x="464" y="567"/>
      <point x="486" y="528"/>
      <point x="486" y="445" type="curve" smooth="yes"/>
      <point x="486" y="302" type="line" smooth="yes"/>
      <point x="486" y="186"/>
      <point x="471" y="85"/>
      <point x="449" y="13" type="curve"/>
      <point x="449" y="0" type="line"/>
      <point x="629" y="0" type="line"/>
      <point x="728" y="98"/>
      <point x="776" y="230"/>
      <point x="776" y="381" type="curve" smooth="yes"/>
      <point x="776" y="442" type="line" smooth="yes"/>
      <point x="776" y="694"/>
      <point x="659" y="826"/>
    </contour>
    <contour>
      <point x="699" y="230" type="line"/>
      <point x="449" y="0" type="line"/>
      <point x="1054" y="0" type="line"/>
      <point x="1108" y="9" type="line"/>
      <point x="1391" y="9" type="line"/>
      <point x="1391" y="230" type="line"/>
    </contour>
    <contour>
      <point x="1484" y="1224" type="curve" smooth="yes"/>
      <point x="1094" y="1224"/>
      <point x="902" y="1010"/>
      <point x="902" y="598" type="curve" smooth="yes"/>
      <point x="902" y="-2" type="line" smooth="yes"/>
      <point x="902" y="-249"/>
      <point x="1024" y="-372"/>
      <point x="1262" y="-372" type="curve" smooth="yes"/>
      <point x="1502" y="-372"/>
      <point x="1625" y="-244"/>
      <point x="1625" y="6" type="curve" smooth="yes"/>
      <point x="1625" y="870" type="line"/>
      <point x="1354" y="870" type="line"/>
      <point x="1334" y="184" type="line"/>
      <point x="1338" y="96" type="line"/>
      <point x="1338" y="-35" type="line" smooth="yes"/>
      <point x="1338" y="-114"/>
      <point x="1314" y="-149"/>
      <point x="1264" y="-149" type="curve" smooth="yes"/>
      <point x="1214" y="-149"/>
      <point x="1189" y="-114"/>
      <point x="1189" y="-35" type="curve" smooth="yes"/>
      <point x="1189" y="28" type="line"/>
      <point x="1198" y="79" type="line"/>
      <point x="1198" y="99"/>
      <point x="1198" y="133"/>
      <point x="1198" y="153" type="curve" smooth="yes"/>
      <point x="1198" y="598" type="line" smooth="yes"/>
      <point x="1198" y="848"/>
      <point x="1285" y="959"/>
      <point x="1484" y="959" type="curve" smooth="yes"/>
      <point x="1684" y="959"/>
      <point x="1770" y="848"/>
      <point x="1770" y="598" type="curve" smooth="yes"/>
      <point x="1770" y="177" type="line" smooth="yes"/>
      <point x="1770" y="-22"/>
      <point x="1732" y="-195"/>
      <point x="1677" y="-311" type="curve"/>
      <point x="1971" y="-311" type="line"/>
      <point x="2040" y="-197"/>
      <point x="2067" y="-15"/>
      <point x="2067" y="182" type="curve" smooth="yes"/>
      <point x="2067" y="598" type="line" smooth="yes"/>
      <point x="2067" y="1010"/>
      <point x="1874" y="1224"/>
    </contour>
  </outline>
</glyph>
<glyph name="vowelE.mlm" format="2">
  <advance width="2144"/>
  <unicode hex="0D0F"/>
  <outline>
    <contour>
      <point x="414" y="826" type="curve" smooth="yes"/>
      <point x="169" y="826"/>
      <point x="52" y="694"/>
      <point x="52" y="442" type="curve" smooth="yes"/>
      <point x="52" y="307" type="line" smooth="yes"/>
      <point x="52" y="186"/>
      <point x="63" y="79"/>
      <point x="85" y="0" type="curve"/>
      <point x="366" y="0" type="line"/>
      <point x="351" y="74"/>
      <point x="339" y="179"/>
      <point x="339" y="302" type="curve" smooth="yes"/>
      <point x="339" y="445" type="line" smooth="yes"/>
      <point x="339" y="528"/>
      <point x="360" y="567"/>
      <point x="412" y="567" type="curve" smooth="yes"/>
      <point x="464" y="567"/>
      <point x="486" y="528"/>
      <point x="486" y="445" type="curve" smooth="yes"/>
      <point x="486" y="302" type="line" smooth="yes"/>
      <point x="486" y="186"/>
      <point x="471" y="85"/>
      <point x="449" y="13" type="curve"/>
      <point x="449" y="0" type="line"/>
      <point x="629" y="0" type="line"/>
      <point x="728" y="98"/>
      <point x="776" y="230"/>
      <point x="776" y="381" type="curve" smooth="yes"/>
      <point x="776" y="442" type="line" smooth="yes"/>
      <point x="776" y="694"/>
      <point x="659" y="826"/>
    </contour>
    <contour>
      <point x="1512" y="1224" type="curve" smooth="yes"/>
      <point x="1111" y="1224"/>
      <point x="902" y="1010"/>
      <point x="902" y="598" type="curve" smooth="yes"/>
      <point x="902" y="-2" type="line" smooth="yes"/>
      <point x="902" y="-249"/>
      <point x="1025" y="-372"/>
      <point x="1262" y="-372" type="curve" smooth="yes"/>
      <point x="1503" y="-372"/>
      <point x="1625" y="-244"/>
      <point x="1625" y="6" type="curve" smooth="yes"/>
      <point x="1625" y="870" type="line"/>
      <point x="1354" y="870" type="line"/>
      <point x="1334" y="184" type="line"/>
      <point x="1338" y="96" type="line"/>
      <point x="1338" y="-35" type="line" smooth="yes"/>
      <point x="1338" y="-114"/>
      <point x="1314" y="-149"/>
      <point x="1264" y="-149" type="curve" smooth="yes"/>
      <point x="1214" y="-149"/>
      <point x="1189" y="-114"/>
      <point x="1189" y="-35" type="curve" smooth="yes"/>
      <point x="1189" y="28" type="line"/>
      <point x="1198" y="79" type="line"/>
      <point x="1198" y="99"/>
      <point x="1198" y="133"/>
      <point x="1198" y="153" type="curve" smooth="yes"/>
      <point x="1198" y="598" type="line" smooth="yes"/>
      <point x="1198" y="848"/>
      <point x="1294" y="959"/>
      <point x="1512" y="959" type="curve" smooth="yes"/>
      <point x="1714" y="959"/>
      <point x="1802" y="873"/>
      <point x="1802" y="657" type="curve" smooth="yes"/>
      <point x="1802" y="622" type="line" smooth="yes"/>
      <point x="1802" y="517"/>
      <point x="1781" y="466"/>
      <point x="1706" y="457" type="curve" smooth="yes"/>
      <point x="1680" y="454" type="line"/>
      <point x="1680" y="209" type="line"/>
      <point x="1721" y="203" type="line" smooth="yes"/>
      <point x="1785" y="194"/>
      <point x="1815" y="151"/>
      <point x="1815" y="52" type="curve" smooth="yes"/>
      <point x="1815" y="44" type="line" smooth="yes"/>
      <point x="1815" y="-65"/>
      <point x="1784" y="-116"/>
      <point x="1710" y="-116" type="curve" smooth="yes"/>
      <point x="1694" y="-116"/>
      <point x="1676" y="-114"/>
      <point x="1658" y="-110" type="curve"/>
      <point x="1688" y="-342" type="line"/>
      <point x="1726" y="-351"/>
      <point x="1767" y="-355"/>
      <point x="1805" y="-355" type="curve" smooth="yes"/>
      <point x="2013" y="-355"/>
      <point x="2116" y="-233"/>
      <point x="2116" y="6" type="curve" smooth="yes"/>
      <point x="2116" y="15" type="line" smooth="yes"/>
      <point x="2116" y="206"/>
      <point x="2055" y="311"/>
      <point x="1910" y="331" type="curve"/>
      <point x="1910" y="338" type="line"/>
      <point x="2046" y="367"/>
      <point x="2102" y="462"/>
      <point x="2102" y="633" type="curve" smooth="yes"/>
      <point x="2102" y="669" type="line" smooth="yes"/>
      <point x="2102" y="1024"/>
      <point x="1900" y="1224"/>
    </contour>
    <contour>
      <point x="699" y="230" type="line"/>
      <point x="449" y="0" type="line"/>
      <point x="1049" y="0" type="line"/>
      <point x="1102" y="9" type="line"/>
      <point x="1378" y="9" type="line"/>
      <point x="1378" y="230" type="line"/>
    </contour>
  </outline>
</glyph>
<glyph name="vowelshortO.mlm" format="2">
  <advance width="1255"/>
  <unicode hex="0D12"/>
  <outline>
    <contour>
      <point x="928" y="-20" type="curve" smooth="yes"/>
      <point x="1119" y="-20"/>
      <point x="1215" y="81"/>
      <point x="1215" y="274" type="curve" smooth="yes"/>
      <point x="1215" y="289" type="line" smooth="yes"/>
      <point x="1215" y="454"/>
      <point x="1151" y="541"/>
      <point x="1005" y="561" type="curve"/>
      <point x="1005" y="568" type="line"/>
      <point x="1136" y="596"/>
      <point x="1193" y="681"/>
      <point x="1193" y="821" type="curve" smooth="yes"/>
      <point x="1193" y="830" type="line" smooth="yes"/>
      <point x="1193" y="1088"/>
      <point x="998" y="1224"/>
      <point x="661" y="1224" type="curve" smooth="yes"/>
      <point x="254" y="1224"/>
      <point x="59" y="1026"/>
      <point x="59" y="640" type="curve" smooth="yes"/>
      <point x="59" y="328" type="line" smooth="yes"/>
      <point x="59" y="96"/>
      <point x="174" y="-26"/>
      <point x="398" y="-26" type="curve" smooth="yes"/>
      <point x="622" y="-26"/>
      <point x="733" y="96"/>
      <point x="733" y="328" type="curve" smooth="yes"/>
      <point x="733" y="524" type="line" smooth="yes"/>
      <point x="733" y="725"/>
      <point x="670" y="819"/>
      <point x="538" y="819" type="curve" smooth="yes"/>
      <point x="418" y="819"/>
      <point x="358" y="742"/>
      <point x="343" y="587" type="curve"/>
      <point x="339" y="506" type="line"/>
      <point x="348" y="537"/>
      <point x="367" y="556"/>
      <point x="398" y="556" type="curve" smooth="yes"/>
      <point x="433" y="556"/>
      <point x="448" y="532"/>
      <point x="448" y="480" type="curve" smooth="yes"/>
      <point x="448" y="316" type="line" smooth="yes"/>
      <point x="448" y="255"/>
      <point x="431" y="230"/>
      <point x="394" y="230" type="curve" smooth="yes"/>
      <point x="357" y="230"/>
      <point x="343" y="255"/>
      <point x="343" y="316" type="curve" smooth="yes"/>
      <point x="343" y="523" type="line"/>
      <point x="354" y="613" type="line"/>
      <point x="337" y="613" type="line"/>
      <point x="337" y="633" type="line" smooth="yes"/>
      <point x="337" y="859"/>
      <point x="435" y="959"/>
      <point x="656" y="959" type="curve" smooth="yes"/>
      <point x="818" y="959"/>
      <point x="895" y="905"/>
      <point x="895" y="793" type="curve" smooth="yes"/>
      <point x="895" y="776" type="line" smooth="yes"/>
      <point x="895" y="719"/>
      <point x="868" y="693"/>
      <point x="816" y="686" type="curve" smooth="yes"/>
      <point x="786" y="682" type="line"/>
      <point x="786" y="440" type="line"/>
      <point x="825" y="436" type="line" smooth="yes"/>
      <point x="886" y="430"/>
      <point x="915" y="399"/>
      <point x="915" y="335" type="curve" smooth="yes"/>
      <point x="915" y="324" type="line" smooth="yes"/>
      <point x="915" y="257"/>
      <point x="888" y="224"/>
      <point x="823" y="224" type="curve" smooth="yes"/>
      <point x="801" y="224"/>
      <point x="786" y="226"/>
      <point x="768" y="230" type="curve"/>
      <point x="799" y="-7" type="line"/>
      <point x="842" y="-16"/>
      <point x="883" y="-20"/>
    </contour>
  </outline>
</glyph>
<glyph name="Ka.mlm" format="2">
  <advance width="1662"/>
  <unicode hex="0D15"/>
  <outline>
    <contour>
      <point x="835" y="237" type="curve" smooth="yes"/>
      <point x="783" y="237"/>
      <point x="762" y="276"/>
      <point x="762" y="362" type="curve" smooth="yes"/>
      <point x="762" y="841" type="line" smooth="yes"/>
      <point x="762" y="927"/>
      <point x="783" y="964"/>
      <point x="835" y="964" type="curve" smooth="yes"/>
      <point x="888" y="964"/>
      <point x="909" y="927"/>
      <point x="909" y="841" type="curve" smooth="yes"/>
      <point x="909" y="362" type="line" smooth="yes"/>
      <point x="909" y="276"/>
      <point x="888" y="237"/>
    </contour>
    <contour>
      <point x="835" y="1227" type="curve" smooth="yes"/>
      <point x="596" y="1227"/>
      <point x="471" y="1093"/>
      <point x="471" y="835" type="curve" smooth="yes"/>
      <point x="471" y="368" type="line" smooth="yes"/>
      <point x="471" y="313"/>
      <point x="477" y="265"/>
      <point x="488" y="221" type="curve"/>
      <point x="519" y="162" type="line"/>
      <point x="561" y="37"/>
      <point x="675" y="-26"/>
      <point x="835" y="-26" type="curve" smooth="yes"/>
      <point x="1076" y="-26"/>
      <point x="1200" y="109"/>
      <point x="1200" y="368" type="curve" smooth="yes"/>
      <point x="1200" y="835" type="line" smooth="yes"/>
      <point x="1200" y="1093"/>
      <point x="1076" y="1227"/>
    </contour>
    <contour>
      <point x="1312" y="438" type="curve" smooth="yes"/>
      <point x="1312" y="335" type="line" smooth="yes"/>
      <point x="1312" y="199"/>
      <point x="1286" y="79"/>
      <point x="1249" y="0" type="curve"/>
      <point x="1547" y="0" type="line"/>
      <point x="1591" y="77"/>
      <point x="1608" y="206"/>
      <point x="1608" y="340" type="curve" smooth="yes"/>
      <point x="1608" y="440" type="line" smooth="yes"/>
      <point x="1608" y="672"/>
      <point x="1492" y="799"/>
      <point x="1266" y="799" type="curve" smooth="yes"/>
      <point x="1100" y="799" type="line"/>
      <point x="1005" y="795" type="line"/>
      <point x="659" y="795" type="line"/>
      <point x="552" y="799" type="line"/>
      <point x="394" y="799" type="line" smooth="yes"/>
      <point x="168" y="799"/>
      <point x="52" y="668"/>
      <point x="52" y="431" type="curve" smooth="yes"/>
      <point x="52" y="316" type="line" smooth="yes"/>
      <point x="52" y="90"/>
      <point x="140" y="-26"/>
      <point x="307" y="-26" type="curve" smooth="yes"/>
      <point x="436" y="-26"/>
      <point x="493" y="48"/>
      <point x="513" y="160" type="curve"/>
      <point x="530" y="162" type="line"/>
      <point x="477" y="282" type="line"/>
      <point x="468" y="247"/>
      <point x="449" y="224"/>
      <point x="414" y="224" type="curve" smooth="yes"/>
      <point x="370" y="224"/>
      <point x="348" y="256"/>
      <point x="348" y="326" type="curve" smooth="yes"/>
      <point x="348" y="438" type="line" smooth="yes"/>
      <point x="348" y="519"/>
      <point x="376" y="556"/>
      <point x="429" y="556" type="curve" smooth="yes"/>
      <point x="578" y="556" type="line"/>
      <point x="637" y="552" type="line"/>
      <point x="1006" y="552" type="line"/>
      <point x="1093" y="556" type="line"/>
      <point x="1231" y="556" type="line" smooth="yes"/>
      <point x="1286" y="556"/>
      <point x="1312" y="519"/>
    </contour>
  </outline>
</glyph>
<glyph name="Kha.mlm" format="2">
  <advance width="1645"/>
  <unicode hex="0D16"/>
  <outline>
    <contour>
      <point x="1269" y="1189" type="line"/>
      <point x="1269" y="0" type="line"/>
      <point x="1571" y="0" type="line"/>
      <point x="1571" y="1189" type="line"/>
    </contour>
    <contour>
      <point x="1027" y="239" type="line"/>
      <point x="784" y="0" type="line"/>
      <point x="1528" y="0" type="line"/>
      <point x="1528" y="239" type="line"/>
    </contour>
    <contour>
      <point x="602" y="1224" type="curve" smooth="yes"/>
      <point x="236" y="1224"/>
      <point x="59" y="1025"/>
      <point x="59" y="640" type="curve" smooth="yes"/>
      <point x="59" y="329" type="line" smooth="yes"/>
      <point x="59" y="95"/>
      <point x="173" y="-26"/>
      <point x="397" y="-26" type="curve" smooth="yes"/>
      <point x="621" y="-26"/>
      <point x="732" y="95"/>
      <point x="732" y="329" type="curve" smooth="yes"/>
      <point x="732" y="524" type="line" smooth="yes"/>
      <point x="732" y="725"/>
      <point x="669" y="819"/>
      <point x="537" y="819" type="curve" smooth="yes"/>
      <point x="417" y="819"/>
      <point x="357" y="742"/>
      <point x="342" y="587" type="curve"/>
      <point x="339" y="506" type="line"/>
      <point x="348" y="537"/>
      <point x="366" y="556"/>
      <point x="397" y="556" type="curve" smooth="yes"/>
      <point x="432" y="556"/>
      <point x="447" y="532"/>
      <point x="447" y="480" type="curve" smooth="yes"/>
      <point x="447" y="318" type="line" smooth="yes"/>
      <point x="447" y="255"/>
      <point x="433" y="230"/>
      <point x="396" y="230" type="curve" smooth="yes"/>
      <point x="359" y="230"/>
      <point x="342" y="255"/>
      <point x="342" y="318" type="curve" smooth="yes"/>
      <point x="342" y="523" type="line"/>
      <point x="353" y="613" type="line"/>
      <point x="337" y="613" type="line"/>
      <point x="337" y="633" type="line" smooth="yes"/>
      <point x="337" y="859"/>
      <point x="414" y="959"/>
      <point x="591" y="959" type="curve" smooth="yes"/>
      <point x="768" y="959"/>
      <point x="845" y="861"/>
      <point x="845" y="640" type="curve" smooth="yes"/>
      <point x="845" y="421" type="line" smooth="yes"/>
      <point x="845" y="265"/>
      <point x="823" y="118"/>
      <point x="784" y="13" type="curve"/>
      <point x="784" y="0" type="line"/>
      <point x="1029" y="0" type="line"/>
      <point x="1095" y="103"/>
      <point x="1145" y="273"/>
      <point x="1145" y="451" type="curve" smooth="yes"/>
      <point x="1145" y="640" type="line" smooth="yes"/>
      <point x="1145" y="1025"/>
      <point x="966" y="1224"/>
    </contour>
  </outline>
</glyph>
<glyph name="Ga.mlm" format="2">
  <advance width="1314"/>
  <unicode hex="0D17"/>
  <outline>
    <contour>
      <point x="870" y="1224" type="curve" smooth="yes"/>
      <point x="618" y="1224"/>
      <point x="495" y="1093"/>
      <point x="495" y="826" type="curve" smooth="yes"/>
      <point x="495" y="662"/>
      <point x="513" y="528"/>
      <point x="513" y="366" type="curve" smooth="yes"/>
      <point x="513" y="281"/>
      <point x="493" y="248"/>
      <point x="440" y="248" type="curve" smooth="yes"/>
      <point x="387" y="248"/>
      <point x="366" y="281"/>
      <point x="366" y="366" type="curve" smooth="yes"/>
      <point x="366" y="765" type="line" smooth="yes"/>
      <point x="366" y="936"/>
      <point x="388" y="1088"/>
      <point x="423" y="1187" type="curve"/>
      <point x="129" y="1187" type="line"/>
      <point x="81" y="1077"/>
      <point x="64" y="929"/>
      <point x="64" y="760" type="curve" smooth="yes"/>
      <point x="64" y="370" type="line" smooth="yes"/>
      <point x="64" y="103"/>
      <point x="188" y="-28"/>
      <point x="440" y="-28" type="curve" smooth="yes"/>
      <point x="692" y="-28"/>
      <point x="815" y="103"/>
      <point x="815" y="370" type="curve" smooth="yes"/>
      <point x="815" y="534"/>
      <point x="797" y="668"/>
      <point x="797" y="830" type="curve" smooth="yes"/>
      <point x="797" y="915"/>
      <point x="819" y="948"/>
      <point x="872" y="948" type="curve" smooth="yes"/>
      <point x="925" y="948"/>
      <point x="948" y="915"/>
      <point x="948" y="830" type="curve" smooth="yes"/>
      <point x="948" y="421" type="line" smooth="yes"/>
      <point x="948" y="250"/>
      <point x="926" y="99"/>
      <point x="891" y="0" type="curve"/>
      <point x="1190" y="0" type="line"/>
      <point x="1234" y="98"/>
      <point x="1250" y="258"/>
      <point x="1250" y="427" type="curve" smooth="yes"/>
      <point x="1250" y="826" type="line" smooth="yes"/>
      <point x="1250" y="1093"/>
      <point x="1124" y="1224"/>
    </contour>
  </outline>
</glyph>
<glyph name="Gha.mlm" format="2">
  <advance width="2062"/>
  <unicode hex="0D18"/>
  <outline>
    <contour>
      <point x="689" y="592" type="line"/>
      <point x="435" y="357" type="line"/>
      <point x="1022" y="357" type="line"/>
      <point x="1022" y="592" type="line"/>
    </contour>
    <contour>
      <point x="402" y="1113" type="curve" smooth="yes"/>
      <point x="168" y="1113"/>
      <point x="48" y="984"/>
      <point x="48" y="736" type="curve" smooth="yes"/>
      <point x="48" y="664" type="line" smooth="yes"/>
      <point x="48" y="543"/>
      <point x="58" y="436"/>
      <point x="78" y="357" type="curve"/>
      <point x="356" y="357" type="line"/>
      <point x="345" y="431"/>
      <point x="334" y="536"/>
      <point x="334" y="659" type="curve" smooth="yes"/>
      <point x="334" y="742" type="line" smooth="yes"/>
      <point x="334" y="821"/>
      <point x="354" y="856"/>
      <point x="400" y="856" type="curve" smooth="yes"/>
      <point x="446" y="856"/>
      <point x="466" y="821"/>
      <point x="466" y="742" type="curve" smooth="yes"/>
      <point x="466" y="659" type="line" smooth="yes"/>
      <point x="466" y="543"/>
      <point x="453" y="442"/>
      <point x="435" y="370" type="curve"/>
      <point x="435" y="357" type="line"/>
      <point x="628" y="376" type="line"/>
      <point x="713" y="464"/>
      <point x="755" y="591"/>
      <point x="755" y="727" type="curve" smooth="yes"/>
      <point x="755" y="736" type="line" smooth="yes"/>
      <point x="755" y="984"/>
      <point x="636" y="1113"/>
    </contour>
    <contour>
      <point x="1279" y="592" type="line"/>
      <point x="1143" y="592" type="line"/>
      <point x="1143" y="859" type="line" smooth="yes"/>
      <point x="1143" y="933"/>
      <point x="1163" y="966"/>
      <point x="1211" y="966" type="curve" smooth="yes"/>
      <point x="1259" y="966"/>
      <point x="1279" y="933"/>
      <point x="1279" y="859" type="curve" smooth="yes"/>
    </contour>
    <contour>
      <point x="1208" y="1224" type="curve" smooth="yes"/>
      <point x="969" y="1224"/>
      <point x="849" y="1093"/>
      <point x="849" y="845" type="curve" smooth="yes"/>
      <point x="849" y="0" type="line"/>
      <point x="1988" y="0" type="line"/>
      <point x="1988" y="1189" type="line"/>
      <point x="1686" y="1189" type="line"/>
      <point x="1686" y="241" type="line"/>
      <point x="1143" y="241" type="line"/>
      <point x="1143" y="357" type="line"/>
      <point x="1566" y="357" type="line"/>
      <point x="1566" y="845" type="line" smooth="yes"/>
      <point x="1566" y="1093"/>
      <point x="1447" y="1224"/>
    </contour>
  </outline>
</glyph>
<glyph name="Nya.mlm" format="2">
  <advance width="2429"/>
  <unicode hex="0D1E"/>
  <outline>
    <contour>
      <point x="570" y="1224" type="curve" smooth="yes"/>
      <point x="226" y="1224"/>
      <point x="59" y="1027"/>
      <point x="59" y="648" type="curve" smooth="yes"/>
      <point x="59" y="329" type="line" smooth="yes"/>
      <point x="59" y="95"/>
      <point x="173" y="-26"/>
      <point x="397" y="-26" type="curve" smooth="yes"/>
      <point x="621" y="-26"/>
      <point x="732" y="95"/>
      <point x="732" y="329" type="curve" smooth="yes"/>
      <point x="732" y="524" type="line" smooth="yes"/>
      <point x="732" y="725"/>
      <point x="669" y="819"/>
      <point x="537" y="819" type="curve" smooth="yes"/>
      <point x="417" y="819"/>
      <point x="357" y="742"/>
      <point x="342" y="587" type="curve"/>
      <point x="339" y="506" type="line"/>
      <point x="348" y="537"/>
      <point x="366" y="556"/>
      <point x="397" y="556" type="curve" smooth="yes"/>
      <point x="432" y="556"/>
      <point x="447" y="532"/>
      <point x="447" y="480" type="curve" smooth="yes"/>
      <point x="447" y="318" type="line" smooth="yes"/>
      <point x="447" y="255"/>
      <point x="433" y="230"/>
      <point x="396" y="230" type="curve" smooth="yes"/>
      <point x="359" y="230"/>
      <point x="342" y="255"/>
      <point x="342" y="318" type="curve" smooth="yes"/>
      <point x="342" y="523" type="line"/>
      <point x="353" y="613" type="line"/>
      <point x="337" y="613" type="line"/>
      <point x="337" y="640" type="line" smooth="yes"/>
      <point x="337" y="863"/>
      <point x="416" y="959"/>
      <point x="591" y="959" type="curve" smooth="yes"/>
      <point x="757" y="959"/>
      <point x="832" y="881"/>
      <point x="832" y="712" type="curve" smooth="yes"/>
      <point x="832" y="598" type="line"/>
      <point x="973" y="598" type="line"/>
      <point x="979" y="951" type="line"/>
      <point x="942" y="1133"/>
      <point x="804" y="1224"/>
    </contour>
    <contour>
      <point x="832" y="4" type="line"/>
      <point x="1133" y="4" type="line"/>
      <point x="1133" y="753" type="line"/>
      <point x="832" y="688" type="line"/>
    </contour>
    <contour>
      <point x="1352" y="1222" type="curve" smooth="yes"/>
      <point x="1137" y="1222"/>
      <point x="1019" y="1129"/>
      <point x="986" y="951" type="curve"/>
      <point x="926" y="951" type="line"/>
      <point x="937" y="594" type="line"/>
      <point x="1133" y="594" type="line"/>
      <point x="1133" y="694" type="line" smooth="yes"/>
      <point x="1133" y="893"/>
      <point x="1207" y="983"/>
      <point x="1365" y="983" type="curve" smooth="yes"/>
      <point x="1412" y="983"/>
      <point x="1449" y="972"/>
      <point x="1486" y="951" type="curve"/>
      <point x="1490" y="949"/>
      <point x="1564" y="913"/>
      <point x="1567" y="911" type="curve" smooth="yes"/>
      <point x="1644" y="857"/>
      <point x="1657" y="765"/>
      <point x="1657" y="635" type="curve" smooth="yes"/>
      <point x="1657" y="324" type="line" smooth="yes"/>
      <point x="1657" y="259"/>
      <point x="1639" y="232"/>
      <point x="1598" y="232" type="curve" smooth="yes"/>
      <point x="1557" y="232"/>
      <point x="1539" y="259"/>
      <point x="1539" y="324" type="curve" smooth="yes"/>
      <point x="1539" y="635" type="line" smooth="yes"/>
      <point x="1539" y="765"/>
      <point x="1552" y="857"/>
      <point x="1629" y="911" type="curve"/>
      <point x="1633" y="913"/>
      <point x="1724" y="949"/>
      <point x="1729" y="951" type="curve"/>
      <point x="1766" y="972"/>
      <point x="1803" y="983"/>
      <point x="1850" y="983" type="curve" smooth="yes"/>
      <point x="2001" y="983"/>
      <point x="2067" y="889"/>
      <point x="2067" y="672" type="curve" smooth="yes"/>
      <point x="2067" y="421" type="line" smooth="yes"/>
      <point x="2067" y="250"/>
      <point x="2041" y="99"/>
      <point x="2002" y="0" type="curve"/>
      <point x="2302" y="0" type="line"/>
      <point x="2348" y="98"/>
      <point x="2367" y="258"/>
      <point x="2367" y="427" type="curve" smooth="yes"/>
      <point x="2367" y="668" type="line" smooth="yes"/>
      <point x="2367" y="1045"/>
      <point x="2223" y="1222"/>
      <point x="1898" y="1222" type="curve" smooth="yes"/>
      <point x="1714" y="1222"/>
      <point x="1592" y="1154"/>
      <point x="1546" y="1093" type="curve"/>
      <point x="1439" y="1018" type="line"/>
      <point x="1292" y="929"/>
      <point x="1246" y="811"/>
      <point x="1246" y="626" type="curve" smooth="yes"/>
      <point x="1246" y="328" type="line" smooth="yes"/>
      <point x="1246" y="96"/>
      <point x="1364" y="-26"/>
      <point x="1598" y="-26" type="curve" smooth="yes"/>
      <point x="1832" y="-26"/>
      <point x="1950" y="96"/>
      <point x="1950" y="328" type="curve" smooth="yes"/>
      <point x="1950" y="626" type="line" smooth="yes"/>
      <point x="1950" y="811"/>
      <point x="1904" y="929"/>
      <point x="1757" y="1018" type="curve"/>
      <point x="1650" y="1093" type="line"/>
      <point x="1612" y="1154"/>
      <point x="1508" y="1222"/>
    </contour>
  </outline>
</glyph>
<glyph name="Ttha.mlm" format="2">
  <advance width="933"/>
  <unicode hex="0D20"/>
  <outline>
    <contour>
      <point x="467" y="247" type="curve" smooth="yes"/>
      <point x="393" y="247"/>
      <point x="363" y="296"/>
      <point x="363" y="405" type="curve" smooth="yes"/>
      <point x="363" y="786" type="line" smooth="yes"/>
      <point x="363" y="898"/>
      <point x="393" y="948"/>
      <point x="467" y="948" type="curve" smooth="yes"/>
      <point x="541" y="948"/>
      <point x="570" y="898"/>
      <point x="570" y="786" type="curve" smooth="yes"/>
      <point x="570" y="405" type="line" smooth="yes"/>
      <point x="570" y="296"/>
      <point x="541" y="247"/>
    </contour>
    <contour>
      <point x="467" y="-29" type="curve" smooth="yes"/>
      <point x="738" y="-29"/>
      <point x="872" y="119"/>
      <point x="872" y="408" type="curve" smooth="yes"/>
      <point x="872" y="782" type="line" smooth="yes"/>
      <point x="872" y="1075"/>
      <point x="738" y="1224"/>
      <point x="467" y="1224" type="curve" smooth="yes"/>
      <point x="196" y="1224"/>
      <point x="61" y="1075"/>
      <point x="61" y="782" type="curve" smooth="yes"/>
      <point x="61" y="408" type="line" smooth="yes"/>
      <point x="61" y="119"/>
      <point x="196" y="-29"/>
    </contour>
  </outline>
</glyph>
<glyph name="Dda.mlm" format="2">
  <advance width="1770"/>
  <unicode hex="0D21"/>
  <outline>
    <contour>
      <point x="1246" y="443" type="line"/>
      <point x="1246" y="1183" type="line"/>
      <point x="944" y="1183" type="line"/>
      <point x="944" y="443" type="line"/>
    </contour>
    <contour>
      <point x="819" y="-26" type="curve" smooth="yes"/>
      <point x="975" y="-26"/>
      <point x="1076" y="55"/>
      <point x="1091" y="217" type="curve"/>
      <point x="1196" y="217" type="line"/>
      <point x="1211" y="521" type="line"/>
      <point x="944" y="550" type="line"/>
      <point x="944" y="383" type="line" smooth="yes"/>
      <point x="944" y="298"/>
      <point x="922" y="261"/>
      <point x="872" y="261" type="curve" smooth="yes"/>
      <point x="824" y="261"/>
      <point x="800" y="291"/>
      <point x="800" y="368" type="curve" smooth="yes"/>
      <point x="800" y="530"/>
      <point x="819" y="662"/>
      <point x="819" y="826" type="curve" smooth="yes"/>
      <point x="819" y="1093"/>
      <point x="695" y="1224"/>
      <point x="443" y="1224" type="curve" smooth="yes"/>
      <point x="189" y="1224"/>
      <point x="64" y="1093"/>
      <point x="64" y="826" type="curve" smooth="yes"/>
      <point x="64" y="427" type="line" smooth="yes"/>
      <point x="64" y="258"/>
      <point x="81" y="98"/>
      <point x="125" y="0" type="curve"/>
      <point x="423" y="0" type="line"/>
      <point x="388" y="99"/>
      <point x="366" y="250"/>
      <point x="366" y="421" type="curve" smooth="yes"/>
      <point x="366" y="830" type="line" smooth="yes"/>
      <point x="366" y="915"/>
      <point x="389" y="948"/>
      <point x="442" y="948" type="curve" smooth="yes"/>
      <point x="495" y="948"/>
      <point x="517" y="915"/>
      <point x="517" y="830" type="curve" smooth="yes"/>
      <point x="517" y="664"/>
      <point x="499" y="528"/>
      <point x="499" y="361" type="curve" smooth="yes"/>
      <point x="499" y="103"/>
      <point x="606" y="-26"/>
    </contour>
    <contour>
      <point x="1099" y="217" type="line"/>
      <point x="1114" y="53"/>
      <point x="1213" y="-26"/>
      <point x="1382" y="-26" type="curve" smooth="yes"/>
      <point x="1605" y="-26"/>
      <point x="1706" y="108"/>
      <point x="1706" y="390" type="curve" smooth="yes"/>
      <point x="1706" y="760" type="line" smooth="yes"/>
      <point x="1706" y="929"/>
      <point x="1683" y="1077"/>
      <point x="1641" y="1187" type="curve"/>
      <point x="1347" y="1187" type="line"/>
      <point x="1382" y="1088"/>
      <point x="1404" y="936"/>
      <point x="1404" y="765" type="curve" smooth="yes"/>
      <point x="1404" y="388" type="line" smooth="yes"/>
      <point x="1404" y="298"/>
      <point x="1382" y="261"/>
      <point x="1325" y="261" type="curve" smooth="yes"/>
      <point x="1268" y="261"/>
      <point x="1246" y="298"/>
      <point x="1246" y="388" type="curve" smooth="yes"/>
      <point x="1246" y="546" type="line"/>
      <point x="1084" y="546" type="line"/>
    </contour>
  </outline>
</glyph>
<glyph name="Tha.mlm" format="2">
  <advance width="1323"/>
  <unicode hex="0D25"/>
  <outline>
    <contour>
      <point x="375" y="0" type="line"/>
      <point x="375" y="1189" type="line"/>
      <point x="74" y="1189" type="line"/>
      <point x="74" y="0" type="line"/>
    </contour>
    <contour>
      <point x="294" y="241" type="line"/>
      <point x="294" y="0" type="line"/>
      <point x="696" y="0" type="line"/>
      <point x="696" y="241" type="line"/>
    </contour>
    <contour>
      <point x="677" y="241" type="line"/>
      <point x="567" y="0" type="line"/>
      <point x="1253" y="0" type="line"/>
      <point x="1253" y="826" type="line" smooth="yes"/>
      <point x="1253" y="1092"/>
      <point x="1133" y="1224"/>
      <point x="883" y="1224" type="curve" smooth="yes"/>
      <point x="633" y="1224"/>
      <point x="506" y="1090"/>
      <point x="506" y="826" type="curve" smooth="yes"/>
      <point x="506" y="0" type="line"/>
      <point x="808" y="0" type="line"/>
      <point x="808" y="830" type="line" smooth="yes"/>
      <point x="808" y="910"/>
      <point x="829" y="948"/>
      <point x="880" y="948" type="curve" smooth="yes"/>
      <point x="931" y="948"/>
      <point x="951" y="910"/>
      <point x="951" y="830" type="curve" smooth="yes"/>
      <point x="951" y="241" type="line"/>
    </contour>
  </outline>
</glyph>
<glyph name="Da.mlm" format="2">
  <advance width="950"/>
  <unicode hex="0D26"/>
  <outline>
    <contour>
      <point x="893" y="863" type="line" smooth="yes"/>
      <point x="893" y="1097"/>
      <point x="751" y="1224"/>
      <point x="490" y="1224" type="curve" smooth="yes"/>
      <point x="205" y="1224"/>
      <point x="65" y="1074"/>
      <point x="65" y="791" type="curve" smooth="yes"/>
      <point x="65" y="399" type="line" smooth="yes"/>
      <point x="65" y="241"/>
      <point x="74" y="103"/>
      <point x="98" y="0" type="curve"/>
      <point x="395" y="0" type="line"/>
      <point x="378" y="94"/>
      <point x="367" y="234"/>
      <point x="367" y="394" type="curve" smooth="yes"/>
      <point x="367" y="795" type="line" smooth="yes"/>
      <point x="367" y="904"/>
      <point x="400" y="953"/>
      <point x="483" y="953" type="curve" smooth="yes"/>
      <point x="558" y="953"/>
      <point x="591" y="913"/>
      <point x="591" y="832" type="curve" smooth="yes"/>
      <point x="591" y="816" type="line" smooth="yes"/>
      <point x="591" y="759"/>
      <point x="566" y="728"/>
      <point x="505" y="724" type="curve" smooth="yes"/>
      <point x="461" y="721" type="line"/>
      <point x="461" y="475" type="line"/>
      <point x="512" y="472" type="line" smooth="yes"/>
      <point x="575" y="468"/>
      <point x="601" y="433"/>
      <point x="601" y="369" type="curve" smooth="yes"/>
      <point x="601" y="342" type="line" smooth="yes"/>
      <point x="601" y="274"/>
      <point x="575" y="241"/>
      <point x="512" y="241" type="curve" smooth="yes"/>
      <point x="490" y="241"/>
      <point x="475" y="243"/>
      <point x="457" y="247" type="curve"/>
      <point x="485" y="0" type="line"/>
      <point x="529" y="-7"/>
      <point x="571" y="-13"/>
      <point x="617" y="-13" type="curve" smooth="yes"/>
      <point x="808" y="-13"/>
      <point x="904" y="87"/>
      <point x="904" y="280" type="curve" smooth="yes"/>
      <point x="904" y="329" type="line" smooth="yes"/>
      <point x="904" y="494"/>
      <point x="837" y="582"/>
      <point x="695" y="600" type="curve"/>
      <point x="695" y="607" type="line"/>
      <point x="832" y="631"/>
      <point x="893" y="717"/>
      <point x="893" y="856" type="curve" smooth="yes"/>
    </contour>
  </outline>
</glyph>
<glyph name="Dha.mlm" format="2">
  <advance width="1350"/>
  <unicode hex="0D27"/>
  <outline>
    <contour>
      <point x="826" y="440" type="line"/>
      <point x="826" y="1183" type="line"/>
      <point x="524" y="1183" type="line"/>
      <point x="524" y="440" type="line"/>
    </contour>
    <contour>
      <point x="524" y="546" type="line"/>
      <point x="524" y="388" type="line" smooth="yes"/>
      <point x="524" y="298"/>
      <point x="502" y="261"/>
      <point x="445" y="261" type="curve" smooth="yes"/>
      <point x="388" y="261"/>
      <point x="366" y="298"/>
      <point x="366" y="388" type="curve" smooth="yes"/>
      <point x="366" y="765" type="line" smooth="yes"/>
      <point x="366" y="936"/>
      <point x="388" y="1088"/>
      <point x="423" y="1187" type="curve"/>
      <point x="129" y="1187" type="line"/>
      <point x="81" y="1077"/>
      <point x="64" y="929"/>
      <point x="64" y="760" type="curve" smooth="yes"/>
      <point x="64" y="390" type="line" smooth="yes"/>
      <point x="64" y="108"/>
      <point x="165" y="-26"/>
      <point x="388" y="-26" type="curve" smooth="yes"/>
      <point x="557" y="-26"/>
      <point x="657" y="53"/>
      <point x="672" y="217" type="curve"/>
      <point x="776" y="217" type="line"/>
      <point x="791" y="517" type="line"/>
    </contour>
    <contour>
      <point x="680" y="217" type="line"/>
      <point x="695" y="53"/>
      <point x="793" y="-26"/>
      <point x="962" y="-26" type="curve" smooth="yes"/>
      <point x="1185" y="-26"/>
      <point x="1286" y="108"/>
      <point x="1286" y="390" type="curve" smooth="yes"/>
      <point x="1286" y="760" type="line" smooth="yes"/>
      <point x="1286" y="929"/>
      <point x="1264" y="1077"/>
      <point x="1222" y="1187" type="curve"/>
      <point x="927" y="1187" type="line"/>
      <point x="962" y="1088"/>
      <point x="984" y="936"/>
      <point x="984" y="765" type="curve" smooth="yes"/>
      <point x="984" y="388" type="line" smooth="yes"/>
      <point x="984" y="298"/>
      <point x="962" y="261"/>
      <point x="905" y="261" type="curve" smooth="yes"/>
      <point x="848" y="261"/>
      <point x="826" y="298"/>
      <point x="826" y="388" type="curve" smooth="yes"/>
      <point x="826" y="546" type="line"/>
      <point x="664" y="546" type="line"/>
    </contour>
  </outline>
</glyph>
<glyph name="Pha.mlm" format="2">
  <advance width="1713"/>
  <unicode hex="0D2B"/>
  <outline>
    <contour>
      <point x="532" y="239" type="line"/>
      <point x="532" y="0" type="line"/>
      <point x="1032" y="0" type="line"/>
      <point x="1032" y="239" type="line"/>
    </contour>
    <contour>
      <point x="414" y="826" type="curve" smooth="yes"/>
      <point x="169" y="826"/>
      <point x="52" y="694"/>
      <point x="52" y="442" type="curve" smooth="yes"/>
      <point x="52" y="307" type="line" smooth="yes"/>
      <point x="52" y="186"/>
      <point x="63" y="79"/>
      <point x="85" y="0" type="curve"/>
      <point x="366" y="0" type="line"/>
      <point x="351" y="74"/>
      <point x="339" y="179"/>
      <point x="339" y="302" type="curve" smooth="yes"/>
      <point x="339" y="445" type="line" smooth="yes"/>
      <point x="339" y="528"/>
      <point x="360" y="567"/>
      <point x="412" y="567" type="curve" smooth="yes"/>
      <point x="464" y="567"/>
      <point x="486" y="528"/>
      <point x="486" y="445" type="curve" smooth="yes"/>
      <point x="486" y="302" type="line" smooth="yes"/>
      <point x="486" y="186"/>
      <point x="471" y="85"/>
      <point x="449" y="13" type="curve"/>
      <point x="449" y="0" type="line"/>
      <point x="629" y="0" type="line"/>
      <point x="728" y="98"/>
      <point x="776" y="230"/>
      <point x="776" y="381" type="curve" smooth="yes"/>
      <point x="776" y="442" type="line" smooth="yes"/>
      <point x="776" y="694"/>
      <point x="659" y="826"/>
    </contour>
    <contour>
      <point x="1067" y="241" type="line"/>
      <point x="957" y="0" type="line"/>
      <point x="1643" y="0" type="line"/>
      <point x="1643" y="826" type="line" smooth="yes"/>
      <point x="1643" y="1092"/>
      <point x="1523" y="1224"/>
      <point x="1273" y="1224" type="curve" smooth="yes"/>
      <point x="1023" y="1224"/>
      <point x="896" y="1090"/>
      <point x="896" y="826" type="curve" smooth="yes"/>
      <point x="896" y="0" type="line"/>
      <point x="1198" y="0" type="line"/>
      <point x="1198" y="830" type="line" smooth="yes"/>
      <point x="1198" y="910"/>
      <point x="1219" y="948"/>
      <point x="1270" y="948" type="curve" smooth="yes"/>
      <point x="1321" y="948"/>
      <point x="1341" y="910"/>
      <point x="1341" y="830" type="curve" smooth="yes"/>
      <point x="1341" y="241" type="line"/>
    </contour>
  </outline>
</glyph>
<glyph name="Ba.mlm" format="2">
  <advance width="2116"/>
  <unicode hex="0D2C"/>
  <outline>
    <contour>
      <point x="832" y="4" type="line"/>
      <point x="1133" y="4" type="line"/>
      <point x="1133" y="782" type="line"/>
      <point x="832" y="677" type="line"/>
    </contour>
    <contour>
      <point x="570" y="1224" type="curve" smooth="yes"/>
      <point x="226" y="1224"/>
      <point x="59" y="1027"/>
      <point x="59" y="648" type="curve" smooth="yes"/>
      <point x="59" y="329" type="line" smooth="yes"/>
      <point x="59" y="95"/>
      <point x="173" y="-26"/>
      <point x="397" y="-26" type="curve" smooth="yes"/>
      <point x="621" y="-26"/>
      <point x="732" y="95"/>
      <point x="732" y="329" type="curve" smooth="yes"/>
      <point x="732" y="524" type="line" smooth="yes"/>
      <point x="732" y="725"/>
      <point x="669" y="819"/>
      <point x="537" y="819" type="curve" smooth="yes"/>
      <point x="417" y="819"/>
      <point x="357" y="742"/>
      <point x="342" y="587" type="curve"/>
      <point x="338" y="506" type="line"/>
      <point x="347" y="537"/>
      <point x="366" y="556"/>
      <point x="397" y="556" type="curve" smooth="yes"/>
      <point x="432" y="556"/>
      <point x="447" y="532"/>
      <point x="447" y="480" type="curve" smooth="yes"/>
      <point x="447" y="318" type="line" smooth="yes"/>
      <point x="447" y="255"/>
      <point x="433" y="230"/>
      <point x="396" y="230" type="curve" smooth="yes"/>
      <point x="359" y="230"/>
      <point x="342" y="255"/>
      <point x="342" y="318" type="curve" smooth="yes"/>
      <point x="342" y="523" type="line"/>
      <point x="353" y="613" type="line"/>
      <point x="337" y="613" type="line"/>
      <point x="337" y="640" type="line" smooth="yes"/>
      <point x="337" y="863"/>
      <point x="416" y="959"/>
      <point x="591" y="959" type="curve" smooth="yes"/>
      <point x="757" y="959"/>
      <point x="832" y="881"/>
      <point x="832" y="712" type="curve" smooth="yes"/>
      <point x="832" y="598" type="line"/>
      <point x="973" y="598" type="line"/>
      <point x="973" y="968" type="line"/>
      <point x="933" y="1139"/>
      <point x="798" y="1224"/>
    </contour>
    <contour>
      <point x="1218" y="937" type="curve" smooth="yes"/>
      <point x="1279" y="937"/>
      <point x="1303" y="896"/>
      <point x="1303" y="806" type="curve" smooth="yes"/>
      <point x="1303" y="421" type="line" smooth="yes"/>
      <point x="1303" y="257"/>
      <point x="1282" y="112"/>
      <point x="1249" y="13" type="curve"/>
      <point x="1249" y="0" type="line"/>
      <point x="1494" y="0" type="line"/>
      <point x="1558" y="105"/>
      <point x="1605" y="273"/>
      <point x="1605" y="451" type="curve" smooth="yes"/>
      <point x="1605" y="804" type="line" smooth="yes"/>
      <point x="1605" y="1087"/>
      <point x="1501" y="1224"/>
      <point x="1271" y="1224" type="curve" smooth="yes"/>
      <point x="1105" y="1224"/>
      <point x="1001" y="1152"/>
      <point x="981" y="968" type="curve"/>
      <point x="874" y="968" type="line"/>
      <point x="874" y="653" type="line"/>
      <point x="1133" y="648" type="line"/>
      <point x="1133" y="808" type="line" smooth="yes"/>
      <point x="1133" y="896"/>
      <point x="1157" y="937"/>
    </contour>
    <contour>
      <point x="1740" y="1189" type="line"/>
      <point x="1740" y="0" type="line"/>
      <point x="2042" y="0" type="line"/>
      <point x="2042" y="1189" type="line"/>
    </contour>
    <contour>
      <point x="1486" y="239" type="line"/>
      <point x="1249" y="0" type="line"/>
      <point x="1999" y="0" type="line"/>
      <point x="1999" y="239" type="line"/>
    </contour>
  </outline>
</glyph>
<glyph name="Ra.mlm" format="2">
  <advance width="1212"/>
  <unicode hex="0D30"/>
  <outline>
    <contour>
      <point x="618" y="959" type="curve" smooth="yes"/>
      <point x="784" y="959"/>
      <point x="876" y="865"/>
      <point x="876" y="653" type="curve" smooth="yes"/>
      <point x="876" y="644" type="line"/>
      <point x="857" y="644" type="line"/>
      <point x="870" y="574" type="line"/>
      <point x="870" y="318" type="line" smooth="yes"/>
      <point x="870" y="255"/>
      <point x="856" y="230"/>
      <point x="817" y="230" type="curve" smooth="yes"/>
      <point x="780" y="230"/>
      <point x="765" y="255"/>
      <point x="765" y="318" type="curve" smooth="yes"/>
      <point x="765" y="500" type="line" smooth="yes"/>
      <point x="765" y="553"/>
      <point x="782" y="576"/>
      <point x="822" y="576" type="curve" smooth="yes"/>
      <point x="850" y="576"/>
      <point x="865" y="567"/>
      <point x="874" y="558" type="curve"/>
      <point x="868" y="637" type="line"/>
      <point x="853" y="771"/>
      <point x="795" y="839"/>
      <point x="679" y="839" type="curve" smooth="yes"/>
      <point x="543" y="839"/>
      <point x="480" y="739"/>
      <point x="480" y="526" type="curve" smooth="yes"/>
      <point x="480" y="329" type="line" smooth="yes"/>
      <point x="480" y="95"/>
      <point x="590" y="-26"/>
      <point x="813" y="-26" type="curve" smooth="yes"/>
      <point x="1039" y="-26"/>
      <point x="1154" y="95"/>
      <point x="1154" y="329" type="curve" smooth="yes"/>
      <point x="1154" y="642" type="line" smooth="yes"/>
      <point x="1154" y="1025"/>
      <point x="977" y="1224"/>
      <point x="609" y="1224" type="curve" smooth="yes"/>
      <point x="237" y="1224"/>
      <point x="62" y="1025"/>
      <point x="62" y="640" type="curve" smooth="yes"/>
      <point x="62" y="427" type="line" smooth="yes"/>
      <point x="62" y="258"/>
      <point x="80" y="98"/>
      <point x="126" y="0" type="curve"/>
      <point x="427" y="0" type="line"/>
      <point x="388" y="99"/>
      <point x="362" y="250"/>
      <point x="362" y="421" type="curve" smooth="yes"/>
      <point x="362" y="640" type="line" smooth="yes"/>
      <point x="362" y="861"/>
      <point x="440" y="959"/>
    </contour>
  </outline>
</glyph>
<glyph name="Rra.mlm" format="2">
  <advance width="938"/>
  <unicode hex="0D31"/>
  <outline>
    <contour>
      <point x="469" y="948" type="curve" smooth="yes"/>
      <point x="543" y="948"/>
      <point x="572" y="898"/>
      <point x="572" y="786" type="curve" smooth="yes"/>
      <point x="572" y="416" type="line" smooth="yes"/>
      <point x="572" y="247"/>
      <point x="553" y="98"/>
      <point x="524" y="0" type="curve"/>
      <point x="822" y="0" type="line"/>
      <point x="859" y="96"/>
      <point x="874" y="254"/>
      <point x="874" y="421" type="curve" smooth="yes"/>
      <point x="874" y="782" type="line" smooth="yes"/>
      <point x="874" y="1075"/>
      <point x="739" y="1224"/>
      <point x="469" y="1224" type="curve" smooth="yes"/>
      <point x="199" y="1224"/>
      <point x="64" y="1075"/>
      <point x="64" y="782" type="curve" smooth="yes"/>
      <point x="64" y="421" type="line" smooth="yes"/>
      <point x="64" y="254"/>
      <point x="79" y="96"/>
      <point x="116" y="0" type="curve"/>
      <point x="414" y="0" type="line"/>
      <point x="385" y="98"/>
      <point x="366" y="247"/>
      <point x="366" y="416" type="curve" smooth="yes"/>
      <point x="366" y="786" type="line" smooth="yes"/>
      <point x="366" y="898"/>
      <point x="395" y="948"/>
    </contour>
  </outline>
</glyph>
<glyph name="La.mlm" format="2">
  <advance width="1283"/>
  <unicode hex="0D32"/>
  <outline>
    <contour>
      <point x="500" y="592" type="line"/>
      <point x="364" y="592" type="line"/>
      <point x="364" y="859" type="line" smooth="yes"/>
      <point x="364" y="933"/>
      <point x="384" y="966"/>
      <point x="432" y="966" type="curve" smooth="yes"/>
      <point x="480" y="966"/>
      <point x="500" y="933"/>
      <point x="500" y="859" type="curve" smooth="yes"/>
    </contour>
    <contour>
      <point x="70" y="0" type="line"/>
      <point x="1209" y="0" type="line"/>
      <point x="1209" y="1189" type="line"/>
      <point x="907" y="1189" type="line"/>
      <point x="907" y="241" type="line"/>
      <point x="364" y="241" type="line"/>
      <point x="364" y="357" type="line"/>
      <point x="788" y="357" type="line"/>
      <point x="788" y="845" type="line" smooth="yes"/>
      <point x="788" y="1093"/>
      <point x="668" y="1224"/>
      <point x="429" y="1224" type="curve" smooth="yes"/>
      <point x="190" y="1224"/>
      <point x="70" y="1093"/>
      <point x="70" y="845" type="curve" smooth="yes"/>
    </contour>
  </outline>
</glyph>
<glyph name="Lla.mlm" format="2">
  <advance width="1233"/>
  <unicode hex="0D33"/>
  <outline>
    <contour>
      <point x="365" y="-320" type="curve" smooth="yes"/>
      <point x="1145" y="-320" type="line"/>
      <point x="1178" y="-88" type="line"/>
      <point x="406" y="-88" type="line" smooth="yes"/>
      <point x="369" y="-88"/>
      <point x="350" y="-75"/>
      <point x="350" y="-44" type="curve" smooth="yes"/>
      <point x="350" y="-13"/>
      <point x="369" y="0"/>
      <point x="406" y="0" type="curve" smooth="yes"/>
      <point x="869" y="0" type="line" smooth="yes"/>
      <point x="1079" y="0"/>
      <point x="1188" y="96"/>
      <point x="1188" y="294" type="curve" smooth="yes"/>
      <point x="1188" y="320" type="line" smooth="yes"/>
      <point x="1188" y="475"/>
      <point x="1120" y="557"/>
      <point x="969" y="576" type="curve"/>
      <point x="969" y="583" type="line"/>
      <point x="1115" y="609"/>
      <point x="1175" y="685"/>
      <point x="1175" y="819" type="curve" smooth="yes"/>
      <point x="1175" y="843" type="line" smooth="yes"/>
      <point x="1175" y="1094"/>
      <point x="982" y="1224"/>
      <point x="625" y="1224" type="curve" smooth="yes"/>
      <point x="246" y="1224"/>
      <point x="58" y="1043"/>
      <point x="58" y="688" type="curve" smooth="yes"/>
      <point x="58" y="513" type="line" smooth="yes"/>
      <point x="58" y="304"/>
      <point x="167" y="195"/>
      <point x="381" y="195" type="curve" smooth="yes"/>
      <point x="595" y="195"/>
      <point x="700" y="304"/>
      <point x="700" y="513" type="curve" smooth="yes"/>
      <point x="700" y="611" type="line" smooth="yes"/>
      <point x="700" y="800"/>
      <point x="639" y="880"/>
      <point x="516" y="880" type="curve" smooth="yes"/>
      <point x="399" y="880"/>
      <point x="346" y="823"/>
      <point x="327" y="690" type="curve"/>
      <point x="323" y="592" type="line"/>
      <point x="332" y="624"/>
      <point x="354" y="642"/>
      <point x="382" y="642" type="curve" smooth="yes"/>
      <point x="416" y="642"/>
      <point x="431" y="621"/>
      <point x="431" y="572" type="curve" smooth="yes"/>
      <point x="431" y="490" type="line" smooth="yes"/>
      <point x="431" y="436"/>
      <point x="417" y="414"/>
      <point x="379" y="414" type="curve" smooth="yes"/>
      <point x="343" y="414"/>
      <point x="327" y="436"/>
      <point x="327" y="490" type="curve" smooth="yes"/>
      <point x="327" y="644" type="line"/>
      <point x="332" y="710" type="line"/>
      <point x="321" y="710" type="line"/>
      <point x="321" y="712" type="line"/>
      <point x="321" y="881"/>
      <point x="415" y="964"/>
      <point x="625" y="964" type="curve" smooth="yes"/>
      <point x="800" y="964"/>
      <point x="877" y="915"/>
      <point x="877" y="811" type="curve" smooth="yes"/>
      <point x="877" y="789" type="line" smooth="yes"/>
      <point x="877" y="734"/>
      <point x="850" y="705"/>
      <point x="798" y="701" type="curve" smooth="yes"/>
      <point x="752" y="697" type="line"/>
      <point x="752" y="466" type="line"/>
      <point x="801" y="462" type="line" smooth="yes"/>
      <point x="858" y="458"/>
      <point x="890" y="424"/>
      <point x="890" y="359" type="curve" smooth="yes"/>
      <point x="890" y="335" type="line" smooth="yes"/>
      <point x="890" y="255"/>
      <point x="851" y="224"/>
      <point x="779" y="224" type="curve" smooth="yes"/>
      <point x="365" y="224" type="line" smooth="yes"/>
      <point x="157" y="224"/>
      <point x="52" y="136"/>
      <point x="52" y="-44" type="curve" smooth="yes"/>
      <point x="52" y="-228"/>
      <point x="157" y="-320"/>
    </contour>
  </outline>
</glyph>
<glyph name="Ssa.mlm" format="2">
  <advance width="1908"/>
  <unicode hex="0D37"/>
  <outline>
    <contour>
      <point x="414" y="826" type="curve" smooth="yes"/>
      <point x="169" y="826"/>
      <point x="52" y="694"/>
      <point x="52" y="442" type="curve" smooth="yes"/>
      <point x="52" y="307" type="line" smooth="yes"/>
      <point x="52" y="186"/>
      <point x="63" y="79"/>
      <point x="85" y="0" type="curve"/>
      <point x="366" y="0" type="line"/>
      <point x="351" y="74"/>
      <point x="339" y="179"/>
      <point x="339" y="302" type="curve" smooth="yes"/>
      <point x="339" y="445" type="line" smooth="yes"/>
      <point x="339" y="528"/>
      <point x="360" y="567"/>
      <point x="412" y="567" type="curve" smooth="yes"/>
      <point x="464" y="567"/>
      <point x="486" y="528"/>
      <point x="486" y="445" type="curve" smooth="yes"/>
      <point x="486" y="302" type="line" smooth="yes"/>
      <point x="486" y="186"/>
      <point x="471" y="85"/>
      <point x="449" y="13" type="curve"/>
      <point x="449" y="0" type="line"/>
      <point x="629" y="0" type="line"/>
      <point x="728" y="98"/>
      <point x="776" y="230"/>
      <point x="776" y="381" type="curve" smooth="yes"/>
      <point x="776" y="442" type="line" smooth="yes"/>
      <point x="776" y="694"/>
      <point x="659" y="826"/>
    </contour>
    <contour>
      <point x="504" y="0" type="line"/>
      <point x="1834" y="0" type="line"/>
      <point x="1834" y="1189" type="line"/>
      <point x="1535" y="1189" type="line"/>
      <point x="1535" y="236" type="line"/>
      <point x="677" y="236" type="line"/>
    </contour>
    <contour>
      <point x="1151" y="795" type="line" smooth="yes"/>
      <point x="1151" y="720"/>
      <point x="1133" y="649"/>
      <point x="1102" y="561" type="curve" smooth="yes"/>
      <point x="1098" y="550"/>
      <point x="1064" y="440"/>
      <point x="1060" y="429" type="curve"/>
      <point x="983" y="195" type="line"/>
      <point x="1275" y="206" type="line"/>
      <point x="1338" y="403" type="line"/>
      <point x="1340" y="414"/>
      <point x="1365" y="528"/>
      <point x="1367" y="539" type="curve"/>
      <point x="1411" y="644"/>
      <point x="1436" y="741"/>
      <point x="1436" y="824" type="curve" smooth="yes"/>
      <point x="1436" y="898" type="line" smooth="yes"/>
      <point x="1436" y="1113"/>
      <point x="1324" y="1224"/>
      <point x="1102" y="1224" type="curve" smooth="yes"/>
      <point x="876" y="1224"/>
      <point x="765" y="1106"/>
      <point x="765" y="883" type="curve" smooth="yes"/>
      <point x="765" y="810" type="line" smooth="yes"/>
      <point x="765" y="543"/>
      <point x="911" y="394"/>
      <point x="1207" y="394" type="curve" smooth="yes"/>
      <point x="1248" y="394" type="line" smooth="yes"/>
      <point x="1266" y="394"/>
      <point x="1306" y="394"/>
      <point x="1329" y="394" type="curve" smooth="yes"/>
      <point x="1417" y="394"/>
      <point x="1496" y="416"/>
      <point x="1564" y="456" type="curve"/>
      <point x="1564" y="703" type="line"/>
      <point x="1487" y="657"/>
      <point x="1429" y="635"/>
      <point x="1344" y="629" type="curve"/>
      <point x="1326" y="627"/>
      <point x="1305" y="627"/>
      <point x="1286" y="627" type="curve" smooth="yes"/>
      <point x="1225" y="627" type="line" smooth="yes"/>
      <point x="1100" y="627"/>
      <point x="1044" y="681"/>
      <point x="1044" y="806" type="curve" smooth="yes"/>
      <point x="1044" y="894" type="line" smooth="yes"/>
      <point x="1044" y="957"/>
      <point x="1061" y="984"/>
      <point x="1098" y="984" type="curve" smooth="yes"/>
      <point x="1135" y="984"/>
      <point x="1151" y="957"/>
      <point x="1151" y="894" type="curve" smooth="yes"/>
    </contour>
  </outline>
</glyph>
<glyph name="Ha.mlm" format="2">
  <advance width="1757"/>
  <unicode hex="0D39"/>
  <outline>
    <contour>
      <point x="414" y="826" type="curve" smooth="yes"/>
      <point x="169" y="826"/>
      <point x="52" y="694"/>
      <point x="52" y="442" type="curve" smooth="yes"/>
      <point x="52" y="307" type="line" smooth="yes"/>
      <point x="52" y="186"/>
      <point x="63" y="79"/>
      <point x="85" y="0" type="curve"/>
      <point x="366" y="0" type="line"/>
      <point x="351" y="74"/>
      <point x="339" y="179"/>
      <point x="339" y="302" type="curve" smooth="yes"/>
      <point x="339" y="445" type="line" smooth="yes"/>
      <point x="339" y="528"/>
      <point x="360" y="567"/>
      <point x="412" y="567" type="curve" smooth="yes"/>
      <point x="464" y="567"/>
      <point x="486" y="528"/>
      <point x="486" y="445" type="curve" smooth="yes"/>
      <point x="486" y="302" type="line" smooth="yes"/>
      <point x="486" y="186"/>
      <point x="471" y="85"/>
      <point x="449" y="13" type="curve"/>
      <point x="449" y="0" type="line"/>
      <point x="629" y="0" type="line"/>
      <point x="728" y="98"/>
      <point x="776" y="230"/>
      <point x="776" y="381" type="curve" smooth="yes"/>
      <point x="776" y="442" type="line" smooth="yes"/>
      <point x="776" y="694"/>
      <point x="659" y="826"/>
    </contour>
    <contour>
      <point x="703" y="241" type="line"/>
      <point x="449" y="0" type="line"/>
      <point x="1244" y="0" type="line"/>
      <point x="1089" y="241" type="line"/>
    </contour>
    <contour>
      <point x="1296" y="948" type="curve" smooth="yes"/>
      <point x="1363" y="948"/>
      <point x="1391" y="900"/>
      <point x="1391" y="792" type="curve" smooth="yes"/>
      <point x="1391" y="416" type="line" smooth="yes"/>
      <point x="1391" y="247"/>
      <point x="1375" y="98"/>
      <point x="1353" y="0" type="curve"/>
      <point x="1651" y="0" type="line"/>
      <point x="1680" y="96"/>
      <point x="1693" y="254"/>
      <point x="1693" y="421" type="curve" smooth="yes"/>
      <point x="1693" y="788" type="line" smooth="yes"/>
      <point x="1693" y="1076"/>
      <point x="1562" y="1224"/>
      <point x="1296" y="1224" type="curve" smooth="yes"/>
      <point x="1030" y="1224"/>
      <point x="900" y="1076"/>
      <point x="900" y="788" type="curve" smooth="yes"/>
      <point x="900" y="440" type="line" smooth="yes"/>
      <point x="900" y="265"/>
      <point x="931" y="101"/>
      <point x="1005" y="0" type="curve"/>
      <point x="1244" y="0" type="line"/>
      <point x="1244" y="13" type="line"/>
      <point x="1218" y="111"/>
      <point x="1202" y="254"/>
      <point x="1202" y="416" type="curve" smooth="yes"/>
      <point x="1202" y="792" type="line" smooth="yes"/>
      <point x="1202" y="900"/>
      <point x="1229" y="948"/>
    </contour>
  </outline>
</glyph>
<glyph name="verticalbarviramasign.mlm" format="2">
  <unicode hex="0D3B"/>
  <outline>
    <contour>
      <point x="-591" y="1708" type="line"/>
      <point x="-591" y="1294" type="line"/>
      <point x="-326" y="1294" type="line"/>
      <point x="-326" y="1708" type="line"/>
    </contour>
  </outline>
</glyph>
<glyph name="circularviramasign.mlm" format="2">
  <unicode hex="0D3C"/>
  <outline>
    <contour>
      <point x="-276" y="1459" type="line" smooth="yes"/>
      <point x="-276" y="1290"/>
      <point x="-182" y="1200"/>
      <point x="-4" y="1200" type="curve" smooth="yes"/>
      <point x="174" y="1200"/>
      <point x="269" y="1290"/>
      <point x="269" y="1459" type="curve" smooth="yes"/>
      <point x="269" y="1466" type="line" smooth="yes"/>
      <point x="269" y="1635"/>
      <point x="174" y="1726"/>
      <point x="-4" y="1726" type="curve" smooth="yes"/>
      <point x="-182" y="1726"/>
      <point x="-276" y="1635"/>
      <point x="-276" y="1466" type="curve" smooth="yes"/>
    </contour>
    <contour>
      <point x="48" y="1455" type="line" smooth="yes"/>
      <point x="48" y="1411"/>
      <point x="31" y="1387"/>
      <point x="-4" y="1387" type="curve" smooth="yes"/>
      <point x="-39" y="1387"/>
      <point x="-55" y="1406"/>
      <point x="-55" y="1450" type="curve" smooth="yes"/>
      <point x="-55" y="1465" type="line" smooth="yes"/>
      <point x="-55" y="1509"/>
      <point x="-39" y="1538"/>
      <point x="-4" y="1538" type="curve" smooth="yes"/>
      <point x="31" y="1538"/>
      <point x="48" y="1514"/>
      <point x="48" y="1470" type="curve" smooth="yes"/>
    </contour>
  </outline>
</glyph>
<glyph name="matraU.mlm" format="2">
  <advance width="686"/>
  <unicode hex="0D41"/>
  <outline>
    <contour>
      <point x="331" y="-112" type="curve" smooth="yes"/>
      <point x="292" y="-112"/>
      <point x="276" y="-84"/>
      <point x="276" y="-22" type="curve" smooth="yes"/>
      <point x="276" y="116" type="line" smooth="yes"/>
      <point x="276" y="178"/>
      <point x="292" y="206"/>
      <point x="331" y="206" type="curve" smooth="yes"/>
      <point x="370" y="206"/>
      <point x="386" y="178"/>
      <point x="386" y="116" type="curve" smooth="yes"/>
      <point x="386" y="-22" type="line" smooth="yes"/>
      <point x="386" y="-84"/>
      <point x="370" y="-112"/>
    </contour>
    <contour>
      <point x="326" y="452" type="curve" smooth="yes"/>
      <point x="119" y="452"/>
      <point x="13" y="344"/>
      <point x="13" y="110" type="curve" smooth="yes"/>
      <point x="13" y="-15" type="line" smooth="yes"/>
      <point x="13" y="-249"/>
      <point x="121" y="-357"/>
      <point x="331" y="-357" type="curve" smooth="yes"/>
      <point x="541" y="-357"/>
      <point x="650" y="-248"/>
      <point x="650" y="-15" type="curve" smooth="yes"/>
      <point x="650" y="110" type="line" smooth="yes"/>
      <point x="650" y="296"/>
      <point x="578.025" y="397.097"/>
      <point x="440" y="432" type="curve" smooth="yes"/>
      <point x="404.024" y="441.097"/>
      <point x="368" y="452"/>
    </contour>
    <contour>
      <point x="605" y="791" type="curve" smooth="yes"/>
      <point x="605" y="824" type="line" smooth="yes"/>
      <point x="605" y="1093"/>
      <point x="497" y="1220"/>
      <point x="269" y="1220" type="curve" smooth="yes"/>
      <point x="197" y="1220"/>
      <point x="144" y="1207"/>
      <point x="96" y="1190" type="curve"/>
      <point x="66" y="922" type="line"/>
      <point x="99" y="939"/>
      <point x="138" y="946"/>
      <point x="173" y="946" type="curve" smooth="yes"/>
      <point x="266" y="946"/>
      <point x="309" y="896"/>
      <point x="309" y="791" type="curve" smooth="yes"/>
      <point x="309" y="769" type="line" smooth="yes"/>
      <point x="309" y="633"/>
      <point x="246" y="492"/>
      <point x="186" y="405" type="curve"/>
      <point x="445" y="342" type="line"/>
      <point x="538" y="447"/>
      <point x="605" y="626"/>
    </contour>
  </outline>
</glyph>
<glyph name="matraUu.mlm" format="2">
  <advance width="686"/>
  <unicode hex="0D42"/>
  <outline>
    <contour>
      <point x="332" y="147" type="curve" smooth="yes"/>
      <point x="301" y="147"/>
      <point x="262" y="157"/>
      <point x="241" y="184" type="curve"/>
      <point x="210" y="82" type="line"/>
      <point x="241" y="-13" type="line"/>
      <point x="262" y="-40"/>
      <point x="301" y="-50"/>
      <point x="332" y="-50" type="curve" smooth="yes"/>
      <point x="361" y="-50"/>
      <point x="401" y="-40"/>
      <point x="422" y="-13" type="curve"/>
      <point x="459" y="82" type="line"/>
      <point x="422" y="184" type="line"/>
      <point x="401" y="157"/>
      <point x="361" y="147"/>
    </contour>
    <contour>
      <point x="331" y="-149" type="curve" smooth="yes"/>
      <point x="277" y="-149"/>
      <point x="254" y="-115"/>
      <point x="254" y="-40" type="curve" smooth="yes"/>
      <point x="254" y="153" type="line" smooth="yes"/>
      <point x="254" y="228"/>
      <point x="277" y="261"/>
      <point x="331" y="261" type="curve" smooth="yes"/>
      <point x="386" y="261"/>
      <point x="409" y="228"/>
      <point x="409" y="153" type="curve" smooth="yes"/>
      <point x="409" y="-40" type="line" smooth="yes"/>
      <point x="409" y="-115"/>
      <point x="386" y="-149"/>
    </contour>
    <contour>
      <point x="326" y="471" type="curve" smooth="yes"/>
      <point x="119" y="471"/>
      <point x="13" y="363"/>
      <point x="13" y="129" type="curve" smooth="yes"/>
      <point x="13" y="-15" type="line" smooth="yes"/>
      <point x="13" y="-249"/>
      <point x="121" y="-357"/>
      <point x="331" y="-357" type="curve" smooth="yes"/>
      <point x="541" y="-357"/>
      <point x="650" y="-248"/>
      <point x="650" y="-15" type="curve" smooth="yes"/>
      <point x="650" y="129" type="line" smooth="yes"/>
      <point x="650" y="315"/>
      <point x="578.025" y="415.097"/>
      <point x="440" y="450" type="curve" smooth="yes"/>
      <point x="404.024" y="459.097"/>
      <point x="368" y="471"/>
    </contour>
    <contour>
      <point x="605" y="791" type="curve" smooth="yes"/>
      <point x="605" y="824" type="line" smooth="yes"/>
      <point x="605" y="1093"/>
      <point x="497" y="1220"/>
      <point x="269" y="1220" type="curve" smooth="yes"/>
      <point x="197" y="1220"/>
      <point x="144" y="1207"/>
      <point x="96" y="1190" type="curve"/>
      <point x="66" y="922" type="line"/>
      <point x="99" y="939"/>
      <point x="138" y="946"/>
      <point x="173" y="946" type="curve" smooth="yes"/>
      <point x="266" y="946"/>
      <point x="309" y="896"/>
      <point x="309" y="791" type="curve" smooth="yes"/>
      <point x="309" y="769" type="line" smooth="yes"/>
      <point x="309" y="633"/>
      <point x="246" y="492"/>
      <point x="186" y="405" type="curve"/>
      <point x="445" y="342" type="line"/>
      <point x="538" y="447"/>
      <point x="605" y="626"/>
    </contour>
  </outline>
</glyph>
<glyph name="matrashortE.mlm" format="2">
  <advance width="1207"/>
  <unicode hex="0D46"/>
  <outline>
    <contour>
      <point x="591" y="959" type="curve" smooth="yes"/>
      <point x="768" y="959"/>
      <point x="845" y="861"/>
      <point x="845" y="640" type="curve" smooth="yes"/>
      <point x="845" y="421" type="line" smooth="yes"/>
      <point x="845" y="250"/>
      <point x="819" y="99"/>
      <point x="780" y="0" type="curve"/>
      <point x="1080" y="0" type="line"/>
      <point x="1126" y="98"/>
      <point x="1145" y="258"/>
      <point x="1145" y="427" type="curve" smooth="yes"/>
      <point x="1145" y="640" type="line" smooth="yes"/>
      <point x="1145" y="1025"/>
      <point x="966" y="1224"/>
      <point x="602" y="1224" type="curve" smooth="yes"/>
      <point x="236" y="1224"/>
      <point x="59" y="1025"/>
      <point x="59" y="640" type="curve" smooth="yes"/>
      <point x="59" y="329" type="line" smooth="yes"/>
      <point x="59" y="95"/>
      <point x="173" y="-26"/>
      <point x="397" y="-26" type="curve" smooth="yes"/>
      <point x="621" y="-26"/>
      <point x="732" y="95"/>
      <point x="732" y="329" type="curve" smooth="yes"/>
      <point x="732" y="524" type="line" smooth="yes"/>
      <point x="732" y="725"/>
      <point x="669" y="819"/>
      <point x="537" y="819" type="curve" smooth="yes"/>
      <point x="417" y="819"/>
      <point x="357" y="742"/>
      <point x="342" y="587" type="curve"/>
      <point x="339" y="506" type="line"/>
      <point x="348" y="537"/>
      <point x="366" y="556"/>
      <point x="397" y="556" type="curve" smooth="yes"/>
      <point x="432" y="556"/>
      <point x="447" y="532"/>
      <point x="447" y="480" type="curve" smooth="yes"/>
      <point x="447" y="318" type="line" smooth="yes"/>
      <point x="447" y="255"/>
      <point x="433" y="230"/>
      <point x="396" y="230" type="curve" smooth="yes"/>
      <point x="359" y="230"/>
      <point x="342" y="255"/>
      <point x="342" y="318" type="curve" smooth="yes"/>
      <point x="342" y="523" type="line"/>
      <point x="342.601" y="527.917"/>
      <point x="352.467" y="608.641"/>
      <point x="353" y="613" type="curve"/>
      <point x="352.222" y="613"/>
      <point x="337.873" y="613"/>
      <point x="337" y="613" type="curve"/>
      <point x="337" y="633" type="line" smooth="yes"/>
      <point x="337" y="859"/>
      <point x="414" y="959"/>
    </contour>
  </outline>
</glyph>
<glyph name="chilluY.mlm" format="2">
  <advance width="1667"/>
  <unicode hex="0D55"/>
  <outline>
    <contour>
      <point x="495" y="530" type="line" smooth="yes"/>
      <point x="502" y="363"/>
      <point x="535" y="254"/>
      <point x="666" y="173" type="curve"/>
      <point x="767" y="98" type="line"/>
      <point x="813" y="37"/>
      <point x="933" y="-31"/>
      <point x="1119" y="-31" type="curve" smooth="yes"/>
      <point x="1454" y="-31"/>
      <point x="1608" y="134"/>
      <point x="1608" y="484" type="curve" smooth="yes"/>
      <point x="1608" y="664"/>
      <point x="1568" y="931"/>
      <point x="1568" y="1128" type="curve" smooth="yes"/>
      <point x="1568" y="1275"/>
      <point x="1581" y="1402"/>
      <point x="1601" y="1520" type="curve"/>
      <point x="1316" y="1520" type="line"/>
      <point x="1290" y="1402"/>
      <point x="1275" y="1292"/>
      <point x="1275" y="1121" type="curve" smooth="yes"/>
      <point x="1275" y="911"/>
      <point x="1310" y="657"/>
      <point x="1310" y="491" type="curve" smooth="yes"/>
      <point x="1310" y="292"/>
      <point x="1237" y="208"/>
      <point x="1071" y="208" type="curve" smooth="yes"/>
      <point x="1031" y="208"/>
      <point x="997" y="219"/>
      <point x="966" y="239" type="curve"/>
      <point x="868" y="280" type="line"/>
      <point x="796" y="326"/>
      <point x="790" y="409"/>
      <point x="784" y="521" type="curve" smooth="yes"/>
      <point x="769" y="852" type="line" smooth="yes"/>
      <point x="767" y="883"/>
      <point x="768" y="914"/>
      <point x="764" y="942" type="curve"/>
      <point x="718" y="999" type="line"/>
      <point x="702" y="1137"/>
      <point x="597" y="1224"/>
      <point x="416" y="1224" type="curve" smooth="yes"/>
      <point x="188" y="1224"/>
      <point x="64" y="1091"/>
      <point x="64" y="852" type="curve" smooth="yes"/>
      <point x="64" y="513" type="line" smooth="yes"/>
      <point x="64" y="143"/>
      <point x="216" y="-31"/>
      <point x="558" y="-31" type="curve" smooth="yes"/>
      <point x="742" y="-31"/>
      <point x="861" y="37"/>
      <point x="907" y="98" type="curve"/>
      <point x="1005" y="173" type="line"/>
      <point x="1117" y="243"/>
      <point x="1163" y="333"/>
      <point x="1174" y="462" type="curve" smooth="yes"/>
      <point x="1185" y="600"/>
      <point x="1194" y="754"/>
      <point x="1194" y="892" type="curve" smooth="yes"/>
      <point x="1194" y="1118"/>
      <point x="1109" y="1224"/>
      <point x="942" y="1224" type="curve" smooth="yes"/>
      <point x="808" y="1224"/>
      <point x="738" y="1153"/>
      <point x="720" y="1038" type="curve"/>
      <point x="672" y="1038" type="line"/>
      <point x="765" y="911" type="line"/>
      <point x="774" y="942"/>
      <point x="798" y="966"/>
      <point x="837" y="966" type="curve" smooth="yes"/>
      <point x="881" y="966"/>
      <point x="903" y="940"/>
      <point x="903" y="874" type="curve" smooth="yes"/>
      <point x="903" y="745"/>
      <point x="894" y="589"/>
      <point x="885" y="451" type="curve" smooth="yes"/>
      <point x="879" y="374"/>
      <point x="863" y="315"/>
      <point x="806" y="280" type="curve"/>
      <point x="705" y="239" type="line"/>
      <point x="676" y="219"/>
      <point x="644" y="208"/>
      <point x="605" y="208" type="curve" smooth="yes"/>
      <point x="436" y="208"/>
      <point x="362" y="298"/>
      <point x="362" y="510" type="curve" smooth="yes"/>
      <point x="362" y="857" type="line" smooth="yes"/>
      <point x="362" y="931"/>
      <point x="375" y="966"/>
      <point x="421" y="966" type="curve" smooth="yes"/>
      <point x="467" y="966"/>
      <point x="480" y="925"/>
      <point x="482" y="859" type="curve" smooth="yes"/>
    </contour>
  </outline>
</glyph>
<glyph name="chilluZh.mlm" format="2">
  <advance width="1402"/>
  <unicode hex="0D56"/>
  <outline>
    <contour>
      <point x="428" y="1110" type="curve" smooth="yes"/>
      <point x="428" y="922"/>
      <point x="410" y="701"/>
      <point x="382" y="506" type="curve"/>
      <point x="375" y="464"/>
      <point x="369" y="441"/>
      <point x="362" y="399" type="curve" smooth="yes"/>
      <point x="353" y="349"/>
      <point x="343" y="300"/>
      <point x="343" y="250" type="curve" smooth="yes"/>
      <point x="343" y="53"/>
      <point x="455" y="-46"/>
      <point x="685" y="-46" type="curve" smooth="yes"/>
      <point x="915" y="-46"/>
      <point x="1028" y="53"/>
      <point x="1028" y="250" type="curve" smooth="yes"/>
      <point x="1028" y="300"/>
      <point x="1022" y="351"/>
      <point x="1015" y="399" type="curve"/>
      <point x="1004" y="506" type="line" smooth="yes"/>
      <point x="991" y="613"/>
      <point x="987" y="716"/>
      <point x="987" y="817" type="curve" smooth="yes"/>
      <point x="987" y="870" type="line" smooth="yes"/>
      <point x="987" y="936"/>
      <point x="1006" y="966"/>
      <point x="1041" y="966" type="curve" smooth="yes"/>
      <point x="1078" y="966"/>
      <point x="1094" y="936"/>
      <point x="1094" y="870" type="curve" smooth="yes"/>
      <point x="1094" y="822" type="line" smooth="yes"/>
      <point x="1094" y="625"/>
      <point x="989" y="539"/>
      <point x="720" y="539" type="curve" smooth="yes"/>
      <point x="431" y="539"/>
      <point x="325" y="628"/>
      <point x="325" y="832" type="curve" smooth="yes"/>
      <point x="325" y="885" type="line" smooth="yes"/>
      <point x="325" y="1008"/>
      <point x="345" y="1113"/>
      <point x="380" y="1187" type="curve"/>
      <point x="111" y="1187" type="line"/>
      <point x="65" y="1110"/>
      <point x="47" y="1001"/>
      <point x="47" y="881" type="curve" smooth="yes"/>
      <point x="47" y="834" type="line" smooth="yes"/>
      <point x="47" y="484"/>
      <point x="275" y="305"/>
      <point x="711" y="305" type="curve" smooth="yes"/>
      <point x="1136" y="305"/>
      <point x="1359" y="482"/>
      <point x="1359" y="824" type="curve" smooth="yes"/>
      <point x="1359" y="868" type="line" smooth="yes"/>
      <point x="1359" y="1100"/>
      <point x="1251" y="1224"/>
      <point x="1041" y="1224" type="curve" smooth="yes"/>
      <point x="833" y="1224"/>
      <point x="726" y="1100"/>
      <point x="726" y="868" type="curve" smooth="yes"/>
      <point x="726" y="804" type="line" smooth="yes"/>
      <point x="726" y="708"/>
      <point x="733" y="581"/>
      <point x="748" y="467" type="curve"/>
      <point x="754" y="392" type="line" smooth="yes"/>
      <point x="756" y="357"/>
      <point x="755" y="324"/>
      <point x="755" y="291" type="curve" smooth="yes"/>
      <point x="755" y="225"/>
      <point x="735" y="191"/>
      <point x="685" y="191" type="curve" smooth="yes"/>
      <point x="635" y="191"/>
      <point x="616" y="225"/>
      <point x="616" y="291" type="curve" smooth="yes"/>
      <point x="616" y="324"/>
      <point x="619" y="357"/>
      <point x="625" y="392" type="curve"/>
      <point x="629" y="421"/>
      <point x="630" y="438"/>
      <point x="634" y="467" type="curve" smooth="yes"/>
      <point x="662" y="682"/>
      <point x="685" y="883"/>
      <point x="685" y="1102" type="curve" smooth="yes"/>
      <point x="685" y="1280"/>
      <point x="673" y="1397"/>
      <point x="651" y="1520" type="curve"/>
      <point x="393" y="1520" type="line"/>
      <point x="413" y="1397"/>
      <point x="428" y="1265"/>
    </contour>
  </outline>
</glyph>
<glyph name="lengthAu.mlm" format="2">
  <advance width="1243"/>
  <unicode hex="0D57"/>
  <outline>
    <contour>
      <point x="574" y="247" type="curve" smooth="yes"/>
      <point x="475" y="247"/>
      <point x="390" y="256"/>
      <point x="315" y="276" type="curve"/>
      <point x="359" y="9" type="line"/>
      <point x="438" y="-9"/>
      <point x="533" y="-22"/>
      <point x="619" y="-22" type="curve" smooth="yes"/>
      <point x="1002" y="-22"/>
      <point x="1187" y="173"/>
      <point x="1187" y="556" type="curve" smooth="yes"/>
      <point x="1187" y="824" type="line" smooth="yes"/>
      <point x="1187" y="1089"/>
      <point x="1090" y="1224"/>
      <point x="878" y="1224" type="curve" smooth="yes"/>
      <point x="720" y="1224"/>
      <point x="637" y="1144"/>
      <point x="617" y="986" type="curve"/>
      <point x="609" y="986" type="line"/>
      <point x="589" y="1144"/>
      <point x="507" y="1224"/>
      <point x="352" y="1224" type="curve" smooth="yes" name="n00"/>
      <point x="139" y="1224"/>
      <point x="48" y="1089"/>
      <point x="48" y="824" type="curve" smooth="yes"/>
      <point x="48" y="754" type="line" smooth="yes"/>
      <point x="48" y="640"/>
      <point x="59" y="540"/>
      <point x="81" y="466" type="curve"/>
      <point x="368" y="466" type="line"/>
      <point x="353" y="536"/>
      <point x="341" y="633"/>
      <point x="341" y="749" type="curve" smooth="yes"/>
      <point x="341" y="824" type="line" smooth="yes"/>
      <point x="341" y="903"/>
      <point x="355" y="937"/>
      <point x="401" y="937" type="curve" smooth="yes" name="n31"/>
      <point x="443" y="937"/>
      <point x="462" y="903"/>
      <point x="464" y="824" type="curve" smooth="yes"/>
      <point x="475" y="470" type="line" name="n27"/>
      <point x="747" y="470" type="line" name="n26"/>
      <point x="758" y="824" type="line" smooth="yes"/>
      <point x="760" y="903"/>
      <point x="775" y="937"/>
      <point x="821" y="937" type="curve" smooth="yes"/>
      <point x="865" y="937"/>
      <point x="885" y="903"/>
      <point x="885" y="824" type="curve" smooth="yes"/>
      <point x="885" y="554" type="line" smooth="yes"/>
      <point x="885" y="346"/>
      <point x="784" y="247"/>
    </contour>
  </outline>
</glyph>
<glyph name="oneonehundredandsixtieth.mlm" format="2">
  <advance width="1803"/>
  <unicode hex="0D58"/>
  <outline>
    <contour>
      <point x="524" y="443" type="line"/>
      <point x="826" y="443" type="line"/>
      <point x="826" y="1183" type="line"/>
      <point x="524" y="1183" type="line"/>
    </contour>
    <contour>
      <point x="673" y="217" type="curve"/>
      <point x="712" y="558" type="line"/>
      <point x="524" y="546" type="line"/>
      <point x="524" y="388" type="line" smooth="yes"/>
      <point x="524" y="298"/>
      <point x="502" y="261"/>
      <point x="445" y="261" type="curve" smooth="yes"/>
      <point x="388" y="261"/>
      <point x="366" y="298"/>
      <point x="366" y="388" type="curve" smooth="yes"/>
      <point x="366" y="765" type="line" smooth="yes"/>
      <point x="366" y="936"/>
      <point x="388" y="1088"/>
      <point x="423" y="1187" type="curve"/>
      <point x="129" y="1187" type="line"/>
      <point x="81" y="1077"/>
      <point x="64" y="929"/>
      <point x="64" y="760" type="curve" smooth="yes"/>
      <point x="64" y="390" type="line" smooth="yes"/>
      <point x="64" y="108"/>
      <point x="166" y="-26"/>
      <point x="390" y="-26" type="curve" smooth="yes"/>
      <point x="561" y="-26"/>
      <point x="658" y="53"/>
    </contour>
    <contour>
      <point x="902" y="-26" type="curve" smooth="yes"/>
      <point x="1029" y="-26"/>
      <point x="1111" y="55"/>
      <point x="1122" y="217" type="curve"/>
      <point x="1229" y="217" type="line"/>
      <point x="1244" y="521" type="line"/>
      <point x="977" y="550" type="line"/>
      <point x="977" y="383" type="line" smooth="yes"/>
      <point x="977" y="298"/>
      <point x="954" y="261"/>
      <point x="902" y="261" type="curve" smooth="yes"/>
      <point x="850" y="261"/>
      <point x="826" y="298"/>
      <point x="826" y="383" type="curve" smooth="yes"/>
      <point x="826" y="550" type="line"/>
      <point x="559" y="521" type="line"/>
      <point x="574" y="217" type="line"/>
      <point x="681" y="217" type="line"/>
      <point x="692" y="55"/>
      <point x="775" y="-26"/>
    </contour>
    <contour>
      <point x="1279" y="443" type="line"/>
      <point x="1279" y="1183" type="line"/>
      <point x="977" y="1183" type="line"/>
      <point x="977" y="443" type="line"/>
    </contour>
    <contour>
      <point x="1437" y="388" type="line" smooth="yes"/>
      <point x="1437" y="298"/>
      <point x="1415" y="261"/>
      <point x="1358" y="261" type="curve" smooth="yes"/>
      <point x="1301" y="261"/>
      <point x="1279" y="298"/>
      <point x="1279" y="388" type="curve" smooth="yes"/>
      <point x="1279" y="546" type="line"/>
      <point x="1117" y="546" type="line"/>
      <point x="1130" y="217" type="line"/>
      <point x="1145" y="53"/>
      <point x="1244" y="-26"/>
      <point x="1408" y="-26" type="curve" smooth="yes"/>
      <point x="1629" y="-26"/>
      <point x="1739" y="103"/>
      <point x="1739" y="368" type="curve" smooth="yes"/>
      <point x="1739" y="854" type="line" smooth="yes"/>
      <point x="1739" y="1338"/>
      <point x="1493" y="1593"/>
      <point x="1018" y="1593" type="curve" smooth="yes"/>
      <point x="856" y="1593"/>
      <point x="709" y="1577"/>
      <point x="565" y="1538" type="curve"/>
      <point x="517" y="1286" type="line"/>
      <point x="648" y="1317"/>
      <point x="797" y="1338"/>
      <point x="966" y="1338" type="curve" smooth="yes"/>
      <point x="1301" y="1338"/>
      <point x="1437" y="1189"/>
      <point x="1437" y="854" type="curve" smooth="yes"/>
    </contour>
  </outline>
</glyph>
<glyph name="threetwentieths.mlm" format="2">
  <advance width="2773"/>
  <unicode hex="0D5D"/>
  <outline>
    <contour>
      <point x="229" y="443" type="line"/>
      <point x="530" y="443" type="line"/>
      <point x="530" y="1183" type="line"/>
      <point x="229" y="1183" type="line"/>
    </contour>
    <contour>
      <point x="151" y="-26" type="curve" smooth="yes"/>
      <point x="280" y="-26"/>
      <point x="365" y="55"/>
      <point x="376" y="217" type="curve"/>
      <point x="481" y="217" type="line"/>
      <point x="495" y="521" type="line"/>
      <point x="229" y="550" type="line"/>
      <point x="229" y="383" type="line" smooth="yes"/>
      <point x="229" y="287"/>
      <point x="190" y="245"/>
      <point x="102" y="245" type="curve" smooth="yes"/>
      <point x="71" y="245"/>
      <point x="39" y="248"/>
      <point x="10" y="254" type="curve"/>
      <point x="57" y="-13" type="line"/>
      <point x="88" y="-22"/>
      <point x="120" y="-26"/>
    </contour>
    <contour>
      <point x="1036" y="1224" type="curve" smooth="yes"/>
      <point x="784" y="1224"/>
      <point x="659" y="1093"/>
      <point x="659" y="826" type="curve" smooth="yes"/>
      <point x="659" y="662"/>
      <point x="678" y="528"/>
      <point x="678" y="366" type="curve" smooth="yes"/>
      <point x="678" y="281"/>
      <point x="656" y="248"/>
      <point x="604" y="248" type="curve" smooth="yes"/>
      <point x="552" y="248"/>
      <point x="530" y="283"/>
      <point x="530" y="366" type="curve" smooth="yes"/>
      <point x="530" y="550" type="line"/>
      <point x="368" y="489" type="line"/>
      <point x="383" y="217" type="line" smooth="yes"/>
      <point x="394" y="55"/>
      <point x="504" y="-26"/>
      <point x="659" y="-26" type="curve" smooth="yes"/>
      <point x="876" y="-26"/>
      <point x="979" y="100"/>
      <point x="979" y="370" type="curve" smooth="yes"/>
      <point x="979" y="534"/>
      <point x="961" y="668"/>
      <point x="961" y="830" type="curve" smooth="yes"/>
      <point x="961" y="915"/>
      <point x="983" y="948"/>
      <point x="1036" y="948" type="curve" smooth="yes"/>
      <point x="1089" y="948"/>
      <point x="1112" y="915"/>
      <point x="1112" y="830" type="curve" smooth="yes"/>
      <point x="1112" y="668"/>
      <point x="1093" y="534"/>
      <point x="1093" y="370" type="curve" smooth="yes"/>
      <point x="1093" y="103"/>
      <point x="1219" y="-28"/>
      <point x="1469" y="-28" type="curve" smooth="yes"/>
      <point x="1719" y="-28"/>
      <point x="1844" y="103"/>
      <point x="1844" y="370" type="curve" smooth="yes"/>
      <point x="1844" y="534"/>
      <point x="1826" y="668"/>
      <point x="1826" y="830" type="curve" smooth="yes"/>
      <point x="1826" y="915"/>
      <point x="1848" y="948"/>
      <point x="1901" y="948" type="curve" smooth="yes"/>
      <point x="1954" y="948"/>
      <point x="1977" y="915"/>
      <point x="1977" y="830" type="curve" smooth="yes"/>
      <point x="1977" y="668"/>
      <point x="1958" y="534"/>
      <point x="1958" y="370" type="curve" smooth="yes"/>
      <point x="1958" y="103"/>
      <point x="2082" y="-28"/>
      <point x="2334" y="-28" type="curve" smooth="yes"/>
      <point x="2586" y="-28"/>
      <point x="2709" y="103"/>
      <point x="2709" y="370" type="curve" smooth="yes"/>
      <point x="2709" y="760" type="line" smooth="yes"/>
      <point x="2709" y="929"/>
      <point x="2692" y="1077"/>
      <point x="2644" y="1187" type="curve"/>
      <point x="2350" y="1187" type="line"/>
      <point x="2385" y="1088"/>
      <point x="2407" y="936"/>
      <point x="2407" y="765" type="curve" smooth="yes"/>
      <point x="2407" y="366" type="line" smooth="yes"/>
      <point x="2407" y="281"/>
      <point x="2387" y="248"/>
      <point x="2334" y="248" type="curve" smooth="yes"/>
      <point x="2281" y="248"/>
      <point x="2260" y="281"/>
      <point x="2260" y="366" type="curve" smooth="yes"/>
      <point x="2260" y="528"/>
      <point x="2278" y="662"/>
      <point x="2278" y="826" type="curve" smooth="yes"/>
      <point x="2278" y="1093"/>
      <point x="2153" y="1224"/>
      <point x="1901" y="1224" type="curve" smooth="yes"/>
      <point x="1649" y="1224"/>
      <point x="1524" y="1093"/>
      <point x="1524" y="826" type="curve" smooth="yes"/>
      <point x="1524" y="662"/>
      <point x="1542" y="528"/>
      <point x="1542" y="366" type="curve" smooth="yes"/>
      <point x="1542" y="281"/>
      <point x="1521" y="248"/>
      <point x="1469" y="248" type="curve" smooth="yes"/>
      <point x="1417" y="248"/>
      <point x="1395" y="281"/>
      <point x="1395" y="366" type="curve" smooth="yes"/>
      <point x="1395" y="528"/>
      <point x="1414" y="662"/>
      <point x="1414" y="826" type="curve" smooth="yes"/>
      <point x="1414" y="1093"/>
      <point x="1288" y="1224"/>
    </contour>
  </outline>
</glyph>
<glyph name="uni0D62" format="2">
  <unicode hex="0D62"/>
  <outline>
    <contour>
      <point x="-744" y="-498" type="line"/>
      <point x="-547" y="-498" type="line"/>
      <point x="-547" y="-167" type="line"/>
      <point x="-744" y="-212" type="line"/>
    </contour>
    <contour>
      <point x="-931" y="105" type="curve" smooth="yes"/>
      <point x="-1169" y="105"/>
      <point x="-1296" y="-10"/>
      <point x="-1296" y="-231" type="curve" smooth="yes"/>
      <point x="-1296" y="-302" type="line" smooth="yes"/>
      <point x="-1296" y="-444"/>
      <point x="-1214" y="-515"/>
      <point x="-1059" y="-515" type="curve" smooth="yes"/>
      <point x="-903" y="-515"/>
      <point x="-822" y="-447"/>
      <point x="-822" y="-318" type="curve" smooth="yes"/>
      <point x="-822" y="-283" type="line" smooth="yes"/>
      <point x="-822" y="-168"/>
      <point x="-874" y="-109"/>
      <point x="-970" y="-109" type="curve" smooth="yes"/>
      <point x="-1048" y="-109"/>
      <point x="-1095" y="-149"/>
      <point x="-1108" y="-228" type="curve"/>
      <point x="-1108" y="-287" type="line"/>
      <point x="-1102" y="-269"/>
      <point x="-1084" y="-254"/>
      <point x="-1057" y="-254" type="curve" smooth="yes"/>
      <point x="-1026" y="-254"/>
      <point x="-1011" y="-271"/>
      <point x="-1011" y="-307" type="curve" smooth="yes"/>
      <point x="-1011" y="-317" type="line" smooth="yes"/>
      <point x="-1011" y="-350"/>
      <point x="-1027" y="-368"/>
      <point x="-1058" y="-368" type="curve" smooth="yes"/>
      <point x="-1091" y="-368"/>
      <point x="-1106" y="-349"/>
      <point x="-1106" y="-315" type="curve" smooth="yes"/>
      <point x="-1106" y="-243" type="line"/>
      <point x="-1097" y="-215" type="line"/>
      <point x="-1112" y="-215" type="line"/>
      <point x="-1112" y="-110"/>
      <point x="-1047" y="-52"/>
      <point x="-928" y="-52" type="curve" smooth="yes"/>
      <point x="-804" y="-52"/>
      <point x="-744" y="-102"/>
      <point x="-744" y="-206" type="curve" smooth="yes"/>
      <point x="-744" y="-226" type="line"/>
      <point x="-608" y="-254" type="line"/>
      <point x="-649" y="-38" type="line"/>
      <point x="-680" y="59"/>
      <point x="-781" y="105"/>
    </contour>
    <contour>
      <point x="-359" y="105" type="curve" smooth="yes"/>
      <point x="-510" y="105"/>
      <point x="-612" y="59"/>
      <point x="-644" y="-38" type="curve"/>
      <point x="-671" y="-38" type="line"/>
      <point x="-683" y="-255" type="line"/>
      <point x="-547" y="-226" type="line"/>
      <point x="-547" y="-206" type="line" smooth="yes"/>
      <point x="-547" y="-102"/>
      <point x="-487" y="-52"/>
      <point x="-363" y="-52" type="curve" smooth="yes"/>
      <point x="-244" y="-52"/>
      <point x="-179" y="-110"/>
      <point x="-179" y="-215" type="curve"/>
      <point x="-194" y="-215" type="line"/>
      <point x="-185" y="-243" type="line"/>
      <point x="-185" y="-315" type="line" smooth="yes"/>
      <point x="-185" y="-349"/>
      <point x="-200" y="-368"/>
      <point x="-233" y="-368" type="curve" smooth="yes"/>
      <point x="-264" y="-368"/>
      <point x="-280" y="-350"/>
      <point x="-280" y="-317" type="curve" smooth="yes"/>
      <point x="-280" y="-307" type="line" smooth="yes"/>
      <point x="-280" y="-271"/>
      <point x="-265" y="-254"/>
      <point x="-234" y="-254" type="curve" smooth="yes"/>
      <point x="-207" y="-254"/>
      <point x="-189" y="-269"/>
      <point x="-183" y="-287" type="curve"/>
      <point x="-183" y="-228" type="line"/>
      <point x="-196" y="-149"/>
      <point x="-242" y="-109"/>
      <point x="-318" y="-109" type="curve" smooth="yes"/>
      <point x="-416" y="-109"/>
      <point x="-469" y="-169"/>
      <point x="-469" y="-287" type="curve" smooth="yes"/>
      <point x="-469" y="-322" type="line" smooth="yes"/>
      <point x="-469" y="-448"/>
      <point x="-389" y="-515"/>
      <point x="-236" y="-515" type="curve" smooth="yes"/>
      <point x="-78" y="-515"/>
      <point x="5" y="-443"/>
      <point x="5" y="-299" type="curve" smooth="yes"/>
      <point x="5" y="-231" type="line" smooth="yes"/>
      <point x="5" y="-10"/>
      <point x="-122" y="105"/>
    </contour>
  </outline>
</glyph>
<glyph name="four.mlm" format="2">
  <advance width="1227"/>
  <unicode hex="0D6A"/>
  <outline>
    <contour>
      <point x="480" y="556" type="curve" smooth="yes"/>
      <point x="480" y="326" type="line" smooth="yes"/>
      <point x="480" y="94"/>
      <point x="592" y="-28"/>
      <point x="821" y="-28" type="curve" smooth="yes"/>
      <point x="1052" y="-28"/>
      <point x="1169" y="94"/>
      <point x="1169" y="326" type="curve" smooth="yes"/>
      <point x="1169" y="638" type="line" smooth="yes"/>
      <point x="1169" y="835"/>
      <point x="1120" y="983"/>
      <point x="1018" y="1082" type="curve"/>
      <point x="922" y="1150" type="line"/>
      <point x="839" y="1198"/>
      <point x="743" y="1224"/>
      <point x="620" y="1224" type="curve" smooth="yes"/>
      <point x="248" y="1224"/>
      <point x="62" y="1025"/>
      <point x="62" y="638" type="curve" smooth="yes"/>
      <point x="62" y="427" type="line" smooth="yes"/>
      <point x="62" y="258"/>
      <point x="80" y="98"/>
      <point x="126" y="0" type="curve"/>
      <point x="427" y="0" type="line"/>
      <point x="388" y="99"/>
      <point x="362" y="250"/>
      <point x="362" y="421" type="curve" smooth="yes"/>
      <point x="362" y="638" type="line" smooth="yes"/>
      <point x="362" y="868"/>
      <point x="442" y="968"/>
      <point x="620" y="968" type="curve" smooth="yes"/>
      <point x="670" y="968"/>
      <point x="712" y="960"/>
      <point x="747" y="944" type="curve"/>
      <point x="826" y="878" type="line"/>
      <point x="863" y="822"/>
      <point x="880" y="745"/>
      <point x="880" y="638" type="curve" smooth="yes"/>
      <point x="880" y="315" type="line" smooth="yes"/>
      <point x="880" y="254"/>
      <point x="863" y="228"/>
      <point x="824" y="228" type="curve" smooth="yes"/>
      <point x="786" y="228"/>
      <point x="769" y="254"/>
      <point x="769" y="315" type="curve" smooth="yes"/>
      <point x="769" y="559" type="line" smooth="yes"/>
      <point x="769" y="723"/>
      <point x="799" y="813"/>
      <point x="918" y="881" type="curve"/>
      <point x="984" y="960" type="line"/>
      <point x="1106" y="1054"/>
      <point x="1161" y="1167"/>
      <point x="1161" y="1301" type="curve" smooth="yes"/>
      <point x="1161" y="1397"/>
      <point x="1141" y="1455"/>
      <point x="1115" y="1520" type="curve"/>
      <point x="850" y="1520" type="line"/>
      <point x="880" y="1454"/>
      <point x="894" y="1384"/>
      <point x="894" y="1306" type="curve" smooth="yes"/>
      <point x="894" y="1233"/>
      <point x="870" y="1144"/>
      <point x="806" y="1087" type="curve"/>
      <point x="747" y="1010" type="line"/>
      <point x="552" y="924"/>
      <point x="480" y="811"/>
    </contour>
  </outline>
</glyph>
<glyph name="eight.mlm" format="2">
  <advance width="1361"/>
  <unicode hex="0D6E"/>
  <outline>
    <contour>
      <point x="1245" y="239" type="line"/>
      <point x="760" y="239" type="line"/>
      <point x="517" y="0" type="line"/>
      <point x="1245" y="0" type="line"/>
    </contour>
    <contour>
      <point x="985" y="118" type="line"/>
      <point x="994" y="33" type="line"/>
      <point x="994" y="-94"/>
      <point x="935" y="-153"/>
      <point x="742" y="-153" type="curve" smooth="yes"/>
      <point x="665" y="-153"/>
      <point x="599" y="-142"/>
      <point x="536" y="-125" type="curve"/>
      <point x="583" y="-366" type="line"/>
      <point x="657" y="-388"/>
      <point x="733" y="-397"/>
      <point x="812" y="-397" type="curve" smooth="yes"/>
      <point x="1147" y="-397"/>
      <point x="1287" y="-256"/>
      <point x="1287" y="48" type="curve" smooth="yes"/>
      <point x="1287" y="1189" type="line"/>
      <point x="985" y="1189" type="line"/>
    </contour>
    <contour>
      <point x="463" y="948" type="curve" smooth="yes"/>
      <point x="532" y="948"/>
      <point x="560" y="900"/>
      <point x="560" y="792" type="curve" smooth="yes"/>
      <point x="560" y="416" type="line" smooth="yes"/>
      <point x="560" y="254"/>
      <point x="543" y="111"/>
      <point x="515" y="13" type="curve"/>
      <point x="515" y="0" type="line"/>
      <point x="755" y="0" type="line"/>
      <point x="830" y="101"/>
      <point x="862" y="265"/>
      <point x="862" y="440" type="curve" smooth="yes"/>
      <point x="862" y="788" type="line" smooth="yes"/>
      <point x="862" y="1076"/>
      <point x="729" y="1224"/>
      <point x="463" y="1224" type="curve" smooth="yes"/>
      <point x="197" y="1224"/>
      <point x="64" y="1076"/>
      <point x="64" y="788" type="curve" smooth="yes"/>
      <point x="64" y="403" type="line" smooth="yes"/>
      <point x="64" y="243"/>
      <point x="78" y="92"/>
      <point x="109" y="0" type="curve"/>
      <point x="407" y="0" type="line"/>
      <point x="383" y="98"/>
      <point x="366" y="247"/>
      <point x="366" y="416" type="curve" smooth="yes"/>
      <point x="366" y="792" type="line" smooth="yes"/>
      <point x="366" y="900"/>
      <point x="394" y="948"/>
    </contour>
  </outline>
</glyph>
<glyph name="nine.mlm" format="2">
  <advance width="1692"/>
  <unicode hex="0D6F"/>
  <outline>
    <contour>
      <point x="532" y="677" type="line"/>
      <point x="532" y="4" type="line"/>
      <point x="834" y="4" type="line"/>
      <point x="834" y="782" type="line"/>
    </contour>
    <contour>
      <point x="449" y="937" type="curve" smooth="yes"/>
      <point x="508" y="937"/>
      <point x="532" y="896"/>
      <point x="532" y="808" type="curve" smooth="yes"/>
      <point x="532" y="640" type="line"/>
      <point x="694" y="640" type="line"/>
      <point x="684" y="968" type="line"/>
      <point x="664" y="1152"/>
      <point x="556" y="1224"/>
      <point x="392" y="1224" type="curve" smooth="yes"/>
      <point x="168" y="1224"/>
      <point x="64" y="1084"/>
      <point x="64" y="804" type="curve" smooth="yes"/>
      <point x="64" y="427" type="line" smooth="yes"/>
      <point x="64" y="258"/>
      <point x="81" y="98"/>
      <point x="125" y="0" type="curve"/>
      <point x="423" y="0" type="line"/>
      <point x="388" y="99"/>
      <point x="366" y="250"/>
      <point x="366" y="421" type="curve" smooth="yes"/>
      <point x="366" y="806" type="line" smooth="yes"/>
      <point x="366" y="896"/>
      <point x="390" y="937"/>
    </contour>
    <contour>
      <point x="1076" y="968" type="curve" smooth="yes"/>
      <point x="1124" y="968"/>
      <point x="1180" y="961"/>
      <point x="1213" y="944" type="curve"/>
      <point x="1292" y="878" type="line"/>
      <point x="1329" y="823"/>
      <point x="1345" y="745"/>
      <point x="1345" y="638" type="curve" smooth="yes"/>
      <point x="1345" y="315" type="line" smooth="yes"/>
      <point x="1345" y="254"/>
      <point x="1329" y="228"/>
      <point x="1290" y="228" type="curve" smooth="yes"/>
      <point x="1251" y="228"/>
      <point x="1235" y="254"/>
      <point x="1235" y="315" type="curve" smooth="yes"/>
      <point x="1235" y="559" type="line" smooth="yes"/>
      <point x="1235" y="723"/>
      <point x="1264" y="813"/>
      <point x="1384" y="881" type="curve"/>
      <point x="1450" y="960" type="line"/>
      <point x="1571" y="1054"/>
      <point x="1627" y="1167"/>
      <point x="1627" y="1301" type="curve" smooth="yes"/>
      <point x="1627" y="1397"/>
      <point x="1607" y="1456"/>
      <point x="1581" y="1520" type="curve"/>
      <point x="1316" y="1520" type="line"/>
      <point x="1345" y="1454"/>
      <point x="1360" y="1383"/>
      <point x="1360" y="1306" type="curve" smooth="yes"/>
      <point x="1360" y="1232"/>
      <point x="1335" y="1144"/>
      <point x="1271" y="1087" type="curve"/>
      <point x="1213" y="1010" type="line"/>
      <point x="1018" y="924"/>
      <point x="946" y="812"/>
      <point x="946" y="556" type="curve" smooth="yes"/>
      <point x="946" y="326" type="line" smooth="yes"/>
      <point x="946" y="94"/>
      <point x="1058" y="-28"/>
      <point x="1286" y="-28" type="curve" smooth="yes"/>
      <point x="1516" y="-28"/>
      <point x="1634" y="94"/>
      <point x="1634" y="326" type="curve" smooth="yes"/>
      <point x="1634" y="638" type="line" smooth="yes"/>
      <point x="1634" y="835"/>
      <point x="1584" y="983"/>
      <point x="1483" y="1082" type="curve"/>
      <point x="1387" y="1152" type="line"/>
      <point x="1304" y="1200"/>
      <point x="1209" y="1224"/>
      <point x="1089" y="1224" type="curve" smooth="yes"/>
      <point x="865" y="1224"/>
      <point x="732" y="1139"/>
      <point x="692" y="968" type="curve"/>
      <point x="624" y="968" type="line"/>
      <point x="655" y="598" type="line"/>
      <point x="834" y="598" type="line"/>
      <point x="834" y="712" type="line" smooth="yes"/>
      <point x="834" y="887"/>
      <point x="910" y="968"/>
    </contour>
  </outline>
</glyph>
<glyph name="onethousand.mlm" format="2">
  <advance width="2339"/>
  <unicode hex="0D72"/>
  <outline>
    <component base="date.mlm"/>
    <contour>
      <point x="1934" y="753" type="line"/>
      <point x="1934" y="900" type="line" smooth="yes"/>
      <point x="1934" y="952"/>
      <point x="1949" y="972"/>
      <point x="1982" y="972" type="curve" smooth="yes"/>
      <point x="2015" y="972"/>
      <point x="2030" y="952"/>
      <point x="2030" y="900" type="curve" smooth="yes"/>
      <point x="2030" y="845" type="line" smooth="yes"/>
      <point x="2030" y="797"/>
      <point x="2009" y="776"/>
      <point x="1965" y="776" type="curve" smooth="yes"/>
      <point x="1581" y="776" type="line"/>
      <point x="1582" y="537" type="line"/>
      <point x="1974" y="537" type="line" smooth="yes"/>
      <point x="2198" y="537"/>
      <point x="2302" y="635"/>
      <point x="2302" y="845" type="curve" smooth="yes"/>
      <point x="2302" y="880" type="line" smooth="yes"/>
      <point x="2302" y="1101"/>
      <point x="2197" y="1216"/>
      <point x="1984" y="1216" type="curve" smooth="yes"/>
      <point x="1778" y="1216"/>
      <point x="1673" y="1107"/>
      <point x="1673" y="903" type="curve" smooth="yes"/>
      <point x="1673" y="745" type="line"/>
    </contour>
  </outline>
</glyph>
<glyph name="onequarter.mlm" format="2">
  <advance width="926"/>
  <unicode hex="0D73"/>
  <outline>
    <contour>
      <point x="339" y="488" type="line"/>
      <point x="348" y="519"/>
      <point x="366" y="537"/>
      <point x="397" y="537" type="curve" smooth="yes"/>
      <point x="432" y="537"/>
      <point x="447" y="513"/>
      <point x="447" y="462" type="curve" smooth="yes"/>
      <point x="447" y="316" type="line" smooth="yes"/>
      <point x="447" y="256"/>
      <point x="431" y="230"/>
      <point x="394" y="230" type="curve" smooth="yes"/>
      <point x="357" y="230"/>
      <point x="342" y="256"/>
      <point x="342" y="316" type="curve" smooth="yes"/>
      <point x="342" y="504" type="line"/>
      <point x="353" y="594" type="line"/>
      <point x="337" y="594" type="line"/>
      <point x="337" y="620" type="line" smooth="yes"/>
      <point x="337" y="828"/>
      <point x="427" y="922"/>
      <point x="624" y="922" type="curve" smooth="yes"/>
      <point x="898" y="922" type="line"/>
      <point x="870" y="1168" type="line"/>
      <point x="615" y="1168" type="line" smooth="yes"/>
      <point x="243" y="1168"/>
      <point x="59" y="983"/>
      <point x="59" y="627" type="curve" smooth="yes"/>
      <point x="59" y="328" type="line" smooth="yes"/>
      <point x="59" y="96"/>
      <point x="173" y="-26"/>
      <point x="397" y="-26" type="curve" smooth="yes"/>
      <point x="622" y="-26"/>
      <point x="732" y="96"/>
      <point x="732" y="328" type="curve" smooth="yes"/>
      <point x="732" y="506" type="line" smooth="yes"/>
      <point x="732" y="707"/>
      <point x="670" y="800"/>
      <point x="537" y="800" type="curve" smooth="yes"/>
      <point x="418" y="800"/>
      <point x="357" y="723"/>
      <point x="342" y="569" type="curve"/>
    </contour>
  </outline>
</glyph>
<glyph name="onehalf.mlm" format="2">
  <advance width="1541"/>
  <unicode hex="0D74"/>
  <outline>
    <contour>
      <point x="1135" y="-28" type="curve" smooth="yes"/>
      <point x="1365" y="-28"/>
      <point x="1483" y="94"/>
      <point x="1483" y="326" type="curve" smooth="yes"/>
      <point x="1483" y="607" type="line" smooth="yes"/>
      <point x="1483" y="888"/>
      <point x="1370" y="1072"/>
      <point x="1144" y="1161" type="curve" smooth="yes"/>
      <point x="1109" y="1175"/>
      <point x="1072" y="1186"/>
      <point x="1032" y="1195" type="curve" smooth="yes"/>
      <point x="953" y="1213"/>
      <point x="865" y="1224"/>
      <point x="765" y="1224" type="curve" smooth="yes"/>
      <point x="294" y="1224"/>
      <point x="59" y="1016"/>
      <point x="59" y="607" type="curve" smooth="yes"/>
      <point x="59" y="328" type="line" smooth="yes"/>
      <point x="59" y="96"/>
      <point x="173" y="-26"/>
      <point x="397" y="-26" type="curve" smooth="yes"/>
      <point x="622" y="-26"/>
      <point x="732" y="96"/>
      <point x="732" y="328" type="curve" smooth="yes"/>
      <point x="732" y="524" type="line" smooth="yes"/>
      <point x="732" y="725"/>
      <point x="670" y="819"/>
      <point x="537" y="819" type="curve" smooth="yes"/>
      <point x="418" y="819"/>
      <point x="357" y="742"/>
      <point x="342" y="587" type="curve"/>
      <point x="339" y="506" type="line"/>
      <point x="348" y="537"/>
      <point x="366" y="556"/>
      <point x="397" y="556" type="curve" smooth="yes"/>
      <point x="432" y="556"/>
      <point x="447" y="532"/>
      <point x="447" y="480" type="curve" smooth="yes"/>
      <point x="447" y="316" type="line" smooth="yes"/>
      <point x="447" y="256"/>
      <point x="431" y="230"/>
      <point x="394" y="230" type="curve" smooth="yes"/>
      <point x="357" y="230"/>
      <point x="342" y="256"/>
      <point x="342" y="316" type="curve" smooth="yes"/>
      <point x="342" y="523" type="line"/>
      <point x="353" y="613" type="line"/>
      <point x="337" y="613" type="line"/>
      <point x="337" y="618" type="line" smooth="yes"/>
      <point x="337" y="856"/>
      <point x="469" y="959"/>
      <point x="765" y="959" type="curve" smooth="yes"/>
      <point x="848" y="959"/>
      <point x="918" y="949"/>
      <point x="975" y="935" type="curve"/>
      <point x="984" y="931"/>
      <point x="1097" y="887"/>
      <point x="1106" y="883" type="curve"/>
      <point x="1168" y="830"/>
      <point x="1194" y="740"/>
      <point x="1194" y="618" type="curve" smooth="yes"/>
      <point x="1194" y="315" type="line" smooth="yes"/>
      <point x="1194" y="254"/>
      <point x="1178" y="228"/>
      <point x="1139" y="228" type="curve" smooth="yes"/>
      <point x="1100" y="228"/>
      <point x="1084" y="254"/>
      <point x="1084" y="315" type="curve" smooth="yes"/>
      <point x="1084" y="578" type="line" smooth="yes"/>
      <point x="1084" y="723"/>
      <point x="1100" y="835"/>
      <point x="1142" y="937" type="curve"/>
      <point x="1151" y="962"/>
      <point x="1189" y="1076"/>
      <point x="1197" y="1102" type="curve" smooth="yes"/>
      <point x="1214" y="1161"/>
      <point x="1221" y="1218"/>
      <point x="1221" y="1282" type="curve" smooth="yes"/>
      <point x="1221" y="1389"/>
      <point x="1199" y="1457"/>
      <point x="1170" y="1529" type="curve"/>
      <point x="905" y="1529" type="line"/>
      <point x="941" y="1450"/>
      <point x="960" y="1365"/>
      <point x="960" y="1273" type="curve" smooth="yes"/>
      <point x="960" y="1224"/>
      <point x="955" y="1185"/>
      <point x="945" y="1143" type="curve"/>
      <point x="939" y="1122"/>
      <point x="917" y="1040"/>
      <point x="912" y="1019" type="curve"/>
      <point x="836" y="900"/>
      <point x="795" y="791"/>
      <point x="795" y="574" type="curve" smooth="yes"/>
      <point x="795" y="326" type="line" smooth="yes"/>
      <point x="795" y="94"/>
      <point x="907" y="-28"/>
    </contour>
  </outline>
</glyph>
<glyph name="threequarters.mlm" format="2">
  <advance width="1992"/>
  <unicode hex="0D75"/>
  <outline>
    <contour>
      <point x="570" y="1224" type="curve" smooth="yes"/>
      <point x="226" y="1224"/>
      <point x="59" y="1027"/>
      <point x="59" y="648" type="curve" smooth="yes"/>
      <point x="59" y="329" type="line" smooth="yes"/>
      <point x="59" y="95"/>
      <point x="173" y="-26"/>
      <point x="397" y="-26" type="curve" smooth="yes"/>
      <point x="621" y="-26"/>
      <point x="732" y="95"/>
      <point x="732" y="329" type="curve" smooth="yes"/>
      <point x="732" y="524" type="line" smooth="yes"/>
      <point x="732" y="725"/>
      <point x="669" y="819"/>
      <point x="537" y="819" type="curve" smooth="yes"/>
      <point x="417" y="819"/>
      <point x="357" y="742"/>
      <point x="342" y="587" type="curve"/>
      <point x="339" y="506" type="line"/>
      <point x="348" y="537"/>
      <point x="366" y="556"/>
      <point x="397" y="556" type="curve" smooth="yes"/>
      <point x="432" y="556"/>
      <point x="447" y="532"/>
      <point x="447" y="480" type="curve" smooth="yes"/>
      <point x="447" y="318" type="line" smooth="yes"/>
      <point x="447" y="255"/>
      <point x="433" y="230"/>
      <point x="396" y="230" type="curve" smooth="yes"/>
      <point x="359" y="230"/>
      <point x="342" y="255"/>
      <point x="342" y="318" type="curve" smooth="yes"/>
      <point x="342" y="523" type="line"/>
      <point x="353" y="613" type="line"/>
      <point x="337" y="613" type="line"/>
      <point x="337" y="640" type="line" smooth="yes"/>
      <point x="337" y="863"/>
      <point x="416" y="959"/>
      <point x="591" y="959" type="curve" smooth="yes"/>
      <point x="757" y="959"/>
      <point x="832" y="881"/>
      <point x="832" y="712" type="curve" smooth="yes"/>
      <point x="832" y="598" type="line"/>
      <point x="973" y="598" type="line"/>
      <point x="979" y="951" type="line"/>
      <point x="942" y="1133"/>
      <point x="804" y="1224"/>
    </contour>
    <contour>
      <point x="832" y="4" type="line"/>
      <point x="1133" y="4" type="line"/>
      <point x="1133" y="753" type="line"/>
      <point x="832" y="688" type="line"/>
    </contour>
    <contour>
      <point x="1373" y="968" type="curve" smooth="yes"/>
      <point x="1424" y="968"/>
      <point x="1479" y="959"/>
      <point x="1514" y="940" type="curve"/>
      <point x="1557" y="922" type="line"/>
      <point x="1628" y="867"/>
      <point x="1645" y="769"/>
      <point x="1645" y="638" type="curve" smooth="yes"/>
      <point x="1645" y="315" type="line" smooth="yes"/>
      <point x="1645" y="254"/>
      <point x="1628" y="228"/>
      <point x="1590" y="228" type="curve" smooth="yes"/>
      <point x="1551" y="228"/>
      <point x="1535" y="254"/>
      <point x="1535" y="315" type="curve" smooth="yes"/>
      <point x="1535" y="578" type="line" smooth="yes"/>
      <point x="1535" y="723"/>
      <point x="1551" y="835"/>
      <point x="1592" y="937" type="curve"/>
      <point x="1598" y="962"/>
      <point x="1626" y="1076"/>
      <point x="1631" y="1102" type="curve"/>
      <point x="1648" y="1161"/>
      <point x="1655" y="1218"/>
      <point x="1655" y="1282" type="curve" smooth="yes"/>
      <point x="1655" y="1389"/>
      <point x="1633" y="1457"/>
      <point x="1604" y="1529" type="curve"/>
      <point x="1340" y="1529" type="line"/>
      <point x="1376" y="1450"/>
      <point x="1394" y="1365"/>
      <point x="1394" y="1273" type="curve" smooth="yes"/>
      <point x="1394" y="1224"/>
      <point x="1389" y="1185"/>
      <point x="1379" y="1143" type="curve"/>
      <point x="1377" y="1122"/>
      <point x="1366" y="1043"/>
      <point x="1362" y="1019" type="curve"/>
      <point x="1286" y="900"/>
      <point x="1246" y="791"/>
      <point x="1246" y="574" type="curve" smooth="yes"/>
      <point x="1246" y="326" type="line" smooth="yes"/>
      <point x="1246" y="94"/>
      <point x="1358" y="-28"/>
      <point x="1586" y="-28" type="curve" smooth="yes"/>
      <point x="1816" y="-28"/>
      <point x="1934" y="94"/>
      <point x="1934" y="326" type="curve" smooth="yes"/>
      <point x="1934" y="638" type="line" smooth="yes"/>
      <point x="1934" y="885"/>
      <point x="1873" y="1086"/>
      <point x="1630" y="1181" type="curve"/>
      <point x="1562" y="1198" type="line"/>
      <point x="1505" y="1214"/>
      <point x="1459" y="1224"/>
      <point x="1389" y="1224" type="curve" smooth="yes"/>
      <point x="1154" y="1224"/>
      <point x="1021" y="1132"/>
      <point x="986" y="951" type="curve"/>
      <point x="926" y="951" type="line"/>
      <point x="937" y="594" type="line"/>
      <point x="1133" y="594" type="line"/>
      <point x="1133" y="694" type="line" smooth="yes"/>
      <point x="1133" y="881"/>
      <point x="1209" y="968"/>
    </contour>
  </outline>
</glyph>
<glyph name="oneeighth.mlm" format="2">
  <advance width="2843"/>
  <unicode hex="0D77"/>
  <outline>
    <contour>
      <point x="414" y="826" type="curve" smooth="yes"/>
      <point x="169" y="826"/>
      <point x="52" y="694"/>
      <point x="52" y="442" type="curve" smooth="yes"/>
      <point x="52" y="307" type="line" smooth="yes"/>
      <point x="52" y="186"/>
      <point x="63" y="79"/>
      <point x="85" y="0" type="curve"/>
      <point x="366" y="0" type="line"/>
      <point x="351" y="74"/>
      <point x="339" y="179"/>
      <point x="339" y="302" type="curve" smooth="yes"/>
      <point x="339" y="445" type="line" smooth="yes"/>
      <point x="339" y="528"/>
      <point x="360" y="567"/>
      <point x="412" y="567" type="curve" smooth="yes"/>
      <point x="464" y="567"/>
      <point x="486" y="528"/>
      <point x="486" y="445" type="curve" smooth="yes"/>
      <point x="486" y="302" type="line" smooth="yes"/>
      <point x="486" y="186"/>
      <point x="471" y="85"/>
      <point x="449" y="13" type="curve"/>
      <point x="449" y="0" type="line"/>
      <point x="629" y="0" type="line"/>
      <point x="728" y="98"/>
      <point x="776" y="230"/>
      <point x="776" y="381" type="curve" smooth="yes"/>
      <point x="776" y="442" type="line" smooth="yes"/>
      <point x="776" y="694"/>
      <point x="659" y="826"/>
    </contour>
    <contour>
      <point x="1358" y="677" type="line"/>
      <point x="1358" y="293" type="line"/>
      <point x="1660" y="293" type="line"/>
      <point x="1660" y="782" type="line"/>
    </contour>
    <contour>
      <point x="1915" y="1224" type="curve" smooth="yes"/>
      <point x="1692" y="1224"/>
      <point x="1560" y="1139"/>
      <point x="1520" y="968" type="curve"/>
      <point x="1452" y="968" type="line"/>
      <point x="1481" y="598" type="line"/>
      <point x="1660" y="598" type="line"/>
      <point x="1660" y="712" type="line" smooth="yes"/>
      <point x="1660" y="881"/>
      <point x="1735" y="959"/>
      <point x="1899" y="959" type="curve" smooth="yes"/>
      <point x="2068" y="959"/>
      <point x="2147" y="874"/>
      <point x="2147" y="664" type="curve" smooth="yes"/>
      <point x="2147" y="318" type="line" smooth="yes"/>
      <point x="2147" y="255"/>
      <point x="2131" y="230"/>
      <point x="2094" y="230" type="curve" smooth="yes"/>
      <point x="2057" y="230"/>
      <point x="2042" y="255"/>
      <point x="2042" y="318" type="curve" smooth="yes"/>
      <point x="2042" y="453" type="line" smooth="yes"/>
      <point x="2042" y="512"/>
      <point x="2062" y="537"/>
      <point x="2110" y="537" type="curve" smooth="yes"/>
      <point x="2357" y="537" type="line"/>
      <point x="2385" y="776" type="line"/>
      <point x="2063" y="776" type="line" smooth="yes"/>
      <point x="1855" y="776"/>
      <point x="1757" y="674"/>
      <point x="1757" y="451" type="curve" smooth="yes"/>
      <point x="1757" y="329" type="line" smooth="yes"/>
      <point x="1757" y="95"/>
      <point x="1868" y="-26"/>
      <point x="2092" y="-26" type="curve" smooth="yes"/>
      <point x="2316" y="-26"/>
      <point x="2431" y="95"/>
      <point x="2431" y="329" type="curve" smooth="yes"/>
      <point x="2431" y="648" type="line" smooth="yes"/>
      <point x="2431" y="1027"/>
      <point x="2261" y="1224"/>
    </contour>
    <contour>
      <point x="894" y="804" type="curve" smooth="yes"/>
      <point x="894" y="451" type="line" smooth="yes"/>
      <point x="894" y="273"/>
      <point x="941" y="105"/>
      <point x="1005" y="0" type="curve"/>
      <point x="1249" y="0" type="line"/>
      <point x="1249" y="13" type="line"/>
      <point x="1216" y="112"/>
      <point x="1196" y="257"/>
      <point x="1196" y="421" type="curve" smooth="yes"/>
      <point x="1196" y="806" type="line" smooth="yes"/>
      <point x="1196" y="896"/>
      <point x="1220" y="937"/>
      <point x="1277" y="937" type="curve" smooth="yes"/>
      <point x="1334" y="937"/>
      <point x="1358" y="896"/>
      <point x="1358" y="808" type="curve" smooth="yes"/>
      <point x="1358" y="640" type="line"/>
      <point x="1520" y="640" type="line"/>
      <point x="1512" y="968" type="line"/>
      <point x="1492" y="1150"/>
      <point x="1386" y="1224"/>
      <point x="1222" y="1224" type="curve" smooth="yes"/>
      <point x="998" y="1224"/>
      <point x="894" y="1084"/>
    </contour>
    <contour>
      <point x="539" y="239" type="line"/>
      <point x="449" y="0" type="line"/>
      <point x="1183" y="0" type="line"/>
      <point x="1040" y="239" type="line"/>
    </contour>
    <contour>
      <point x="2791" y="1075" type="curve"/>
      <point x="2536" y="1075" type="line"/>
      <point x="2536" y="898" type="line" smooth="yes"/>
      <point x="2536" y="813"/>
      <point x="2506" y="776"/>
      <point x="2438" y="776" type="curve" smooth="yes"/>
      <point x="2217" y="776" type="line"/>
      <point x="2219" y="537" type="line"/>
      <point x="2486" y="537" type="line" smooth="yes"/>
      <point x="2705" y="537"/>
      <point x="2806" y="640"/>
      <point x="2806" y="863" type="curve" smooth="yes"/>
      <point x="2806" y="946"/>
      <point x="2802" y="992"/>
    </contour>
  </outline>
</glyph>
<glyph name="threesixteenths.mlm" format="2">
  <advance width="3095"/>
  <unicode hex="0D78"/>
  <outline>
    <contour>
      <point x="229" y="443" type="line"/>
      <point x="531" y="443" type="line"/>
      <point x="531" y="1183" type="line"/>
      <point x="229" y="1183" type="line"/>
    </contour>
    <contour>
      <point x="151" y="-26" type="curve" smooth="yes"/>
      <point x="280" y="-26"/>
      <point x="365" y="55"/>
      <point x="376" y="217" type="curve"/>
      <point x="482" y="217" type="line"/>
      <point x="496" y="521" type="line"/>
      <point x="229" y="550" type="line"/>
      <point x="229" y="383" type="line" smooth="yes"/>
      <point x="229" y="287"/>
      <point x="190" y="245"/>
      <point x="102" y="245" type="curve" smooth="yes"/>
      <point x="71" y="245"/>
      <point x="39" y="248"/>
      <point x="10" y="254" type="curve"/>
      <point x="57" y="-13" type="line"/>
      <point x="88" y="-22"/>
      <point x="120" y="-26"/>
    </contour>
    <contour>
      <point x="1851" y="1224" type="curve" smooth="yes"/>
      <point x="1632" y="1224"/>
      <point x="1525" y="1093"/>
      <point x="1525" y="815" type="curve" smooth="yes"/>
      <point x="1525" y="655"/>
      <point x="1543" y="524"/>
      <point x="1543" y="366" type="curve" smooth="yes"/>
      <point x="1543" y="281"/>
      <point x="1522" y="248"/>
      <point x="1470" y="248" type="curve" smooth="yes"/>
      <point x="1418" y="248"/>
      <point x="1396" y="281"/>
      <point x="1396" y="366" type="curve" smooth="yes"/>
      <point x="1396" y="528"/>
      <point x="1415" y="662"/>
      <point x="1415" y="826" type="curve" smooth="yes"/>
      <point x="1415" y="1093"/>
      <point x="1289" y="1224"/>
      <point x="1037" y="1224" type="curve" smooth="yes"/>
      <point x="785" y="1224"/>
      <point x="660" y="1093"/>
      <point x="660" y="826" type="curve" smooth="yes"/>
      <point x="660" y="662"/>
      <point x="679" y="528"/>
      <point x="679" y="366" type="curve" smooth="yes"/>
      <point x="679" y="281"/>
      <point x="657" y="248"/>
      <point x="605" y="248" type="curve" smooth="yes"/>
      <point x="553" y="248"/>
      <point x="531" y="283"/>
      <point x="531" y="366" type="curve" smooth="yes"/>
      <point x="531" y="550" type="line"/>
      <point x="368" y="489" type="line"/>
      <point x="384" y="217" type="line" smooth="yes"/>
      <point x="393" y="55"/>
      <point x="505" y="-26"/>
      <point x="660" y="-26" type="curve" smooth="yes"/>
      <point x="881" y="-26"/>
      <point x="980" y="100"/>
      <point x="980" y="370" type="curve" smooth="yes"/>
      <point x="980" y="534"/>
      <point x="962" y="668"/>
      <point x="962" y="830" type="curve" smooth="yes"/>
      <point x="962" y="915"/>
      <point x="984" y="948"/>
      <point x="1037" y="948" type="curve" smooth="yes"/>
      <point x="1090" y="948"/>
      <point x="1113" y="915"/>
      <point x="1113" y="830" type="curve" smooth="yes"/>
      <point x="1113" y="668"/>
      <point x="1094" y="534"/>
      <point x="1094" y="370" type="curve" smooth="yes"/>
      <point x="1094" y="103"/>
      <point x="1220" y="-28"/>
      <point x="1470" y="-28" type="curve" smooth="yes"/>
      <point x="1720" y="-28"/>
      <point x="1845" y="103"/>
      <point x="1845" y="370" type="curve" smooth="yes"/>
      <point x="1845" y="530"/>
      <point x="1827" y="661"/>
      <point x="1827" y="819" type="curve" smooth="yes"/>
      <point x="1827" y="904"/>
      <point x="1849" y="937"/>
      <point x="1904" y="937" type="curve" smooth="yes"/>
      <point x="1959" y="937"/>
      <point x="1981" y="898"/>
      <point x="1981" y="813" type="curve" smooth="yes"/>
      <point x="1981" y="640" type="line"/>
      <point x="2125" y="640" type="line"/>
      <point x="2128" y="1001" type="line"/>
      <point x="2102" y="1161"/>
      <point x="2000" y="1224"/>
    </contour>
    <contour>
      <point x="2520" y="1224" type="curve" smooth="yes"/>
      <point x="2303" y="1224"/>
      <point x="2184" y="1146"/>
      <point x="2137" y="1001" type="curve"/>
      <point x="2118" y="1001" type="line"/>
      <point x="1981" y="668" type="line"/>
      <point x="1981" y="0" type="line"/>
      <point x="2257" y="0" type="line"/>
      <point x="2257" y="677" type="line" smooth="yes"/>
      <point x="2257" y="879"/>
      <point x="2327" y="968"/>
      <point x="2502" y="968" type="curve" smooth="yes"/>
      <point x="2669" y="968"/>
      <point x="2745" y="874"/>
      <point x="2745" y="677" type="curve" smooth="yes"/>
      <point x="2745" y="0" type="line"/>
      <point x="3025" y="0" type="line"/>
      <point x="3025" y="666" type="line" smooth="yes"/>
      <point x="3025" y="1034"/>
      <point x="2861" y="1224"/>
    </contour>
    <contour>
      <point x="2132" y="232" type="line"/>
      <point x="2001" y="0" type="line"/>
      <point x="2984" y="0" type="line"/>
      <point x="2986" y="232" type="line"/>
    </contour>
    <contour>
      <point x="2655.02" y="632" type="line" smooth="yes"/>
      <point x="2655.02" y="827.897"/>
      <point x="2580.5" y="953"/>
      <point x="2389.02" y="953" type="curve" smooth="yes"/>
      <point x="2346.92" y="953"/>
      <point x="2288.32" y="940.857"/>
      <point x="2244.02" y="919" type="curve"/>
      <point x="2244.02" y="752" type="line"/>
      <point x="2265.2" y="764"/>
      <point x="2283.37" y="767"/>
      <point x="2301.02" y="767" type="curve" smooth="yes"/>
      <point x="2360.63" y="767"/>
      <point x="2378.02" y="713.986"/>
      <point x="2378.02" y="634" type="curve" smooth="yes"/>
      <point x="2378.02" y="620" type="line" smooth="yes"/>
      <point x="2378.02" y="470.985"/>
      <point x="2343.52" y="341.483"/>
      <point x="2278.02" y="230" type="curve"/>
      <point x="2550.02" y="204" type="line"/>
      <point x="2617.95" y="310.383"/>
      <point x="2655.02" y="448.134"/>
      <point x="2655.02" y="618" type="curve" smooth="yes"/>
    </contour>
  </outline>
</glyph>
<glyph name="chilluN.mlm" format="2">
  <advance width="1692"/>
  <unicode hex="0D7B"/>
  <outline>
    <contour>
      <point x="532" y="677" type="line"/>
      <point x="532" y="4" type="line"/>
      <point x="834" y="4" type="line"/>
      <point x="834" y="782" type="line"/>
    </contour>
    <contour>
      <point x="449" y="937" type="curve" smooth="yes"/>
      <point x="508" y="937"/>
      <point x="532" y="896"/>
      <point x="532" y="808" type="curve" smooth="yes"/>
      <point x="532" y="640" type="line"/>
      <point x="694" y="640" type="line"/>
      <point x="684" y="968" type="line"/>
      <point x="664" y="1152"/>
      <point x="556" y="1224"/>
      <point x="392" y="1224" type="curve" smooth="yes"/>
      <point x="168" y="1224"/>
      <point x="64" y="1084"/>
      <point x="64" y="804" type="curve" smooth="yes"/>
      <point x="64" y="427" type="line" smooth="yes"/>
      <point x="64" y="258"/>
      <point x="81" y="98"/>
      <point x="125" y="0" type="curve"/>
      <point x="423" y="0" type="line"/>
      <point x="388" y="99"/>
      <point x="366" y="250"/>
      <point x="366" y="421" type="curve" smooth="yes"/>
      <point x="366" y="806" type="line" smooth="yes"/>
      <point x="366" y="896"/>
      <point x="390" y="937"/>
    </contour>
    <contour>
      <point x="1262" y="1198" type="line"/>
      <point x="1205" y="1215"/>
      <point x="1159" y="1224"/>
      <point x="1089" y="1224" type="curve" smooth="yes"/>
      <point x="865" y="1224"/>
      <point x="732" y="1139"/>
      <point x="692" y="968" type="curve"/>
      <point x="624" y="968" type="line"/>
      <point x="655" y="598" type="line"/>
      <point x="834" y="598" type="line"/>
      <point x="834" y="712" type="line" smooth="yes"/>
      <point x="834" y="887"/>
      <point x="909" y="968"/>
      <point x="1073" y="968" type="curve" smooth="yes"/>
      <point x="1125" y="968"/>
      <point x="1179" y="958"/>
      <point x="1214" y="940" type="curve"/>
      <point x="1257" y="922" type="line"/>
      <point x="1329" y="867"/>
      <point x="1345" y="769"/>
      <point x="1345" y="638" type="curve" smooth="yes"/>
      <point x="1345" y="315" type="line" smooth="yes"/>
      <point x="1345" y="254"/>
      <point x="1329" y="228"/>
      <point x="1290" y="228" type="curve" smooth="yes"/>
      <point x="1251" y="228"/>
      <point x="1235" y="254"/>
      <point x="1235" y="315" type="curve" smooth="yes"/>
      <point x="1235" y="578" type="line" smooth="yes"/>
      <point x="1235" y="723"/>
      <point x="1251" y="836"/>
      <point x="1292" y="937" type="curve"/>
      <point x="1298" y="963"/>
      <point x="1325" y="1076"/>
      <point x="1331" y="1102" type="curve"/>
      <point x="1348" y="1161"/>
      <point x="1356" y="1218"/>
      <point x="1356" y="1282" type="curve" smooth="yes"/>
      <point x="1356" y="1389"/>
      <point x="1334" y="1457"/>
      <point x="1305" y="1529" type="curve"/>
      <point x="1040" y="1529" type="line"/>
      <point x="1076" y="1450"/>
      <point x="1094" y="1365"/>
      <point x="1094" y="1273" type="curve" smooth="yes"/>
      <point x="1094" y="1223"/>
      <point x="1089" y="1185"/>
      <point x="1079" y="1143" type="curve"/>
      <point x="1077" y="1123"/>
      <point x="1066" y="1043"/>
      <point x="1062" y="1019" type="curve"/>
      <point x="986" y="899"/>
      <point x="946" y="791"/>
      <point x="946" y="574" type="curve" smooth="yes"/>
      <point x="946" y="326" type="line" smooth="yes"/>
      <point x="946" y="94"/>
      <point x="1058" y="-28"/>
      <point x="1286" y="-28" type="curve" smooth="yes"/>
      <point x="1516" y="-28"/>
      <point x="1634" y="94"/>
      <point x="1634" y="326" type="curve" smooth="yes"/>
      <point x="1634" y="638" type="line" smooth="yes"/>
      <point x="1634" y="885"/>
      <point x="1573" y="1085"/>
      <point x="1330" y="1181" type="curve"/>
    </contour>
  </outline>
</glyph>
<glyph name="chilluK.mlm" format="2">
  <advance width="1995"/>
  <unicode hex="0D7F"/>
  <outline>
    <contour>
      <point x="835" y="237" type="curve" smooth="yes"/>
      <point x="783" y="237"/>
      <point x="762" y="276"/>
      <point x="762" y="362" type="curve" smooth="yes"/>
      <point x="762" y="841" type="line" smooth="yes"/>
      <point x="762" y="927"/>
      <point x="783" y="964"/>
      <point x="835" y="964" type="curve" smooth="yes"/>
      <point x="888" y="964"/>
      <point x="909" y="927"/>
      <point x="909" y="841" type="curve" smooth="yes"/>
      <point x="909" y="362" type="line" smooth="yes"/>
      <point x="909" y="276"/>
      <point x="888" y="237"/>
    </contour>
    <contour>
      <point x="835" y="-26" type="curve" smooth="yes"/>
      <point x="1076" y="-26"/>
      <point x="1200" y="109"/>
      <point x="1200" y="368" type="curve" smooth="yes"/>
      <point x="1200" y="835" type="line" smooth="yes"/>
      <point x="1200" y="1093"/>
      <point x="1076" y="1227"/>
      <point x="835" y="1227" type="curve" smooth="yes"/>
      <point x="596" y="1227"/>
      <point x="471" y="1093"/>
      <point x="471" y="835" type="curve" smooth="yes"/>
      <point x="471" y="368" type="line" smooth="yes"/>
      <point x="471" y="313"/>
      <point x="477" y="265"/>
      <point x="488" y="221" type="curve"/>
      <point x="519" y="162" type="line"/>
      <point x="561" y="37"/>
      <point x="675" y="-26"/>
    </contour>
    <contour>
      <point x="307" y="-26" type="curve" smooth="yes"/>
      <point x="436" y="-26"/>
      <point x="493" y="48"/>
      <point x="513" y="160" type="curve"/>
      <point x="530" y="162" type="line"/>
      <point x="477" y="282" type="line"/>
      <point x="468" y="247"/>
      <point x="449" y="224"/>
      <point x="414" y="224" type="curve" smooth="yes"/>
      <point x="370" y="224"/>
      <point x="348" y="256"/>
      <point x="348" y="326" type="curve" smooth="yes"/>
      <point x="348" y="438" type="line" smooth="yes"/>
      <point x="348" y="519"/>
      <point x="376" y="556"/>
      <point x="429" y="556" type="curve" smooth="yes"/>
      <point x="578" y="556" type="line"/>
      <point x="637" y="552" type="line"/>
      <point x="1006" y="552" type="line"/>
      <point x="1093" y="556" type="line"/>
      <point x="1549" y="556" type="line" smooth="yes"/>
      <point x="1623" y="556"/>
      <point x="1654" y="514"/>
      <point x="1654" y="416" type="curve" smooth="yes"/>
      <point x="1654" y="315" type="line" smooth="yes"/>
      <point x="1654" y="254"/>
      <point x="1638" y="228"/>
      <point x="1599" y="228" type="curve" smooth="yes"/>
      <point x="1560" y="228"/>
      <point x="1544" y="254"/>
      <point x="1544" y="315" type="curve" smooth="yes"/>
      <point x="1544" y="348" type="line" smooth="yes"/>
      <point x="1544" y="420"/>
      <point x="1549" y="497"/>
      <point x="1571" y="565" type="curve" smooth="yes"/>
      <point x="1625" y="732" type="line"/>
      <point x="1678" y="859"/>
      <point x="1713" y="983"/>
      <point x="1713" y="1104" type="curve" smooth="yes"/>
      <point x="1713" y="1231"/>
      <point x="1693" y="1314"/>
      <point x="1660" y="1400" type="curve"/>
      <point x="1395" y="1400" type="line"/>
      <point x="1426" y="1312"/>
      <point x="1444" y="1221"/>
      <point x="1444" y="1111" type="curve" smooth="yes"/>
      <point x="1444" y="982"/>
      <point x="1411" y="870"/>
      <point x="1363" y="758" type="curve"/>
      <point x="1317" y="627" type="line"/>
      <point x="1282" y="541"/>
      <point x="1260" y="449"/>
      <point x="1260" y="351" type="curve" smooth="yes"/>
      <point x="1260" y="326" type="line" smooth="yes"/>
      <point x="1260" y="94"/>
      <point x="1371" y="-28"/>
      <point x="1595" y="-28" type="curve" smooth="yes"/>
      <point x="1823" y="-28"/>
      <point x="1941" y="94"/>
      <point x="1941" y="326" type="curve" smooth="yes"/>
      <point x="1941" y="408" type="line" smooth="yes"/>
      <point x="1941" y="664"/>
      <point x="1818" y="799"/>
      <point x="1582" y="799" type="curve" smooth="yes"/>
      <point x="1100" y="799" type="line"/>
      <point x="1005" y="795" type="line"/>
      <point x="659" y="795" type="line"/>
      <point x="552" y="799" type="line"/>
      <point x="394" y="799" type="line" smooth="yes"/>
      <point x="168" y="799"/>
      <point x="52" y="668"/>
      <point x="52" y="431" type="curve" smooth="yes"/>
      <point x="52" y="316" type="line" smooth="yes"/>
      <point x="52" y="90"/>
      <point x="140" y="-26"/>
    </contour>
  </outline>
</glyph>
<glyph name="quotedblleft" format="2">
  <advance width="796"/>
  <unicode hex="201C"/>
  <outline>
    <contour>
      <point x="339" y="820" type="line"/>
      <point x="335" y="873"/>
      <point x="333" y="905"/>
      <point x="333" y="951" type="curve" smooth="yes"/>
      <point x="333" y="1081"/>
      <point x="359" y="1192"/>
      <point x="398" y="1287" type="curve"/>
      <point x="193" y="1337" type="line"/>
      <point x="94" y="1219"/>
      <point x="48" y="1083"/>
      <point x="48" y="927" type="curve" smooth="yes"/>
      <point x="48" y="881"/>
      <point x="52" y="848"/>
      <point x="57" y="820" type="curve"/>
    </contour>
    <contour>
      <point x="715" y="820" type="line"/>
      <point x="711" y="873"/>
      <point x="709" y="905"/>
      <point x="709" y="951" type="curve" smooth="yes"/>
      <point x="709" y="1081"/>
      <point x="735" y="1192"/>
      <point x="774" y="1287" type="curve"/>
      <point x="569" y="1337" type="line"/>
      <point x="470" y="1219"/>
      <point x="424" y="1083"/>
      <point x="424" y="927" type="curve" smooth="yes"/>
      <point x="424" y="881"/>
      <point x="428" y="848"/>
      <point x="433" y="820" type="curve"/>
    </contour>
  </outline>
</glyph>
<glyph name="guilsinglright" format="2">
  <advance width="445"/>
  <unicode hex="203A"/>
  <outline>
    <contour>
      <point x="10" y="916" type="line"/>
      <point x="281" y="916" type="line"/>
      <point x="425" y="532" type="line"/>
      <point x="425" y="473" type="line"/>
      <point x="281" y="89" type="line"/>
      <point x="10" y="89" type="line"/>
      <point x="160" y="502" type="line"/>
    </contour>
  </outline>
</glyph>
<glyph name="ninesuperior" format="2">
  <advance width="485"/>
  <unicode hex="2079"/>
  <outline>
    <contour>
      <point x="234" y="1394" type="curve" smooth="yes"/>
      <point x="94" y="1394"/>
      <point x="23" y="1316"/>
      <point x="23" y="1169" type="curve"/>
      <point x="23" y="1111" type="line" smooth="yes"/>
      <point x="23" y="997"/>
      <point x="54" y="921"/>
      <point x="153" y="921" type="curve" smooth="yes"/>
      <point x="217" y="921"/>
      <point x="246" y="957"/>
      <point x="258" y="1016" type="curve"/>
      <point x="294" y="1016" type="line"/>
      <point x="266" y="1100" type="line"/>
      <point x="263" y="1082"/>
      <point x="251" y="1071"/>
      <point x="235" y="1071" type="curve" smooth="yes"/>
      <point x="214" y="1071"/>
      <point x="205" y="1084"/>
      <point x="205" y="1116" type="curve" smooth="yes"/>
      <point x="205" y="1177" type="line"/>
      <point x="205" y="1210"/>
      <point x="212" y="1227"/>
      <point x="234" y="1227" type="curve" smooth="yes"/>
      <point x="256" y="1227"/>
      <point x="264" y="1211"/>
      <point x="264" y="1176" type="curve"/>
      <point x="264" y="960" type="line" smooth="yes"/>
      <point x="264" y="887"/>
      <point x="238" y="851"/>
      <point x="165" y="851" type="curve" smooth="yes"/>
      <point x="124" y="851"/>
      <point x="87" y="863"/>
      <point x="56" y="875" type="curve"/>
      <point x="73" y="709" type="line"/>
      <point x="103" y="695"/>
      <point x="155" y="682"/>
      <point x="214" y="682" type="curve" smooth="yes"/>
      <point x="375" y="682"/>
      <point x="457" y="773"/>
      <point x="457" y="945" type="curve"/>
      <point x="457" y="1154" type="line"/>
      <point x="457" y="1316"/>
      <point x="383" y="1394"/>
    </contour>
  </outline>
</glyph>
<glyph name="uni25CC" format="2">
  <advance width="1179"/>
  <unicode hex="25CC"/>
  <outline>
    <contour>
      <point x="634" y="1047" type="curve" smooth="yes"/>
      <point x="634" y="1080"/>
      <point x="610" y="1107"/>
      <point x="576" y="1107" type="curve" smooth="yes"/>
      <point x="542" y="1107"/>
      <point x="519" y="1080"/>
      <point x="519" y="1047" type="curve" smooth="yes"/>
      <point x="519" y="1009"/>
      <point x="540" y="988"/>
      <point x="576" y="988" type="curve" smooth="yes"/>
      <point x="610" y="988"/>
      <point x="634" y="1013"/>
    </contour>
    <contour>
      <point x="348" y="905" type="curve" smooth="yes"/>
      <point x="348" y="939"/>
      <point x="324" y="964"/>
      <point x="290" y="964" type="curve" smooth="yes"/>
      <point x="256" y="964"/>
      <point x="232" y="939"/>
      <point x="232" y="905" type="curve" smooth="yes"/>
      <point x="232" y="868"/>
      <point x="254" y="847"/>
      <point x="290" y="847" type="curve" smooth="yes"/>
      <point x="324" y="847"/>
      <point x="348" y="872"/>
    </contour>
    <contour>
      <point x="920" y="903" type="curve" smooth="yes"/>
      <point x="920" y="937"/>
      <point x="896" y="962"/>
      <point x="862" y="962" type="curve" smooth="yes"/>
      <point x="828" y="962"/>
      <point x="805" y="937"/>
      <point x="805" y="903" type="curve" smooth="yes"/>
      <point x="805" y="865"/>
      <point x="827" y="846"/>
      <point x="862" y="846" type="curve" smooth="yes"/>
      <point x="896" y="846"/>
      <point x="920" y="869"/>
    </contour>
    <contour>
      <point x="223" y="612" type="curve" smooth="yes"/>
      <point x="223" y="646"/>
      <point x="200" y="671"/>
      <point x="166" y="671" type="curve" smooth="yes"/>
      <point x="132" y="671"/>
      <point x="108" y="646"/>
      <point x="108" y="612" type="curve" smooth="yes"/>
      <point x="108" y="578"/>
      <point x="132" y="554"/>
      <point x="166" y="554" type="curve" smooth="yes"/>
      <point x="200" y="554"/>
      <point x="223" y="578"/>
    </contour>
    <contour>
      <point x="1046" y="612" type="curve" smooth="yes"/>
      <point x="1046" y="646"/>
      <point x="1020" y="671"/>
      <point x="986" y="671" type="curve" smooth="yes"/>
      <point x="954" y="671"/>
      <point x="929" y="646"/>
      <point x="929" y="612" type="curve" smooth="yes"/>
      <point x="929" y="578"/>
      <point x="954" y="554"/>
      <point x="986" y="554" type="curve" smooth="yes"/>
      <point x="1020" y="554"/>
      <point x="1046" y="578"/>
    </contour>
    <contour>
      <point x="348" y="321" type="curve" smooth="yes"/>
      <point x="348" y="355"/>
      <point x="324" y="381"/>
      <point x="290" y="381" type="curve" smooth="yes"/>
      <point x="256" y="381"/>
      <point x="232" y="355"/>
      <point x="232" y="321" type="curve" smooth="yes"/>
      <point x="232" y="284"/>
      <point x="254" y="264"/>
      <point x="290" y="264" type="curve" smooth="yes"/>
      <point x="324" y="264"/>
      <point x="348" y="287"/>
    </contour>
    <contour>
      <point x="920" y="321" type="curve" smooth="yes"/>
      <point x="920" y="355"/>
      <point x="896" y="381"/>
      <point x="862" y="381" type="curve" smooth="yes"/>
      <point x="828" y="381"/>
      <point x="805" y="355"/>
      <point x="805" y="321" type="curve" smooth="yes"/>
      <point x="805" y="284"/>
      <point x="827" y="264"/>
      <point x="862" y="264" type="curve" smooth="yes"/>
      <point x="896" y="264"/>
      <point x="920" y="287"/>
    </contour>
    <contour>
      <point x="634" y="179" type="curve" smooth="yes"/>
      <point x="634" y="212"/>
      <point x="610" y="237"/>
      <point x="576" y="237" type="curve" smooth="yes"/>
      <point x="542" y="237"/>
      <point x="519" y="212"/>
      <point x="519" y="179" type="curve" smooth="yes"/>
      <point x="519" y="140"/>
      <point x="540" y="120"/>
      <point x="576" y="120" type="curve" smooth="yes"/>
      <point x="610" y="120"/>
      <point x="634" y="143"/>
    </contour>
  </outline>
</glyph>
<glyph name="BaDa.mlm" format="2">
  <advance width="2116"/>
  <outline>
    <component base="Ba.mlm"/>
    <contour>
      <point x="1980" y="-81" type="line"/>
      <point x="1980" y="25"/>
      <point x="1871" y="92"/>
      <point x="1663" y="92" type="curve" smooth="yes"/>
      <point x="1436" y="92"/>
      <point x="1328" y="-4"/>
      <point x="1328" y="-187" type="curve" smooth="yes"/>
      <point x="1328" y="-290" type="line" smooth="yes"/>
      <point x="1328" y="-367"/>
      <point x="1335" y="-443"/>
      <point x="1355" y="-504" type="curve"/>
      <point x="1550" y="-504" type="line"/>
      <point x="1536" y="-448"/>
      <point x="1526" y="-369"/>
      <point x="1526" y="-292" type="curve" smooth="yes"/>
      <point x="1526" y="-186" type="line" smooth="yes"/>
      <point x="1526" y="-82"/>
      <point x="1571" y="-38"/>
      <point x="1669" y="-38" type="curve" smooth="yes"/>
      <point x="1746" y="-38"/>
      <point x="1781" y="-56"/>
      <point x="1781" y="-86" type="curve"/>
      <point x="1781" y="-88" type="line"/>
      <point x="1781" y="-113"/>
      <point x="1759" y="-121"/>
      <point x="1702" y="-123" type="curve" smooth="yes"/>
      <point x="1625" y="-126" type="line"/>
      <point x="1625" y="-269" type="line"/>
      <point x="1702" y="-272" type="line" smooth="yes"/>
      <point x="1763" y="-274"/>
      <point x="1789" y="-284"/>
      <point x="1789" y="-316" type="curve"/>
      <point x="1789" y="-318" type="line"/>
      <point x="1789" y="-353"/>
      <point x="1753" y="-363"/>
      <point x="1700" y="-363" type="curve" smooth="yes"/>
      <point x="1674" y="-363"/>
      <point x="1644" y="-362"/>
      <point x="1613" y="-358" type="curve"/>
      <point x="1635" y="-506" type="line"/>
      <point x="1674" y="-510"/>
      <point x="1712" y="-512"/>
      <point x="1754" y="-512" type="curve" smooth="yes"/>
      <point x="1911" y="-512"/>
      <point x="1991" y="-453"/>
      <point x="1991" y="-346" type="curve" smooth="yes"/>
      <point x="1991" y="-342" type="line" smooth="yes"/>
      <point x="1991" y="-265"/>
      <point x="1954" y="-217"/>
      <point x="1865" y="-196" type="curve"/>
      <point x="1865" y="-193" type="line"/>
      <point x="1949" y="-177"/>
      <point x="1980" y="-140"/>
      <point x="1980" y="-83" type="curve"/>
    </contour>
  </outline>
</glyph>
<glyph name="BaLa.mlm" format="2">
  <advance width="2116"/>
  <outline>
    <component base="Ba.mlm"/>
    <contour>
      <point x="1313" y="102" type="curve" smooth="yes"/>
      <point x="1067" y="102"/>
      <point x="933" y="-12"/>
      <point x="933" y="-231" type="curve" smooth="yes"/>
      <point x="933" y="-302" type="line" smooth="yes"/>
      <point x="933" y="-444"/>
      <point x="1015" y="-515"/>
      <point x="1170" y="-515" type="curve" smooth="yes"/>
      <point x="1326" y="-515"/>
      <point x="1407" y="-447"/>
      <point x="1407" y="-318" type="curve" smooth="yes"/>
      <point x="1407" y="-283" type="line" smooth="yes"/>
      <point x="1407" y="-168"/>
      <point x="1355" y="-109"/>
      <point x="1259" y="-109" type="curve" smooth="yes"/>
      <point x="1181" y="-109"/>
      <point x="1134" y="-149"/>
      <point x="1121" y="-228" type="curve"/>
      <point x="1121" y="-287" type="line"/>
      <point x="1127" y="-269"/>
      <point x="1145" y="-254"/>
      <point x="1172" y="-254" type="curve" smooth="yes"/>
      <point x="1203" y="-254"/>
      <point x="1218" y="-271"/>
      <point x="1218" y="-307" type="curve" smooth="yes"/>
      <point x="1218" y="-317" type="line" smooth="yes"/>
      <point x="1218" y="-350"/>
      <point x="1202" y="-368"/>
      <point x="1171" y="-368" type="curve" smooth="yes"/>
      <point x="1138" y="-368"/>
      <point x="1123" y="-349"/>
      <point x="1123" y="-315" type="curve" smooth="yes"/>
      <point x="1123" y="-243" type="line"/>
      <point x="1132" y="-215" type="line"/>
      <point x="1117" y="-215" type="line"/>
      <point x="1117" y="-108"/>
      <point x="1183" y="-52"/>
      <point x="1303" y="-52" type="curve" smooth="yes"/>
      <point x="1428" y="-52"/>
      <point x="1491" y="-109"/>
      <point x="1491" y="-228" type="curve" smooth="yes"/>
      <point x="1491" y="-269" type="line" smooth="yes"/>
      <point x="1491" y="-436"/>
      <point x="1579" y="-515"/>
      <point x="1762" y="-515" type="curve" smooth="yes"/>
      <point x="1943" y="-515"/>
      <point x="2033" y="-436"/>
      <point x="2033" y="-269" type="curve" smooth="yes"/>
      <point x="2033" y="-204" type="line" smooth="yes"/>
      <point x="2033" y="-119"/>
      <point x="2020" y="-53"/>
      <point x="1979" y="6" type="curve"/>
      <point x="1781" y="6" type="line"/>
      <point x="1822" y="-55"/>
      <point x="1836" y="-117"/>
      <point x="1836" y="-202" type="curve" smooth="yes"/>
      <point x="1836" y="-260" type="line" smooth="yes"/>
      <point x="1836" y="-322"/>
      <point x="1813" y="-351"/>
      <point x="1762" y="-351" type="curve" smooth="yes"/>
      <point x="1711" y="-351"/>
      <point x="1688" y="-322"/>
      <point x="1688" y="-260" type="curve" smooth="yes"/>
      <point x="1688" y="-222" type="line" smooth="yes"/>
      <point x="1688" y="-118"/>
      <point x="1648" y="-36"/>
      <point x="1568" y="17" type="curve"/>
      <point x="1560" y="22"/>
      <point x="1552" y="25"/>
      <point x="1543" y="32" type="curve" smooth="yes"/>
      <point x="1485" y="78"/>
      <point x="1407" y="102"/>
    </contour>
  </outline>
</glyph>
<glyph name="DaDa.mlm" format="2">
  <advance width="945"/>
  <outline>
    <contour>
      <point x="901" y="381" type="curve" smooth="yes"/>
      <point x="901" y="386" type="line" smooth="yes"/>
      <point x="901" y="525"/>
      <point x="838" y="598"/>
      <point x="703" y="613" type="curve"/>
      <point x="703" y="620" type="line"/>
      <point x="834" y="644"/>
      <point x="893" y="726"/>
      <point x="893" y="861" type="curve" smooth="yes"/>
      <point x="893" y="868" type="line" smooth="yes"/>
      <point x="893" y="1098"/>
      <point x="751" y="1224"/>
      <point x="490" y="1224" type="curve" smooth="yes"/>
      <point x="205" y="1224"/>
      <point x="65" y="1074"/>
      <point x="65" y="791" type="curve" smooth="yes"/>
      <point x="65" y="399" type="line" smooth="yes"/>
      <point x="65" y="241"/>
      <point x="74" y="103"/>
      <point x="98" y="0" type="curve"/>
      <point x="395" y="0" type="line"/>
      <point x="378" y="94"/>
      <point x="367" y="234"/>
      <point x="367" y="394" type="curve" smooth="yes"/>
      <point x="367" y="795" type="line" smooth="yes"/>
      <point x="367" y="904"/>
      <point x="400" y="953"/>
      <point x="483" y="953" type="curve" smooth="yes"/>
      <point x="558" y="953"/>
      <point x="591" y="914"/>
      <point x="591" y="835" type="curve" smooth="yes"/>
      <point x="591" y="826" type="line" smooth="yes"/>
      <point x="591" y="768"/>
      <point x="566" y="741"/>
      <point x="505" y="736" type="curve" smooth="yes"/>
      <point x="456" y="732" type="line"/>
      <point x="456" y="489" type="line"/>
      <point x="512" y="486" type="line" smooth="yes"/>
      <point x="573" y="483"/>
      <point x="597" y="451"/>
      <point x="597" y="388" type="curve" smooth="yes"/>
      <point x="597" y="377" type="line" smooth="yes"/>
      <point x="597" y="315"/>
      <point x="573" y="284"/>
      <point x="512" y="280" type="curve" smooth="yes"/>
      <point x="456" y="276" type="line"/>
      <point x="456" y="33" type="line"/>
      <point x="505" y="29" type="line" smooth="yes"/>
      <point x="575" y="23"/>
      <point x="603" y="-6"/>
      <point x="603" y="-64" type="curve" smooth="yes"/>
      <point x="603" y="-70" type="line" smooth="yes"/>
      <point x="603" y="-134"/>
      <point x="571" y="-164"/>
      <point x="501" y="-164" type="curve" smooth="yes"/>
      <point x="468" y="-164"/>
      <point x="439" y="-160"/>
      <point x="411" y="-153" type="curve"/>
      <point x="442" y="-390" type="line"/>
      <point x="492" y="-399"/>
      <point x="539" y="-407"/>
      <point x="591" y="-407" type="curve" smooth="yes"/>
      <point x="792" y="-407"/>
      <point x="901" y="-309"/>
      <point x="901" y="-121" type="curve" smooth="yes"/>
      <point x="901" y="-107" type="line" smooth="yes"/>
      <point x="901" y="36"/>
      <point x="840" y="124"/>
      <point x="703" y="148" type="curve"/>
      <point x="703" y="155" type="line"/>
      <point x="838" y="170"/>
      <point x="901" y="244"/>
    </contour>
  </outline>
</glyph>
<glyph name="DaDha.mlm" format="2">
  <advance width="1817"/>
  <outline>
    <contour>
      <point x="1293" y="440" type="line"/>
      <point x="1293" y="1183" type="line"/>
      <point x="991" y="1183" type="line"/>
      <point x="991" y="440" type="line"/>
    </contour>
    <contour>
      <point x="991" y="546" type="line"/>
      <point x="991" y="388" type="line" smooth="yes"/>
      <point x="991" y="285"/>
      <point x="969" y="243"/>
      <point x="912" y="243" type="curve" smooth="yes"/>
      <point x="626" y="243" type="line"/>
      <point x="536" y="0" type="line"/>
      <point x="855" y="0" type="line" smooth="yes"/>
      <point x="1024" y="0"/>
      <point x="1122" y="72"/>
      <point x="1137" y="217" type="curve"/>
      <point x="1243" y="217" type="line"/>
      <point x="1258" y="517" type="line"/>
    </contour>
    <contour>
      <point x="490" y="1224" type="curve" smooth="yes"/>
      <point x="205" y="1224"/>
      <point x="65" y="1074"/>
      <point x="65" y="791" type="curve" smooth="yes"/>
      <point x="65" y="399" type="line" smooth="yes"/>
      <point x="65" y="241"/>
      <point x="74" y="103"/>
      <point x="98" y="0" type="curve"/>
      <point x="395" y="0" type="line"/>
      <point x="378" y="94"/>
      <point x="367" y="234"/>
      <point x="367" y="394" type="curve" smooth="yes"/>
      <point x="367" y="795" type="line" smooth="yes"/>
      <point x="367" y="904"/>
      <point x="400" y="953"/>
      <point x="483" y="953" type="curve" smooth="yes"/>
      <point x="558" y="953"/>
      <point x="591" y="913"/>
      <point x="591" y="832" type="curve" smooth="yes"/>
      <point x="591" y="816" type="line" smooth="yes"/>
      <point x="591" y="759"/>
      <point x="566" y="728"/>
      <point x="505" y="724" type="curve" smooth="yes"/>
      <point x="461" y="721" type="line"/>
      <point x="461" y="475" type="line"/>
      <point x="512" y="472" type="line" smooth="yes"/>
      <point x="575" y="468"/>
      <point x="601" y="433"/>
      <point x="601" y="369" type="curve" smooth="yes"/>
      <point x="601" y="342" type="line" smooth="yes"/>
      <point x="601" y="274"/>
      <point x="575" y="241"/>
      <point x="512" y="241" type="curve" smooth="yes"/>
      <point x="457" y="241" type="line"/>
      <point x="485" y="0" type="line"/>
      <point x="573" y="0" type="line"/>
      <point x="636" y="166" type="line"/>
      <point x="811" y="166"/>
      <point x="899" y="234"/>
      <point x="899" y="366" type="curve" smooth="yes"/>
      <point x="899" y="375" type="line" smooth="yes"/>
      <point x="899" y="512"/>
      <point x="833" y="585"/>
      <point x="695" y="600" type="curve"/>
      <point x="695" y="607" type="line"/>
      <point x="832" y="631"/>
      <point x="893" y="717"/>
      <point x="893" y="856" type="curve" smooth="yes"/>
      <point x="893" y="863" type="line" smooth="yes"/>
      <point x="893" y="1097"/>
      <point x="751" y="1224"/>
    </contour>
    <contour>
      <point x="1147" y="217" type="line"/>
      <point x="1162" y="53"/>
      <point x="1260" y="-26"/>
      <point x="1429" y="-26" type="curve" smooth="yes"/>
      <point x="1652" y="-26"/>
      <point x="1753" y="108"/>
      <point x="1753" y="390" type="curve" smooth="yes"/>
      <point x="1753" y="760" type="line" smooth="yes"/>
      <point x="1753" y="929"/>
      <point x="1731" y="1077"/>
      <point x="1689" y="1187" type="curve"/>
      <point x="1394" y="1187" type="line"/>
      <point x="1429" y="1088"/>
      <point x="1451" y="936"/>
      <point x="1451" y="765" type="curve" smooth="yes"/>
      <point x="1451" y="388" type="line" smooth="yes"/>
      <point x="1451" y="298"/>
      <point x="1429" y="261"/>
      <point x="1372" y="261" type="curve" smooth="yes"/>
      <point x="1315" y="261"/>
      <point x="1293" y="298"/>
      <point x="1293" y="388" type="curve" smooth="yes"/>
      <point x="1293" y="546" type="line"/>
      <point x="1131" y="546" type="line"/>
    </contour>
  </outline>
</glyph>
<glyph name="DdaDda.mlm" format="2">
  <advance width="1770"/>
  <outline>
    <component base="Dda.mlm"/>
    <contour>
      <point x="1009" y="-514" type="curve" smooth="yes"/>
      <point x="1112" y="-514"/>
      <point x="1184" y="-475"/>
      <point x="1205" y="-388" type="curve"/>
      <point x="1220" y="-259" type="line"/>
      <point x="1107" y="-224" type="line"/>
      <point x="1107" y="-254" type="line" smooth="yes"/>
      <point x="1107" y="-323"/>
      <point x="1088" y="-348"/>
      <point x="1039" y="-348" type="curve" smooth="yes"/>
      <point x="990" y="-348"/>
      <point x="970" y="-323"/>
      <point x="970" y="-254" type="curve" smooth="yes"/>
      <point x="970" y="-163" type="line" smooth="yes"/>
      <point x="970" y="6"/>
      <point x="884" y="86"/>
      <point x="701" y="86" type="curve" smooth="yes"/>
      <point x="521" y="86"/>
      <point x="431" y="6"/>
      <point x="431" y="-163" type="curve" smooth="yes"/>
      <point x="431" y="-283" type="line" smooth="yes"/>
      <point x="431" y="-367"/>
      <point x="443" y="-436"/>
      <point x="479" y="-497" type="curve"/>
      <point x="683" y="-497" type="line"/>
      <point x="647" y="-434"/>
      <point x="628" y="-363"/>
      <point x="628" y="-285" type="curve" smooth="yes"/>
      <point x="628" y="-174" type="line" smooth="yes"/>
      <point x="628" y="-110"/>
      <point x="650" y="-79"/>
      <point x="701" y="-79" type="curve" smooth="yes"/>
      <point x="752" y="-79"/>
      <point x="773" y="-110"/>
      <point x="773" y="-174" type="curve" smooth="yes"/>
      <point x="773" y="-265" type="line" smooth="yes"/>
      <point x="773" y="-431"/>
      <point x="852" y="-514"/>
    </contour>
    <contour>
      <point x="1304" y="-308" type="line"/>
      <point x="1304" y="40" type="line"/>
      <point x="1107" y="40" type="line"/>
      <point x="1107" y="-310" type="line"/>
    </contour>
    <contour>
      <point x="1129" y="-243" type="line"/>
      <point x="1185" y="-388" type="line"/>
      <point x="1209" y="-388" type="line"/>
      <point x="1231" y="-475"/>
      <point x="1302" y="-514"/>
      <point x="1406" y="-514" type="curve" smooth="yes"/>
      <point x="1569" y="-514"/>
      <point x="1650" y="-430"/>
      <point x="1650" y="-260" type="curve" smooth="yes"/>
      <point x="1650" y="-171" type="line" smooth="yes"/>
      <point x="1650" y="-83"/>
      <point x="1635" y="-14"/>
      <point x="1587" y="48" type="curve"/>
      <point x="1397" y="28" type="line"/>
      <point x="1440" y="-30"/>
      <point x="1453" y="-88"/>
      <point x="1453" y="-168" type="curve" smooth="yes"/>
      <point x="1453" y="-248" type="line" smooth="yes"/>
      <point x="1453" y="-321"/>
      <point x="1433" y="-348"/>
      <point x="1379" y="-348" type="curve" smooth="yes"/>
      <point x="1325" y="-348"/>
      <point x="1304" y="-321"/>
      <point x="1304" y="-248" type="curve" smooth="yes"/>
      <point x="1304" y="-227" type="line"/>
    </contour>
  </outline>
</glyph>
